{"glyphs":{"0":{"ha":853,"x_min":64,"x_max":789,"o":"m 789 407 q 742 190 789 285 q 613 40 694 94 q 426 -14 531 -14 q 241 40 324 -14 q 111 190 158 94 q 64 407 64 285 q 111 624 64 529 q 241 774 158 719 q 426 829 324 829 q 613 774 531 829 q 742 624 694 719 q 789 407 789 529 m 565 407 q 547 521 565 472 q 498 597 529 569 q 426 625 467 625 q 353 597 385 625 q 303 521 321 569 q 286 407 286 472 q 303 293 286 342 q 353 217 321 244 q 426 190 385 190 q 498 217 467 190 q 547 293 529 244 q 565 407 565 342 z "},"1":{"ha":719,"x_min":58,"x_max":686,"o":"m 686 200 l 686 0 l 86 0 l 86 200 l 283 200 l 283 554 q 244 521 271 538 q 185 489 218 504 q 119 465 153 474 q 58 456 86 456 l 58 661 q 117 676 82 661 q 187 713 151 690 q 249 757 222 735 q 283 793 276 779 l 510 793 l 510 200 l 686 200 z "},"2":{"ha":806,"x_min":49,"x_max":746,"o":"m 49 0 q 59 117 49 65 q 94 210 69 168 q 159 290 118 253 q 263 360 200 326 q 372 419 328 394 q 442 460 415 443 q 478 492 468 476 q 489 528 489 508 q 476 574 489 554 q 440 603 464 593 q 382 614 417 614 q 329 607 354 614 q 281 586 304 600 q 238 553 258 572 q 196 511 217 535 l 56 675 q 116 722 79 699 q 200 765 153 746 q 303 795 247 783 q 421 807 360 807 q 590 777 521 807 q 694 693 658 747 q 731 565 731 639 q 716 483 731 518 q 678 419 701 447 q 624 369 654 392 q 565 329 594 347 q 503 297 532 313 q 449 266 474 281 q 402 235 424 251 q 361 200 381 219 l 746 200 l 746 0 l 49 0 z "},"3":{"ha":790,"x_min":33,"x_max":740,"o":"m 546 329 q 648 284 604 319 q 716 197 692 249 q 740 79 740 144 q 694 -71 740 -7 q 564 -169 649 -135 q 364 -204 479 -204 q 176 -173 258 -204 q 33 -81 93 -142 l 153 78 q 239 19 190 40 q 353 -1 288 -1 q 471 27 432 -1 q 510 114 510 56 q 463 208 510 176 q 317 240 417 240 l 275 240 l 275 400 l 321 400 q 442 433 397 400 q 486 517 486 465 q 472 568 486 547 q 431 599 457 589 q 369 610 406 610 q 267 583 314 610 q 188 506 219 557 l 47 667 q 131 737 78 707 q 253 783 185 767 q 394 800 321 800 q 567 769 493 800 q 683 684 642 739 q 724 554 724 629 q 701 452 724 500 q 639 372 679 404 q 546 329 599 339 z "},"4":{"ha":803,"x_min":25,"x_max":751,"o":"m 407 -176 l 407 14 l 25 14 l 25 213 l 478 793 l 629 793 l 629 214 l 751 214 l 751 14 l 629 14 l 629 -176 l 407 -176 m 244 214 l 433 214 l 433 460 l 244 214 z "},"5":{"ha":775,"x_min":38,"x_max":735,"o":"m 363 -207 q 169 -163 256 -207 q 38 -43 83 -119 l 161 94 q 255 16 201 44 q 364 -12 308 -12 q 439 5 407 -12 q 489 53 471 22 q 507 125 507 83 q 490 194 507 164 q 444 241 474 225 q 376 257 415 257 q 306 240 339 257 q 256 193 274 224 l 63 193 l 178 793 l 668 793 l 668 590 l 339 590 l 311 422 q 344 440 319 432 q 408 447 368 447 q 578 407 504 447 q 693 294 651 367 q 735 129 735 222 q 687 -47 735 29 q 556 -165 639 -122 q 363 -207 472 -207 z "},"6":{"ha":844,"x_min":60,"x_max":790,"o":"m 790 332 q 745 498 790 425 q 622 614 700 571 q 446 657 544 657 q 371 648 406 657 q 310 622 336 639 q 264 578 283 604 q 289 699 267 649 q 351 775 311 749 q 444 801 392 801 q 549 776 500 801 q 632 707 597 751 l 757 849 q 619 956 699 918 q 449 994 540 994 q 241 931 328 994 q 107 747 154 868 q 60 454 60 626 q 103 202 60 307 q 229 42 147 97 q 426 -14 311 -14 q 612 33 529 -14 q 742 157 694 79 q 790 332 790 235 m 426 174 q 351 195 386 174 q 295 253 317 217 q 274 331 274 289 q 294 408 274 374 q 350 462 315 442 q 426 482 385 482 q 503 462 468 482 q 558 408 538 442 q 579 332 579 374 q 558 253 579 289 q 502 195 536 217 q 426 174 468 174 z "},"7":{"ha":800,"x_min":40,"x_max":806,"o":"m 456 608 l 40 608 l 40 811 l 806 811 l 319 -175 l 68 -175 l 456 608 z "},"8":{"ha":843,"x_min":57,"x_max":786,"o":"m 786 299 q 737 135 786 206 q 604 26 688 65 q 421 -12 521 -12 q 240 27 322 -12 q 107 139 157 67 q 57 307 57 211 q 78 402 57 360 q 131 476 99 444 q 194 526 164 508 q 140 572 164 544 q 101 633 115 599 q 86 703 86 667 q 117 825 86 772 q 197 914 147 878 q 306 968 247 950 q 421 986 365 986 q 538 968 478 986 q 647 915 597 950 q 728 826 697 879 q 758 706 758 774 q 743 634 758 669 q 703 571 728 599 q 647 526 678 543 q 714 474 682 507 q 766 398 746 442 q 786 299 786 354 m 561 313 q 550 365 561 342 q 519 403 539 388 q 474 427 499 419 q 421 435 449 435 q 351 419 383 435 q 301 377 319 404 q 282 311 282 350 q 294 262 282 285 q 325 222 306 239 q 369 197 344 206 q 422 189 394 189 q 491 205 460 189 q 542 249 522 221 q 561 313 561 276 m 311 699 q 328 645 311 667 q 370 613 344 624 q 421 601 396 601 q 474 613 449 601 q 515 645 499 624 q 532 699 532 667 q 517 746 532 725 q 478 778 503 767 q 421 790 453 790 q 365 778 390 790 q 326 746 340 767 q 311 699 311 725 z "},"9":{"ha":818,"x_min":42,"x_max":772,"o":"m 42 447 q 87 282 42 356 q 210 165 132 208 q 386 122 289 122 q 460 131 426 122 q 522 158 494 140 q 567 201 549 176 q 543 81 565 132 q 481 4 521 31 q 386 -22 442 -22 q 283 3 332 -22 q 200 72 233 28 l 75 -69 q 213 -177 133 -139 q 383 -215 293 -215 q 590 -151 503 -215 q 725 33 678 -87 q 772 325 772 153 q 728 578 772 474 q 603 738 685 682 q 406 793 521 793 q 220 747 303 793 q 90 622 138 700 q 42 447 42 544 m 406 606 q 481 584 447 606 q 537 527 515 563 q 558 447 558 492 q 538 372 558 407 q 483 317 517 338 q 406 297 449 297 q 329 317 364 297 q 274 372 294 338 q 253 447 253 407 q 274 527 253 492 q 331 584 296 563 q 406 606 365 606 z "},"A":{"ha":931,"x_min":3,"x_max":928,"o":"m 343 986 l 589 986 l 928 0 l 694 0 l 618 221 l 311 221 l 236 0 l 3 0 l 343 986 m 581 378 l 465 757 l 347 378 l 581 378 z "},"Á":{"ha":931,"x_min":3,"x_max":928,"o":"m 343 986 l 589 986 l 928 0 l 694 0 l 618 221 l 311 221 l 236 0 l 3 0 l 343 986 m 581 378 l 465 757 l 347 378 l 581 378 m 538 1051 l 396 1090 l 468 1271 l 669 1271 l 538 1051 z "},"Ă":{"ha":931,"x_min":3,"x_max":928,"o":"m 343 986 l 589 986 l 928 0 l 694 0 l 618 221 l 311 221 l 236 0 l 3 0 l 343 986 m 581 378 l 465 757 l 347 378 l 581 378 m 465 1164 q 522 1194 497 1164 q 550 1271 546 1225 l 665 1271 q 610 1124 665 1182 q 465 1067 554 1067 q 322 1124 378 1067 q 265 1271 265 1182 l 383 1271 q 408 1196 383 1228 q 465 1164 432 1164 z "},"Ắ":{"ha":931,"x_min":3,"x_max":928,"o":"m 343 986 l 589 986 l 928 0 l 694 0 l 618 221 l 311 221 l 236 0 l 3 0 l 343 986 m 581 378 l 465 757 l 347 378 l 581 378 z "},"Ặ":{"ha":931,"x_min":3,"x_max":928,"o":"m 343 986 l 589 986 l 928 0 l 694 0 l 618 221 l 311 221 l 236 0 l 3 0 l 343 986 m 581 378 l 465 757 l 347 378 l 581 378 m 381 -286 l 381 -96 l 581 -96 l 581 -286 l 381 -286 m 465 1164 q 522 1194 497 1164 q 550 1271 546 1225 l 665 1271 q 610 1124 665 1182 q 465 1067 554 1067 q 322 1124 378 1067 q 265 1271 265 1182 l 383 1271 q 408 1196 383 1228 q 465 1164 432 1164 z "},"Ằ":{"ha":931,"x_min":3,"x_max":928,"o":"m 343 986 l 589 986 l 928 0 l 694 0 l 618 221 l 311 221 l 236 0 l 3 0 l 343 986 m 581 378 l 465 757 l 347 378 l 581 378 z "},"Ẳ":{"ha":931,"x_min":3,"x_max":928,"o":"m 343 986 l 589 986 l 928 0 l 694 0 l 618 221 l 311 221 l 236 0 l 3 0 l 343 986 m 581 378 l 465 757 l 347 378 l 581 378 z "},"Ẵ":{"ha":931,"x_min":3,"x_max":928,"o":"m 343 986 l 589 986 l 928 0 l 694 0 l 618 221 l 311 221 l 236 0 l 3 0 l 343 986 m 581 378 l 465 757 l 347 378 l 581 378 z "},"Â":{"ha":931,"x_min":3,"x_max":928,"o":"m 343 986 l 589 986 l 928 0 l 694 0 l 618 221 l 311 221 l 236 0 l 3 0 l 343 986 m 581 378 l 465 757 l 347 378 l 581 378 m 233 1121 l 386 1271 l 546 1271 l 697 1121 l 583 1071 l 465 1158 l 347 1071 l 233 1121 z "},"Ấ":{"ha":931,"x_min":3,"x_max":928,"o":"m 343 986 l 589 986 l 928 0 l 694 0 l 618 221 l 311 221 l 236 0 l 3 0 l 343 986 m 581 378 l 465 757 l 347 378 l 581 378 z "},"Ậ":{"ha":931,"x_min":3,"x_max":928,"o":"m 343 986 l 589 986 l 928 0 l 694 0 l 618 221 l 311 221 l 236 0 l 3 0 l 343 986 m 581 378 l 465 757 l 347 378 l 581 378 m 381 -286 l 381 -96 l 581 -96 l 581 -286 l 381 -286 m 233 1121 l 386 1271 l 546 1271 l 697 1121 l 583 1071 l 465 1158 l 347 1071 l 233 1121 z "},"Ầ":{"ha":931,"x_min":3,"x_max":928,"o":"m 343 986 l 589 986 l 928 0 l 694 0 l 618 221 l 311 221 l 236 0 l 3 0 l 343 986 m 581 378 l 465 757 l 347 378 l 581 378 z "},"Ẩ":{"ha":931,"x_min":3,"x_max":928,"o":"m 343 986 l 589 986 l 928 0 l 694 0 l 618 221 l 311 221 l 236 0 l 3 0 l 343 986 m 581 378 l 465 757 l 347 378 l 581 378 z "},"Ẫ":{"ha":931,"x_min":3,"x_max":928,"o":"m 343 986 l 589 986 l 928 0 l 694 0 l 618 221 l 311 221 l 236 0 l 3 0 l 343 986 m 581 378 l 465 757 l 347 378 l 581 378 z "},"Ȁ":{"ha":931,"x_min":3,"x_max":928,"o":"m 343 986 l 589 986 l 928 0 l 694 0 l 618 221 l 311 221 l 236 0 l 3 0 l 343 986 m 581 378 l 465 757 l 347 378 l 581 378 m 428 1272 l 596 1272 l 657 1092 l 550 1053 l 428 1272 m 186 1272 l 353 1272 l 415 1092 l 307 1053 l 186 1272 z "},"Ä":{"ha":931,"x_min":3,"x_max":928,"o":"m 343 986 l 589 986 l 928 0 l 694 0 l 618 221 l 311 221 l 236 0 l 3 0 l 343 986 m 581 378 l 465 757 l 347 378 l 581 378 m 229 1082 l 229 1261 l 413 1261 l 413 1082 l 229 1082 m 521 1082 l 521 1261 l 704 1261 l 704 1082 l 521 1082 z "},"Ạ":{"ha":931,"x_min":3,"x_max":928,"o":"m 343 986 l 589 986 l 928 0 l 694 0 l 618 221 l 311 221 l 236 0 l 3 0 l 343 986 m 581 378 l 465 757 l 347 378 l 581 378 m 381 -286 l 381 -96 l 581 -96 l 581 -286 l 381 -286 z "},"À":{"ha":931,"x_min":3,"x_max":928,"o":"m 343 986 l 589 986 l 928 0 l 694 0 l 618 221 l 311 221 l 236 0 l 3 0 l 343 986 m 581 378 l 465 757 l 347 378 l 581 378 m 276 1271 l 478 1271 l 550 1090 l 410 1051 l 276 1271 z "},"Ả":{"ha":931,"x_min":3,"x_max":928,"o":"m 343 986 l 589 986 l 928 0 l 694 0 l 618 221 l 311 221 l 236 0 l 3 0 l 343 986 m 581 378 l 465 757 l 347 378 l 581 378 m 392 1204 l 328 1267 q 403 1322 367 1304 q 478 1339 439 1339 q 569 1308 536 1339 q 603 1229 603 1278 q 580 1148 603 1182 q 507 1074 557 1114 l 453 1131 q 488 1165 476 1149 q 500 1199 500 1182 q 489 1228 500 1217 q 460 1239 478 1239 q 426 1231 440 1239 q 392 1204 413 1222 z "},"Ȃ":{"ha":931,"x_min":3,"x_max":928,"o":"m 343 986 l 589 986 l 928 0 l 694 0 l 618 221 l 311 221 l 236 0 l 3 0 l 343 986 m 581 378 l 465 757 l 347 378 l 581 378 m 465 1174 q 408 1142 432 1174 q 383 1067 383 1110 l 265 1067 q 322 1213 265 1156 q 465 1271 378 1271 q 610 1213 554 1271 q 665 1067 665 1156 l 550 1067 q 522 1143 546 1113 q 465 1174 497 1174 z "},"Ā":{"ha":931,"x_min":3,"x_max":928,"o":"m 343 986 l 589 986 l 928 0 l 694 0 l 618 221 l 311 221 l 236 0 l 3 0 l 343 986 m 581 378 l 465 757 l 347 378 l 581 378 m 256 1119 l 256 1254 l 678 1254 l 678 1119 l 256 1119 z "},"Ą":{"ha":931,"x_min":3,"x_max":928,"o":"m 343 986 l 589 986 l 928 0 l 694 0 l 618 221 l 311 221 l 236 0 l 3 0 l 343 986 m 581 378 l 465 757 l 347 378 l 581 378 m 688 -157 q 725 -59 688 -108 q 836 31 763 -10 l 908 31 l 929 0 q 853 -62 879 -33 q 826 -115 826 -92 q 851 -153 826 -139 q 926 -168 876 -167 l 885 -289 q 770 -261 814 -281 q 707 -214 726 -242 q 688 -157 688 -186 z "},"Å":{"ha":931,"x_min":3,"x_max":928,"o":"m 343 986 l 589 986 l 928 0 l 694 0 l 618 221 l 311 221 l 236 0 l 3 0 l 343 986 m 581 378 l 465 757 l 347 378 l 581 378 m 313 1158 q 355 1253 313 1218 q 467 1288 397 1288 q 578 1253 536 1288 q 619 1158 619 1218 q 578 1067 619 1101 q 467 1032 536 1032 q 355 1067 397 1032 q 313 1158 313 1101 m 467 1215 q 425 1199 442 1215 q 408 1160 408 1183 q 425 1120 408 1138 q 467 1103 442 1103 q 508 1119 490 1103 q 525 1160 525 1136 q 508 1199 525 1183 q 467 1215 492 1215 z "},"Ǻ":{"ha":931,"x_min":3,"x_max":928,"o":"m 515 1103 l 374 1138 l 446 1299 l 649 1299 l 515 1103 m 343 986 l 589 986 l 928 0 l 694 0 l 618 221 l 311 221 l 236 0 l 3 0 l 343 986 m 581 378 l 465 757 l 347 378 l 581 378 m 313 1051 q 355 1144 313 1110 q 465 1179 397 1179 q 577 1144 535 1179 q 619 1051 619 1110 q 577 958 619 993 q 465 924 535 924 q 355 958 397 924 q 313 1051 313 993 m 465 1108 q 424 1092 442 1108 q 407 1051 407 1075 q 424 1012 407 1029 q 465 994 442 994 q 508 1012 490 994 q 525 1051 525 1029 q 508 1092 525 1075 q 465 1108 490 1108 z "},"Ã":{"ha":931,"x_min":3,"x_max":928,"o":"m 343 986 l 589 986 l 928 0 l 694 0 l 618 221 l 311 221 l 236 0 l 3 0 l 343 986 m 581 378 l 465 757 l 347 378 l 581 378 m 560 1074 q 488 1090 518 1074 q 432 1122 457 1106 q 375 1138 407 1138 q 331 1122 344 1138 q 313 1090 317 1107 q 310 1071 310 1074 l 190 1071 q 199 1119 190 1086 q 230 1185 208 1151 q 285 1244 251 1219 q 367 1268 318 1268 q 440 1251 411 1268 q 494 1218 468 1235 q 551 1201 519 1201 q 599 1217 585 1201 q 619 1251 614 1233 q 624 1271 624 1269 l 743 1271 q 733 1228 743 1260 q 702 1162 724 1197 q 646 1100 681 1126 q 560 1074 611 1074 z "},"Æ":{"ha":1344,"x_min":-36,"x_max":1300,"o":"m 572 986 l 1288 986 l 1288 786 l 858 786 l 858 601 l 1213 601 l 1213 403 l 858 403 l 858 200 l 1300 200 l 1300 0 l 632 0 l 632 221 l 333 221 l 207 0 l -36 0 l 572 986 m 614 421 l 614 732 l 429 421 l 614 421 z "},"Ǽ":{"ha":1344,"x_min":-36,"x_max":1300,"o":"m 572 986 l 1288 986 l 1288 786 l 858 786 l 858 601 l 1213 601 l 1213 403 l 858 403 l 858 200 l 1300 200 l 1300 0 l 632 0 l 632 221 l 333 221 l 207 0 l -36 0 l 572 986 m 614 421 l 614 732 l 429 421 l 614 421 m 931 1051 l 789 1090 l 861 1271 l 1063 1271 l 931 1051 z "},"B":{"ha":950,"x_min":94,"x_max":910,"o":"m 910 253 q 865 112 910 168 q 743 28 819 56 q 575 0 667 0 l 94 0 l 94 986 l 643 986 q 763 949 713 986 q 841 854 814 913 q 868 733 868 796 q 832 601 868 664 q 726 506 796 538 q 860 417 811 481 q 910 253 910 353 m 678 299 q 665 355 678 331 q 633 394 653 379 q 585 408 613 408 l 322 408 l 322 193 l 575 193 q 627 207 604 193 q 664 244 650 221 q 678 299 678 268 m 322 792 l 322 588 l 546 588 q 592 599 571 588 q 628 633 614 610 q 642 690 642 656 q 630 746 642 724 q 599 780 618 768 q 554 792 579 792 l 322 792 z "},"C":{"ha":956,"x_min":38,"x_max":936,"o":"m 38 501 q 71 678 38 592 q 168 836 104 765 q 324 949 232 907 q 532 992 415 992 q 773 932 671 992 q 925 776 875 872 l 750 654 q 691 736 728 707 q 610 777 654 765 q 526 789 567 789 q 413 763 461 789 q 332 694 364 738 q 285 599 300 651 q 269 493 269 546 q 288 381 269 435 q 340 285 306 326 q 422 219 374 243 q 529 194 471 194 q 614 208 571 194 q 694 252 657 222 q 750 331 731 282 l 936 221 q 840 97 907 149 q 690 19 774 46 q 524 -8 606 -8 q 327 35 417 -8 q 173 152 238 79 q 73 316 108 225 q 38 501 38 407 z "},"Ć":{"ha":956,"x_min":38,"x_max":936,"o":"m 38 501 q 71 678 38 592 q 168 836 104 765 q 324 949 232 907 q 532 992 415 992 q 773 932 671 992 q 925 776 875 872 l 750 654 q 691 736 728 707 q 610 777 654 765 q 526 789 567 789 q 413 763 461 789 q 332 694 364 738 q 285 599 300 651 q 269 493 269 546 q 288 381 269 435 q 340 285 306 326 q 422 219 374 243 q 529 194 471 194 q 614 208 571 194 q 694 252 657 222 q 750 331 731 282 l 936 221 q 840 97 907 149 q 690 19 774 46 q 524 -8 606 -8 q 327 35 417 -8 q 173 152 238 79 q 73 316 108 225 q 38 501 38 407 m 603 1051 l 461 1090 l 533 1271 l 735 1271 l 603 1051 z "},"Č":{"ha":956,"x_min":38,"x_max":936,"o":"m 38 501 q 71 678 38 592 q 168 836 104 765 q 324 949 232 907 q 532 992 415 992 q 773 932 671 992 q 925 776 875 872 l 750 654 q 691 736 728 707 q 610 777 654 765 q 526 789 567 789 q 413 763 461 789 q 332 694 364 738 q 285 599 300 651 q 269 493 269 546 q 288 381 269 435 q 340 285 306 326 q 422 219 374 243 q 529 194 471 194 q 614 208 571 194 q 694 252 657 222 q 750 331 731 282 l 936 221 q 840 97 907 149 q 690 19 774 46 q 524 -8 606 -8 q 327 35 417 -8 q 173 152 238 79 q 73 316 108 225 q 38 501 38 407 m 413 1271 l 531 1183 l 649 1271 l 763 1219 l 611 1071 l 451 1071 l 299 1219 l 413 1271 z "},"Ç":{"ha":956,"x_min":38,"x_max":936,"o":"m 38 501 q 71 678 38 592 q 168 836 104 765 q 324 949 232 907 q 532 992 415 992 q 773 932 671 992 q 925 776 875 872 l 750 654 q 691 736 728 707 q 610 777 654 765 q 526 789 567 789 q 413 763 461 789 q 332 694 364 738 q 285 599 300 651 q 269 493 269 546 q 288 381 269 435 q 340 285 306 326 q 422 219 374 243 q 529 194 471 194 q 614 208 571 194 q 694 252 657 222 q 750 331 731 282 l 936 221 q 840 97 907 149 q 690 19 774 46 q 524 -8 606 -8 q 327 35 417 -8 q 173 152 238 79 q 73 316 108 225 q 38 501 38 407 m 506 -292 q 423 -281 467 -292 q 336 -247 379 -269 l 389 -132 q 428 -153 408 -146 q 468 -160 447 -160 q 516 -144 497 -160 q 535 -101 535 -129 q 517 -49 535 -74 q 467 0 500 -25 l 539 44 q 630 -37 593 7 q 667 -144 667 -82 q 626 -248 667 -204 q 506 -292 586 -292 z "},"Ḉ":{"ha":956,"x_min":38,"x_max":936,"o":"m 38 501 q 71 678 38 592 q 168 836 104 765 q 324 949 232 907 q 532 992 415 992 q 773 932 671 992 q 925 776 875 872 l 750 654 q 691 736 728 707 q 610 777 654 765 q 526 789 567 789 q 413 763 461 789 q 332 694 364 738 q 285 599 300 651 q 269 493 269 546 q 288 381 269 435 q 340 285 306 326 q 422 219 374 243 q 529 194 471 194 q 614 208 571 194 q 694 252 657 222 q 750 331 731 282 l 936 221 q 840 97 907 149 q 690 19 774 46 q 524 -8 606 -8 q 327 35 417 -8 q 173 152 238 79 q 73 316 108 225 q 38 501 38 407 m 506 -292 q 423 -281 467 -292 q 336 -247 379 -269 l 389 -132 q 428 -153 408 -146 q 468 -160 447 -160 q 516 -144 497 -160 q 535 -101 535 -129 q 517 -49 535 -74 q 467 0 500 -25 l 539 44 q 630 -37 593 7 q 667 -144 667 -82 q 626 -248 667 -204 q 506 -292 586 -292 m 603 1051 l 461 1090 l 533 1271 l 735 1271 l 603 1051 z "},"Ĉ":{"ha":956,"x_min":38,"x_max":936,"o":"m 38 501 q 71 678 38 592 q 168 836 104 765 q 324 949 232 907 q 532 992 415 992 q 773 932 671 992 q 925 776 875 872 l 750 654 q 691 736 728 707 q 610 777 654 765 q 526 789 567 789 q 413 763 461 789 q 332 694 364 738 q 285 599 300 651 q 269 493 269 546 q 288 381 269 435 q 340 285 306 326 q 422 219 374 243 q 529 194 471 194 q 614 208 571 194 q 694 252 657 222 q 750 331 731 282 l 936 221 q 840 97 907 149 q 690 19 774 46 q 524 -8 606 -8 q 327 35 417 -8 q 173 152 238 79 q 73 316 108 225 q 38 501 38 407 m 299 1121 l 451 1271 l 611 1271 l 763 1121 l 649 1071 l 531 1158 l 413 1071 l 299 1121 z "},"Ċ":{"ha":956,"x_min":38,"x_max":936,"o":"m 38 501 q 71 678 38 592 q 168 836 104 765 q 324 949 232 907 q 532 992 415 992 q 773 932 671 992 q 925 776 875 872 l 750 654 q 691 736 728 707 q 610 777 654 765 q 526 789 567 789 q 413 763 461 789 q 332 694 364 738 q 285 599 300 651 q 269 493 269 546 q 288 381 269 435 q 340 285 306 326 q 422 219 374 243 q 529 194 471 194 q 614 208 571 194 q 694 252 657 222 q 750 331 731 282 l 936 221 q 840 97 907 149 q 690 19 774 46 q 524 -8 606 -8 q 327 35 417 -8 q 173 152 238 79 q 73 316 108 225 q 38 501 38 407 m 432 1081 l 432 1271 l 632 1271 l 632 1081 l 432 1081 z "},"D":{"ha":994,"x_min":94,"x_max":954,"o":"m 94 0 l 94 986 l 463 986 q 734 920 625 986 q 899 742 843 854 q 954 494 954 631 q 893 233 954 344 q 722 61 832 122 q 463 0 611 0 l 94 0 m 722 494 q 692 647 722 581 q 603 749 661 713 q 463 786 544 786 l 322 786 l 322 200 l 463 200 q 603 238 546 200 q 692 344 661 276 q 722 494 722 411 z "},"Ð":{"ha":1001,"x_min":42,"x_max":960,"o":"m 42 414 l 42 578 l 507 578 l 507 414 l 42 414 m 101 0 l 101 986 l 469 986 q 741 920 632 986 q 905 742 850 854 q 960 494 960 631 q 899 233 960 344 q 728 61 839 122 q 469 0 618 0 l 101 0 m 729 494 q 699 647 729 581 q 610 749 668 713 q 469 786 551 786 l 329 786 l 329 200 l 469 200 q 610 238 553 200 q 699 344 668 276 q 729 494 729 411 z "},"Ď":{"ha":994,"x_min":94,"x_max":954,"o":"m 94 0 l 94 986 l 463 986 q 734 920 625 986 q 899 742 843 854 q 954 494 954 631 q 893 233 954 344 q 722 61 832 122 q 463 0 611 0 l 94 0 m 722 494 q 692 647 722 581 q 603 749 661 713 q 463 786 544 786 l 322 786 l 322 200 l 463 200 q 603 238 546 200 q 692 344 661 276 q 722 494 722 411 m 332 1271 l 450 1183 l 568 1271 l 682 1219 l 531 1071 l 371 1071 l 218 1219 l 332 1271 z "},"Đ":{"ha":1001,"x_min":42,"x_max":960,"o":"m 42 414 l 42 578 l 507 578 l 507 414 l 42 414 m 101 0 l 101 986 l 469 986 q 741 920 632 986 q 905 742 850 854 q 960 494 960 631 q 899 233 960 344 q 728 61 839 122 q 469 0 618 0 l 101 0 m 729 494 q 699 647 729 581 q 610 749 668 713 q 469 786 551 786 l 329 786 l 329 200 l 469 200 q 610 238 553 200 q 699 344 668 276 q 729 494 729 411 z "},"Ḍ":{"ha":994,"x_min":94,"x_max":954,"o":"m 94 0 l 94 986 l 463 986 q 734 920 625 986 q 899 742 843 854 q 954 494 954 631 q 893 233 954 344 q 722 61 832 122 q 463 0 611 0 l 94 0 m 722 494 q 692 647 722 581 q 603 749 661 713 q 463 786 544 786 l 322 786 l 322 200 l 463 200 q 603 238 546 200 q 692 344 661 276 q 722 494 722 411 m 397 -286 l 397 -96 l 597 -96 l 597 -286 l 397 -286 z "},"Ḏ":{"ha":994,"x_min":94,"x_max":954,"o":"m 94 0 l 94 986 l 463 986 q 734 920 625 986 q 899 742 843 854 q 954 494 954 631 q 893 233 954 344 q 722 61 832 122 q 463 0 611 0 l 94 0 m 722 494 q 692 647 722 581 q 603 749 661 713 q 463 786 544 786 l 322 786 l 322 200 l 463 200 q 603 238 546 200 q 692 344 661 276 q 722 494 722 411 m 286 -242 l 286 -107 l 708 -107 l 708 -242 l 286 -242 z "},"E":{"ha":832,"x_min":94,"x_max":788,"o":"m 788 200 l 788 0 l 94 0 l 94 986 l 775 986 l 775 786 l 322 786 l 322 594 l 711 594 l 711 410 l 322 410 l 322 200 l 788 200 z "},"É":{"ha":832,"x_min":94,"x_max":788,"o":"m 788 200 l 788 0 l 94 0 l 94 986 l 775 986 l 775 786 l 322 786 l 322 594 l 711 594 l 711 410 l 322 410 l 322 200 l 788 200 m 518 1051 l 376 1090 l 449 1271 l 650 1271 l 518 1051 z "},"Ĕ":{"ha":832,"x_min":94,"x_max":788,"o":"m 788 200 l 788 0 l 94 0 l 94 986 l 775 986 l 775 786 l 322 786 l 322 594 l 711 594 l 711 410 l 322 410 l 322 200 l 788 200 m 446 1164 q 502 1194 478 1164 q 531 1271 526 1225 l 646 1271 q 590 1124 646 1182 q 446 1067 535 1067 q 302 1124 358 1067 q 246 1271 246 1182 l 364 1271 q 388 1196 364 1228 q 446 1164 413 1164 z "},"Ě":{"ha":832,"x_min":94,"x_max":788,"o":"m 788 200 l 788 0 l 94 0 l 94 986 l 775 986 l 775 786 l 322 786 l 322 594 l 711 594 l 711 410 l 322 410 l 322 200 l 788 200 m 328 1271 l 446 1183 l 564 1271 l 678 1219 l 526 1071 l 367 1071 l 214 1219 l 328 1271 z "},"Ḝ":{"ha":832,"x_min":94,"x_max":788,"o":"m 788 200 l 788 0 l 94 0 l 94 986 l 775 986 l 775 786 l 322 786 l 322 594 l 711 594 l 711 410 l 322 410 l 322 200 l 788 200 m 428 -292 q 345 -281 389 -292 q 258 -247 301 -269 l 311 -132 q 350 -153 331 -146 q 390 -160 369 -160 q 438 -144 419 -160 q 457 -101 457 -129 q 440 -49 457 -74 q 389 0 422 -25 l 461 44 q 552 -37 515 7 q 589 -144 589 -82 q 549 -248 589 -204 q 428 -292 508 -292 m 446 1164 q 502 1194 478 1164 q 531 1271 526 1225 l 646 1271 q 590 1124 646 1182 q 446 1067 535 1067 q 302 1124 358 1067 q 246 1271 246 1182 l 364 1271 q 388 1196 364 1228 q 446 1164 413 1164 z "},"Ê":{"ha":832,"x_min":94,"x_max":788,"o":"m 788 200 l 788 0 l 94 0 l 94 986 l 775 986 l 775 786 l 322 786 l 322 594 l 711 594 l 711 410 l 322 410 l 322 200 l 788 200 m 214 1121 l 367 1271 l 526 1271 l 678 1121 l 564 1071 l 446 1158 l 328 1071 l 214 1121 z "},"Ế":{"ha":832,"x_min":94,"x_max":863,"o":"m 788 200 l 788 0 l 94 0 l 94 986 l 775 986 l 775 786 l 322 786 l 322 594 l 711 594 l 711 410 l 322 410 l 322 200 l 788 200 z "},"Ệ":{"ha":832,"x_min":94,"x_max":788,"o":"m 788 200 l 788 0 l 94 0 l 94 986 l 775 986 l 775 786 l 322 786 l 322 594 l 711 594 l 711 410 l 322 410 l 322 200 l 788 200 m 347 -286 l 347 -96 l 547 -96 l 547 -286 l 347 -286 m 214 1121 l 367 1271 l 526 1271 l 678 1121 l 564 1071 l 446 1158 l 328 1071 l 214 1121 z "},"Ề":{"ha":832,"x_min":13,"x_max":788,"o":"m 788 200 l 788 0 l 94 0 l 94 986 l 775 986 l 775 786 l 322 786 l 322 594 l 711 594 l 711 410 l 322 410 l 322 200 l 788 200 z "},"Ể":{"ha":832,"x_min":94,"x_max":790,"o":"m 788 200 l 788 0 l 94 0 l 94 986 l 775 986 l 775 786 l 322 786 l 322 594 l 711 594 l 711 410 l 322 410 l 322 200 l 788 200 z "},"Ễ":{"ha":832,"x_min":94,"x_max":788,"o":"m 788 200 l 788 0 l 94 0 l 94 986 l 775 986 l 775 786 l 322 786 l 322 594 l 711 594 l 711 410 l 322 410 l 322 200 l 788 200 z "},"Ȅ":{"ha":832,"x_min":94,"x_max":788,"o":"m 788 200 l 788 0 l 94 0 l 94 986 l 775 986 l 775 786 l 322 786 l 322 594 l 711 594 l 711 410 l 322 410 l 322 200 l 788 200 m 408 1272 l 576 1272 l 638 1092 l 531 1053 l 408 1272 m 167 1272 l 333 1272 l 396 1092 l 288 1053 l 167 1272 z "},"Ë":{"ha":832,"x_min":94,"x_max":788,"o":"m 788 200 l 788 0 l 94 0 l 94 986 l 775 986 l 775 786 l 322 786 l 322 594 l 711 594 l 711 410 l 322 410 l 322 200 l 788 200 m 208 1082 l 208 1261 l 392 1261 l 392 1082 l 208 1082 m 500 1082 l 500 1261 l 683 1261 l 683 1082 l 500 1082 z "},"Ė":{"ha":832,"x_min":94,"x_max":788,"o":"m 788 200 l 788 0 l 94 0 l 94 986 l 775 986 l 775 786 l 322 786 l 322 594 l 711 594 l 711 410 l 322 410 l 322 200 l 788 200 m 347 1081 l 347 1271 l 547 1271 l 547 1081 l 347 1081 z "},"Ẹ":{"ha":832,"x_min":94,"x_max":788,"o":"m 788 200 l 788 0 l 94 0 l 94 986 l 775 986 l 775 786 l 322 786 l 322 594 l 711 594 l 711 410 l 322 410 l 322 200 l 788 200 m 347 -286 l 347 -96 l 547 -96 l 547 -286 l 347 -286 z "},"È":{"ha":832,"x_min":94,"x_max":788,"o":"m 788 200 l 788 0 l 94 0 l 94 986 l 775 986 l 775 786 l 322 786 l 322 594 l 711 594 l 711 410 l 322 410 l 322 200 l 788 200 m 257 1271 l 458 1271 l 531 1090 l 390 1051 l 257 1271 z "},"Ẻ":{"ha":832,"x_min":94,"x_max":788,"o":"m 788 200 l 788 0 l 94 0 l 94 986 l 775 986 l 775 786 l 322 786 l 322 594 l 711 594 l 711 410 l 322 410 l 322 200 l 788 200 m 372 1204 l 308 1267 q 383 1322 347 1304 q 458 1339 419 1339 q 550 1308 517 1339 q 583 1229 583 1278 q 560 1148 583 1182 q 488 1074 538 1114 l 433 1131 q 469 1165 457 1149 q 481 1199 481 1182 q 469 1228 481 1217 q 440 1239 458 1239 q 407 1231 421 1239 q 372 1204 393 1222 z "},"Ȇ":{"ha":832,"x_min":94,"x_max":788,"o":"m 788 200 l 788 0 l 94 0 l 94 986 l 775 986 l 775 786 l 322 786 l 322 594 l 711 594 l 711 410 l 322 410 l 322 200 l 788 200 m 446 1174 q 388 1142 413 1174 q 364 1067 364 1110 l 246 1067 q 302 1213 246 1156 q 446 1271 358 1271 q 590 1213 535 1271 q 646 1067 646 1156 l 531 1067 q 502 1143 526 1113 q 446 1174 478 1174 z "},"Ē":{"ha":832,"x_min":94,"x_max":788,"o":"m 788 200 l 788 0 l 94 0 l 94 986 l 775 986 l 775 786 l 322 786 l 322 594 l 711 594 l 711 410 l 322 410 l 322 200 l 788 200 m 236 1119 l 236 1254 l 658 1254 l 658 1119 l 236 1119 z "},"Ḗ":{"ha":832,"x_min":94,"x_max":788,"o":"m 788 200 l 788 0 l 94 0 l 94 986 l 775 986 l 775 786 l 322 786 l 322 594 l 711 594 l 711 410 l 322 410 l 322 200 l 788 200 m 236 1119 l 236 1254 l 658 1254 l 658 1119 l 236 1119 m 519 1318 l 378 1357 l 450 1538 l 651 1538 l 519 1318 z "},"Ḕ":{"ha":832,"x_min":94,"x_max":788,"o":"m 788 200 l 788 0 l 94 0 l 94 986 l 775 986 l 775 786 l 322 786 l 322 594 l 711 594 l 711 410 l 322 410 l 322 200 l 788 200 m 236 1119 l 236 1254 l 658 1254 l 658 1119 l 236 1119 m 258 1539 l 460 1539 l 532 1358 l 392 1319 l 258 1539 z "},"Ę":{"ha":832,"x_min":94,"x_max":788,"o":"m 788 200 l 788 0 l 94 0 l 94 986 l 775 986 l 775 786 l 322 786 l 322 594 l 711 594 l 711 410 l 322 410 l 322 200 l 788 200 m 546 -157 q 583 -59 546 -108 q 694 31 621 -10 l 767 31 l 788 0 q 711 -62 738 -33 q 685 -115 685 -92 q 710 -153 685 -139 q 785 -168 735 -167 l 743 -289 q 628 -261 672 -281 q 565 -214 585 -242 q 546 -157 546 -186 z "},"Ẽ":{"ha":832,"x_min":94,"x_max":788,"o":"m 788 200 l 788 0 l 94 0 l 94 986 l 775 986 l 775 786 l 322 786 l 322 594 l 711 594 l 711 410 l 322 410 l 322 200 l 788 200 m 539 1074 q 467 1090 497 1074 q 411 1122 436 1106 q 354 1138 386 1138 q 310 1122 324 1138 q 292 1090 296 1107 q 289 1071 289 1074 l 169 1071 q 178 1119 169 1086 q 209 1185 188 1151 q 264 1244 231 1219 q 346 1268 297 1268 q 419 1251 390 1268 q 473 1218 447 1235 q 531 1201 499 1201 q 578 1217 564 1201 q 598 1251 593 1233 q 603 1271 603 1269 l 722 1271 q 713 1228 722 1260 q 681 1162 703 1197 q 625 1100 660 1126 q 539 1074 590 1074 z "},"F":{"ha":790,"x_min":94,"x_max":764,"o":"m 94 0 l 94 986 l 764 986 l 764 786 l 322 786 l 322 574 l 686 574 l 686 389 l 322 389 l 322 0 l 94 0 z "},"G":{"ha":1017,"x_min":39,"x_max":961,"o":"m 513 -7 q 329 30 415 -7 q 178 134 243 67 q 76 294 113 201 q 39 500 39 386 q 76 692 39 603 q 181 849 114 781 q 337 955 247 917 q 531 993 426 993 q 771 935 667 993 q 925 778 875 876 l 756 650 q 659 753 722 715 q 522 790 596 790 q 420 767 467 790 q 340 703 374 744 q 288 608 306 663 q 269 492 269 554 q 289 374 269 428 q 343 280 308 319 q 426 218 378 240 q 532 196 474 196 q 667 231 603 196 q 786 336 732 267 l 786 111 q 513 -7 668 -7 m 772 350 l 581 350 l 581 515 l 961 515 l 961 0 l 772 0 l 772 350 z "},"Ğ":{"ha":1017,"x_min":39,"x_max":961,"o":"m 513 -7 q 329 30 415 -7 q 178 134 243 67 q 76 294 113 201 q 39 500 39 386 q 76 692 39 603 q 181 849 114 781 q 337 955 247 917 q 531 993 426 993 q 771 935 667 993 q 925 778 875 876 l 756 650 q 659 753 722 715 q 522 790 596 790 q 420 767 467 790 q 340 703 374 744 q 288 608 306 663 q 269 492 269 554 q 289 374 269 428 q 343 280 308 319 q 426 218 378 240 q 532 196 474 196 q 667 231 603 196 q 786 336 732 267 l 786 111 q 513 -7 668 -7 m 772 350 l 581 350 l 581 515 l 961 515 l 961 0 l 772 0 l 772 350 m 529 1164 q 585 1194 561 1164 q 614 1271 610 1225 l 729 1271 q 674 1124 729 1182 q 529 1067 618 1067 q 385 1124 442 1067 q 329 1271 329 1182 l 447 1271 q 472 1196 447 1228 q 529 1164 496 1164 z "},"Ǧ":{"ha":1017,"x_min":39,"x_max":961,"o":"m 513 -7 q 329 30 415 -7 q 178 134 243 67 q 76 294 113 201 q 39 500 39 386 q 76 692 39 603 q 181 849 114 781 q 337 955 247 917 q 531 993 426 993 q 771 935 667 993 q 925 778 875 876 l 756 650 q 659 753 722 715 q 522 790 596 790 q 420 767 467 790 q 340 703 374 744 q 288 608 306 663 q 269 492 269 554 q 289 374 269 428 q 343 280 308 319 q 426 218 378 240 q 532 196 474 196 q 667 231 603 196 q 786 336 732 267 l 786 111 q 513 -7 668 -7 m 772 350 l 581 350 l 581 515 l 961 515 l 961 0 l 772 0 l 772 350 m 413 1271 l 531 1183 l 649 1271 l 763 1219 l 611 1071 l 451 1071 l 299 1219 l 413 1271 z "},"Ĝ":{"ha":1017,"x_min":39,"x_max":961,"o":"m 513 -7 q 329 30 415 -7 q 178 134 243 67 q 76 294 113 201 q 39 500 39 386 q 76 692 39 603 q 181 849 114 781 q 337 955 247 917 q 531 993 426 993 q 771 935 667 993 q 925 778 875 876 l 756 650 q 659 753 722 715 q 522 790 596 790 q 420 767 467 790 q 340 703 374 744 q 288 608 306 663 q 269 492 269 554 q 289 374 269 428 q 343 280 308 319 q 426 218 378 240 q 532 196 474 196 q 667 231 603 196 q 786 336 732 267 l 786 111 q 513 -7 668 -7 m 772 350 l 581 350 l 581 515 l 961 515 l 961 0 l 772 0 l 772 350 m 299 1121 l 451 1271 l 611 1271 l 763 1121 l 649 1071 l 531 1158 l 413 1071 l 299 1121 z "},"Ģ":{"ha":1017,"x_min":39,"x_max":961,"o":"m 513 -7 q 329 30 415 -7 q 178 134 243 67 q 76 294 113 201 q 39 500 39 386 q 76 692 39 603 q 181 849 114 781 q 337 955 247 917 q 531 993 426 993 q 771 935 667 993 q 925 778 875 876 l 756 650 q 659 753 722 715 q 522 790 596 790 q 420 767 467 790 q 340 703 374 744 q 288 608 306 663 q 269 492 269 554 q 289 374 269 428 q 343 280 308 319 q 426 218 378 240 q 532 196 474 196 q 667 231 603 196 q 786 336 732 267 l 786 111 q 513 -7 668 -7 m 772 350 l 581 350 l 581 515 l 961 515 l 961 0 l 772 0 l 772 350 m 440 -296 l 483 -203 l 417 -203 l 417 -65 l 603 -65 l 603 -203 l 538 -296 l 440 -296 z "},"Ġ":{"ha":1017,"x_min":39,"x_max":961,"o":"m 513 -7 q 329 30 415 -7 q 178 134 243 67 q 76 294 113 201 q 39 500 39 386 q 76 692 39 603 q 181 849 114 781 q 337 955 247 917 q 531 993 426 993 q 771 935 667 993 q 925 778 875 876 l 756 650 q 659 753 722 715 q 522 790 596 790 q 420 767 467 790 q 340 703 374 744 q 288 608 306 663 q 269 492 269 554 q 289 374 269 428 q 343 280 308 319 q 426 218 378 240 q 532 196 474 196 q 667 231 603 196 q 786 336 732 267 l 786 111 q 513 -7 668 -7 m 772 350 l 581 350 l 581 515 l 961 515 l 961 0 l 772 0 l 772 350 m 431 1081 l 431 1271 l 631 1271 l 631 1081 l 431 1081 z "},"Ḡ":{"ha":1017,"x_min":39,"x_max":961,"o":"m 513 -7 q 329 30 415 -7 q 178 134 243 67 q 76 294 113 201 q 39 500 39 386 q 76 692 39 603 q 181 849 114 781 q 337 955 247 917 q 531 993 426 993 q 771 935 667 993 q 925 778 875 876 l 756 650 q 659 753 722 715 q 522 790 596 790 q 420 767 467 790 q 340 703 374 744 q 288 608 306 663 q 269 492 269 554 q 289 374 269 428 q 343 280 308 319 q 426 218 378 240 q 532 196 474 196 q 667 231 603 196 q 786 336 732 267 l 786 111 q 513 -7 668 -7 m 772 350 l 581 350 l 581 515 l 961 515 l 961 0 l 772 0 l 772 350 m 321 1119 l 321 1254 l 743 1254 l 743 1119 l 321 1119 z "},"H":{"ha":1038,"x_min":94,"x_max":943,"o":"m 943 986 l 943 0 l 715 0 l 715 404 l 322 404 l 322 0 l 94 0 l 94 986 l 322 986 l 322 604 l 715 604 l 715 986 l 943 986 z "},"Ħ":{"ha":1049,"x_min":31,"x_max":1018,"o":"m 31 743 l 31 857 l 1018 857 l 1018 743 l 31 743 m 949 986 l 949 0 l 721 0 l 721 404 l 328 404 l 328 0 l 100 0 l 100 986 l 328 986 l 328 604 l 721 604 l 721 986 l 949 986 z "},"Ḫ":{"ha":1038,"x_min":94,"x_max":943,"o":"m 943 986 l 943 0 l 715 0 l 715 404 l 322 404 l 322 0 l 94 0 l 94 986 l 322 986 l 322 604 l 715 604 l 715 986 l 943 986 m 518 -179 q 574 -149 550 -179 q 603 -72 599 -118 l 718 -72 q 663 -219 718 -161 q 518 -276 607 -276 q 374 -219 431 -276 q 318 -72 318 -161 l 436 -72 q 460 -147 436 -115 q 518 -179 485 -179 z "},"Ĥ":{"ha":1038,"x_min":94,"x_max":943,"o":"m 943 986 l 943 0 l 715 0 l 715 404 l 322 404 l 322 0 l 94 0 l 94 986 l 322 986 l 322 604 l 715 604 l 715 986 l 943 986 m 290 1119 l 443 1269 l 603 1269 l 754 1119 l 640 1069 l 522 1157 l 404 1069 l 290 1119 z "},"Ḥ":{"ha":1038,"x_min":94,"x_max":943,"o":"m 943 986 l 943 0 l 715 0 l 715 404 l 322 404 l 322 0 l 94 0 l 94 986 l 322 986 l 322 604 l 715 604 l 715 986 l 943 986 m 419 -286 l 419 -96 l 619 -96 l 619 -286 l 419 -286 z "},"I":{"ha":417,"x_min":94,"x_max":322,"o":"m 94 0 l 94 986 l 322 986 l 322 0 l 94 0 z "},"Í":{"ha":417,"x_min":94,"x_max":413,"o":"m 94 0 l 94 986 l 322 986 l 322 0 l 94 0 m 281 1051 l 139 1090 l 211 1271 l 413 1271 l 281 1051 z "},"Ĭ":{"ha":417,"x_min":8,"x_max":408,"o":"m 94 0 l 94 986 l 322 986 l 322 0 l 94 0 m 207 1164 q 263 1194 239 1164 q 292 1271 288 1225 l 407 1271 q 351 1124 407 1182 q 207 1067 296 1067 q 63 1124 119 1067 q 7 1271 7 1182 l 125 1271 q 149 1196 125 1228 q 207 1164 174 1164 z "},"Î":{"ha":417,"x_min":-24,"x_max":440,"o":"m 94 0 l 94 986 l 322 986 l 322 0 l 94 0 m -24 1121 l 129 1271 l 289 1271 l 440 1121 l 326 1071 l 208 1158 l 90 1071 l -24 1121 z "},"Ȉ":{"ha":417,"x_min":-71,"x_max":399,"o":"m 94 0 l 94 986 l 322 986 l 322 0 l 94 0 m 171 1272 l 339 1272 l 400 1092 l 293 1053 l 171 1272 m -71 1272 l 96 1272 l 158 1092 l 50 1053 l -71 1272 z "},"Ï":{"ha":417,"x_min":-29,"x_max":446,"o":"m 94 0 l 94 986 l 322 986 l 322 0 l 94 0 m -29 1082 l -29 1261 l 154 1261 l 154 1082 l -29 1082 m 263 1082 l 263 1261 l 446 1261 l 446 1082 l 263 1082 z "},"Ḯ":{"ha":417,"x_min":-29,"x_max":446,"o":"m 94 0 l 94 986 l 322 986 l 322 0 l 94 0 m -29 1082 l -29 1261 l 154 1261 l 154 1082 l -29 1082 m 263 1082 l 263 1261 l 446 1261 l 446 1082 l 263 1082 m 281 1324 l 139 1363 l 211 1543 l 413 1543 l 281 1324 z "},"İ":{"ha":417,"x_min":94,"x_max":322,"o":"m 94 0 l 94 986 l 322 986 l 322 0 l 94 0 m 108 1081 l 108 1271 l 308 1271 l 308 1081 l 108 1081 z "},"Ị":{"ha":417,"x_min":94,"x_max":322,"o":"m 94 0 l 94 986 l 322 986 l 322 0 l 94 0 m 108 -286 l 108 -96 l 308 -96 l 308 -286 l 108 -286 z "},"Ì":{"ha":417,"x_min":18,"x_max":322,"o":"m 94 0 l 94 986 l 322 986 l 322 0 l 94 0 m 18 1271 l 219 1271 l 292 1090 l 151 1051 l 18 1271 z "},"Ỉ":{"ha":417,"x_min":71,"x_max":346,"o":"m 94 0 l 94 986 l 322 986 l 322 0 l 94 0 m 135 1204 l 71 1267 q 146 1322 110 1304 q 221 1339 182 1339 q 313 1308 279 1339 q 346 1229 346 1278 q 323 1148 346 1182 q 250 1074 300 1114 l 196 1131 q 231 1165 219 1149 q 243 1199 243 1182 q 232 1228 243 1217 q 203 1239 221 1239 q 169 1231 183 1239 q 135 1204 156 1222 z "},"Ȋ":{"ha":417,"x_min":8,"x_max":408,"o":"m 94 0 l 94 986 l 322 986 l 322 0 l 94 0 m 207 1174 q 149 1142 174 1174 q 125 1067 125 1110 l 7 1067 q 63 1213 7 1156 q 207 1271 119 1271 q 351 1213 296 1271 q 407 1067 407 1156 l 292 1067 q 263 1143 288 1113 q 207 1174 239 1174 z "},"Ī":{"ha":417,"x_min":-3,"x_max":421,"o":"m 94 0 l 94 986 l 322 986 l 322 0 l 94 0 m -1 1119 l -1 1254 l 421 1254 l 421 1119 l -1 1119 z "},"Į":{"ha":417,"x_min":81,"x_max":322,"o":"m 94 0 l 94 986 l 322 986 l 322 0 l 94 0 m 81 -157 q 118 -59 81 -108 q 229 31 156 -10 l 301 31 l 322 0 q 246 -62 272 -33 q 219 -115 219 -92 q 244 -153 219 -139 q 319 -168 269 -167 l 278 -289 q 163 -261 207 -281 q 100 -214 119 -242 q 81 -157 81 -186 z "},"Ĩ":{"ha":417,"x_min":-68,"x_max":485,"o":"m 94 0 l 94 986 l 322 986 l 322 0 l 94 0 m 301 1074 q 229 1090 260 1074 q 174 1122 199 1106 q 117 1138 149 1138 q 72 1122 86 1138 q 55 1090 58 1107 q 51 1071 51 1074 l -68 1071 q -59 1119 -68 1086 q -28 1185 -50 1151 q 26 1244 -7 1219 q 108 1268 60 1268 q 181 1251 153 1268 q 235 1218 210 1235 q 293 1201 261 1201 q 341 1217 326 1201 q 360 1251 356 1233 q 365 1271 365 1269 l 485 1271 q 475 1228 485 1260 q 444 1162 465 1197 q 388 1100 422 1126 q 301 1074 353 1074 z "},"J":{"ha":686,"x_min":6,"x_max":603,"o":"m 56 232 q 115 205 69 222 q 221 188 160 188 q 301 204 269 188 q 348 255 332 221 q 369 344 364 289 q 375 476 375 399 l 375 986 l 603 986 l 603 485 q 590 282 603 374 q 540 123 578 190 q 425 20 501 56 q 221 -15 349 -15 q 103 0 156 -15 q 6 46 50 15 l 56 232 z "},"Ĵ":{"ha":686,"x_min":6,"x_max":724,"o":"m 56 232 q 115 205 69 222 q 221 188 160 188 q 301 204 269 188 q 348 255 332 221 q 369 344 364 289 q 375 476 375 399 l 375 986 l 603 986 l 603 485 q 590 282 603 374 q 540 123 578 190 q 425 20 501 56 q 221 -15 349 -15 q 103 0 156 -15 q 6 46 50 15 l 56 232 m 260 1121 l 413 1271 l 572 1271 l 724 1121 l 610 1071 l 492 1158 l 374 1071 l 260 1121 z "},"K":{"ha":943,"x_min":94,"x_max":964,"o":"m 94 0 l 94 986 l 322 986 l 322 561 l 683 986 l 939 986 l 569 546 l 964 0 l 703 0 l 425 396 l 322 290 l 322 0 l 94 0 z "},"Ķ":{"ha":943,"x_min":94,"x_max":964,"o":"m 94 0 l 94 986 l 322 986 l 322 561 l 683 986 l 939 986 l 569 546 l 964 0 l 703 0 l 425 396 l 322 290 l 322 0 l 94 0 m 426 -296 l 469 -203 l 403 -203 l 403 -65 l 589 -65 l 589 -203 l 524 -296 l 426 -296 z "},"L":{"ha":813,"x_min":94,"x_max":800,"o":"m 94 0 l 94 986 l 322 986 l 322 200 l 800 200 l 800 0 l 94 0 z "},"Ĺ":{"ha":813,"x_min":94,"x_max":800,"o":"m 94 0 l 94 986 l 322 986 l 322 200 l 800 200 l 800 0 l 94 0 m 282 1051 l 140 1090 l 213 1271 l 414 1271 l 282 1051 z "},"Ľ":{"ha":813,"x_min":94,"x_max":800,"o":"m 94 0 l 94 986 l 322 986 l 322 200 l 800 200 l 800 0 l 94 0 m 632 796 l 490 835 l 563 1015 l 764 1015 l 632 796 z "},"Ļ":{"ha":813,"x_min":94,"x_max":800,"o":"m 94 0 l 94 986 l 322 986 l 322 200 l 800 200 l 800 0 l 94 0 m 393 -296 l 436 -203 l 369 -203 l 369 -65 l 556 -65 l 556 -203 l 490 -296 l 393 -296 z "},"Ŀ":{"ha":813,"x_min":94,"x_max":800,"o":"m 94 0 l 94 986 l 322 986 l 322 200 l 800 200 l 800 0 l 94 0 m 506 451 l 506 682 l 688 682 l 688 451 l 506 451 z "},"Ḷ":{"ha":813,"x_min":94,"x_max":800,"o":"m 94 0 l 94 986 l 322 986 l 322 200 l 800 200 l 800 0 l 94 0 m 368 -286 l 368 -96 l 568 -96 l 568 -286 l 368 -286 z "},"Ḻ":{"ha":813,"x_min":94,"x_max":800,"o":"m 94 0 l 94 986 l 322 986 l 322 200 l 800 200 l 800 0 l 94 0 m 256 -242 l 256 -107 l 678 -107 l 678 -242 l 256 -242 z "},"Ł":{"ha":826,"x_min":-12,"x_max":814,"o":"m 40 342 l -12 461 l 465 731 l 517 611 l 40 342 m 110 0 l 110 986 l 338 986 l 338 200 l 814 200 l 814 0 l 110 0 z "},"M":{"ha":1194,"x_min":94,"x_max":1100,"o":"m 872 0 l 872 588 l 660 160 l 535 160 l 322 588 l 322 0 l 94 0 l 94 986 l 342 986 l 597 471 l 854 986 l 1100 986 l 1100 0 l 872 0 z "},"Ṃ":{"ha":1194,"x_min":94,"x_max":1100,"o":"m 872 0 l 872 588 l 660 160 l 535 160 l 322 588 l 322 0 l 94 0 l 94 986 l 342 986 l 597 471 l 854 986 l 1100 986 l 1100 0 l 872 0 m 497 -286 l 497 -96 l 697 -96 l 697 -286 l 497 -286 z "},"N":{"ha":1054,"x_min":94,"x_max":960,"o":"m 322 564 l 322 0 l 94 0 l 94 986 l 275 986 l 732 406 l 732 986 l 960 986 l 960 0 l 774 0 l 322 564 z "},"Ń":{"ha":1054,"x_min":94,"x_max":960,"o":"m 322 564 l 322 0 l 94 0 l 94 986 l 275 986 l 732 406 l 732 986 l 960 986 l 960 0 l 774 0 l 322 564 m 597 1050 l 456 1089 l 528 1269 l 729 1269 l 597 1050 z "},"Ň":{"ha":1054,"x_min":94,"x_max":960,"o":"m 322 564 l 322 0 l 94 0 l 94 986 l 275 986 l 732 406 l 732 986 l 960 986 l 960 0 l 774 0 l 322 564 m 407 1269 l 525 1182 l 643 1269 l 757 1218 l 606 1069 l 446 1069 l 293 1218 l 407 1269 z "},"Ņ":{"ha":1054,"x_min":94,"x_max":960,"o":"m 322 564 l 322 0 l 94 0 l 94 986 l 275 986 l 732 406 l 732 986 l 960 986 l 960 0 l 774 0 l 322 564 m 450 -296 l 493 -203 l 426 -203 l 426 -65 l 613 -65 l 613 -203 l 547 -296 l 450 -296 z "},"Ṅ":{"ha":1054,"x_min":94,"x_max":960,"o":"m 322 564 l 322 0 l 94 0 l 94 986 l 275 986 l 732 406 l 732 986 l 960 986 l 960 0 l 774 0 l 322 564 m 425 1079 l 425 1269 l 625 1269 l 625 1079 l 425 1079 z "},"Ṇ":{"ha":1054,"x_min":94,"x_max":960,"o":"m 322 564 l 322 0 l 94 0 l 94 986 l 275 986 l 732 406 l 732 986 l 960 986 l 960 0 l 774 0 l 322 564 m 425 -286 l 425 -96 l 625 -96 l 625 -286 l 425 -286 z "},"Ŋ":{"ha":1032,"x_min":94,"x_max":936,"o":"m 322 557 l 322 0 l 94 0 l 94 986 l 269 986 l 708 418 l 708 985 l 936 985 l 936 -3 q 901 -149 936 -87 q 804 -246 865 -211 q 668 -281 743 -281 q 564 -263 614 -281 q 474 -211 514 -246 l 567 -60 q 600 -82 581 -75 q 640 -89 619 -89 q 678 -80 663 -89 q 704 -53 694 -71 q 714 -12 714 -35 l 714 49 l 322 557 z "},"Ṉ":{"ha":1054,"x_min":94,"x_max":960,"o":"m 322 564 l 322 0 l 94 0 l 94 986 l 275 986 l 732 406 l 732 986 l 960 986 l 960 0 l 774 0 l 322 564 m 314 -242 l 314 -107 l 736 -107 l 736 -242 l 314 -242 z "},"Ñ":{"ha":1054,"x_min":94,"x_max":960,"o":"m 322 564 l 322 0 l 94 0 l 94 986 l 275 986 l 732 406 l 732 986 l 960 986 l 960 0 l 774 0 l 322 564 m 618 1072 q 546 1088 576 1072 q 490 1120 515 1104 q 433 1136 465 1136 q 389 1121 403 1136 q 372 1089 375 1106 q 368 1069 368 1072 l 249 1069 q 258 1117 249 1085 q 288 1184 267 1150 q 343 1242 310 1218 q 425 1267 376 1267 q 498 1250 469 1267 q 552 1217 526 1233 q 610 1200 578 1200 q 658 1216 643 1200 q 677 1250 672 1232 q 682 1269 682 1268 l 801 1269 q 792 1227 801 1258 q 760 1160 782 1196 q 704 1099 739 1125 q 618 1072 669 1072 z "},"O":{"ha":1056,"x_min":38,"x_max":1018,"o":"m 526 -8 q 326 34 415 -8 q 172 148 236 76 q 72 309 107 219 q 38 494 38 399 q 74 682 38 593 q 177 841 111 771 q 333 951 243 911 q 531 992 424 992 q 730 949 640 992 q 884 835 819 907 q 983 673 949 763 q 1018 490 1018 583 q 982 303 1018 392 q 879 144 946 214 q 723 33 813 74 q 526 -8 633 -8 m 269 492 q 286 381 269 435 q 335 286 303 328 q 417 219 368 244 q 528 194 465 194 q 642 220 593 194 q 722 289 690 246 q 770 385 754 332 q 786 494 786 439 q 769 604 786 551 q 719 699 753 657 q 638 765 686 742 q 528 789 589 789 q 415 764 463 789 q 334 697 367 739 q 285 601 301 654 q 269 492 269 547 z "},"Ó":{"ha":1056,"x_min":38,"x_max":1018,"o":"m 526 -8 q 326 34 415 -8 q 172 148 236 76 q 72 309 107 219 q 38 494 38 399 q 74 682 38 593 q 177 841 111 771 q 333 951 243 911 q 531 992 424 992 q 730 949 640 992 q 884 835 819 907 q 983 673 949 763 q 1018 490 1018 583 q 982 303 1018 392 q 879 144 946 214 q 723 33 813 74 q 526 -8 633 -8 m 269 492 q 286 381 269 435 q 335 286 303 328 q 417 219 368 244 q 528 194 465 194 q 642 220 593 194 q 722 289 690 246 q 770 385 754 332 q 786 494 786 439 q 769 604 786 551 q 719 699 753 657 q 638 765 686 742 q 528 789 589 789 q 415 764 463 789 q 334 697 367 739 q 285 601 301 654 q 269 492 269 547 m 603 1051 l 461 1090 l 533 1271 l 735 1271 l 603 1051 z "},"Ŏ":{"ha":1056,"x_min":38,"x_max":1018,"o":"m 526 -8 q 326 34 415 -8 q 172 148 236 76 q 72 309 107 219 q 38 494 38 399 q 74 682 38 593 q 177 841 111 771 q 333 951 243 911 q 531 992 424 992 q 730 949 640 992 q 884 835 819 907 q 983 673 949 763 q 1018 490 1018 583 q 982 303 1018 392 q 879 144 946 214 q 723 33 813 74 q 526 -8 633 -8 m 269 492 q 286 381 269 435 q 335 286 303 328 q 417 219 368 244 q 528 194 465 194 q 642 220 593 194 q 722 289 690 246 q 770 385 754 332 q 786 494 786 439 q 769 604 786 551 q 719 699 753 657 q 638 765 686 742 q 528 789 589 789 q 415 764 463 789 q 334 697 367 739 q 285 601 301 654 q 269 492 269 547 m 531 1164 q 587 1194 563 1164 q 615 1271 611 1225 l 731 1271 q 675 1124 731 1182 q 531 1067 619 1067 q 387 1124 443 1067 q 331 1271 331 1182 l 449 1271 q 473 1196 449 1228 q 531 1164 497 1164 z "},"Ô":{"ha":1056,"x_min":38,"x_max":1018,"o":"m 526 -8 q 326 34 415 -8 q 172 148 236 76 q 72 309 107 219 q 38 494 38 399 q 74 682 38 593 q 177 841 111 771 q 333 951 243 911 q 531 992 424 992 q 730 949 640 992 q 884 835 819 907 q 983 673 949 763 q 1018 490 1018 583 q 982 303 1018 392 q 879 144 946 214 q 723 33 813 74 q 526 -8 633 -8 m 269 492 q 286 381 269 435 q 335 286 303 328 q 417 219 368 244 q 528 194 465 194 q 642 220 593 194 q 722 289 690 246 q 770 385 754 332 q 786 494 786 439 q 769 604 786 551 q 719 699 753 657 q 638 765 686 742 q 528 789 589 789 q 415 764 463 789 q 334 697 367 739 q 285 601 301 654 q 269 492 269 547 m 299 1121 l 451 1271 l 611 1271 l 763 1121 l 649 1071 l 531 1158 l 413 1071 l 299 1121 z "},"Ố":{"ha":1056,"x_min":38,"x_max":1018,"o":"m 526 -8 q 326 34 415 -8 q 172 148 236 76 q 72 309 107 219 q 38 494 38 399 q 74 682 38 593 q 177 841 111 771 q 333 951 243 911 q 531 992 424 992 q 730 949 640 992 q 884 835 819 907 q 983 673 949 763 q 1018 490 1018 583 q 982 303 1018 392 q 879 144 946 214 q 723 33 813 74 q 526 -8 633 -8 m 269 492 q 286 381 269 435 q 335 286 303 328 q 417 219 368 244 q 528 194 465 194 q 642 220 593 194 q 722 289 690 246 q 770 385 754 332 q 786 494 786 439 q 769 604 786 551 q 719 699 753 657 q 638 765 686 742 q 528 789 589 789 q 415 764 463 789 q 334 697 367 739 q 285 601 301 654 q 269 492 269 547 z "},"Ộ":{"ha":1056,"x_min":38,"x_max":1018,"o":"m 526 -8 q 326 34 415 -8 q 172 148 236 76 q 72 309 107 219 q 38 494 38 399 q 74 682 38 593 q 177 841 111 771 q 333 951 243 911 q 531 992 424 992 q 730 949 640 992 q 884 835 819 907 q 983 673 949 763 q 1018 490 1018 583 q 982 303 1018 392 q 879 144 946 214 q 723 33 813 74 q 526 -8 633 -8 m 269 492 q 286 381 269 435 q 335 286 303 328 q 417 219 368 244 q 528 194 465 194 q 642 220 593 194 q 722 289 690 246 q 770 385 754 332 q 786 494 786 439 q 769 604 786 551 q 719 699 753 657 q 638 765 686 742 q 528 789 589 789 q 415 764 463 789 q 334 697 367 739 q 285 601 301 654 q 269 492 269 547 m 426 -286 l 426 -96 l 626 -96 l 626 -286 l 426 -286 m 299 1121 l 451 1271 l 611 1271 l 763 1121 l 649 1071 l 531 1158 l 413 1071 l 299 1121 z "},"Ồ":{"ha":1056,"x_min":38,"x_max":1018,"o":"m 526 -8 q 326 34 415 -8 q 172 148 236 76 q 72 309 107 219 q 38 494 38 399 q 74 682 38 593 q 177 841 111 771 q 333 951 243 911 q 531 992 424 992 q 730 949 640 992 q 884 835 819 907 q 983 673 949 763 q 1018 490 1018 583 q 982 303 1018 392 q 879 144 946 214 q 723 33 813 74 q 526 -8 633 -8 m 269 492 q 286 381 269 435 q 335 286 303 328 q 417 219 368 244 q 528 194 465 194 q 642 220 593 194 q 722 289 690 246 q 770 385 754 332 q 786 494 786 439 q 769 604 786 551 q 719 699 753 657 q 638 765 686 742 q 528 789 589 789 q 415 764 463 789 q 334 697 367 739 q 285 601 301 654 q 269 492 269 547 z "},"Ổ":{"ha":1056,"x_min":38,"x_max":1018,"o":"m 526 -8 q 326 34 415 -8 q 172 148 236 76 q 72 309 107 219 q 38 494 38 399 q 74 682 38 593 q 177 841 111 771 q 333 951 243 911 q 531 992 424 992 q 730 949 640 992 q 884 835 819 907 q 983 673 949 763 q 1018 490 1018 583 q 982 303 1018 392 q 879 144 946 214 q 723 33 813 74 q 526 -8 633 -8 m 269 492 q 286 381 269 435 q 335 286 303 328 q 417 219 368 244 q 528 194 465 194 q 642 220 593 194 q 722 289 690 246 q 770 385 754 332 q 786 494 786 439 q 769 604 786 551 q 719 699 753 657 q 638 765 686 742 q 528 789 589 789 q 415 764 463 789 q 334 697 367 739 q 285 601 301 654 q 269 492 269 547 z "},"Ỗ":{"ha":1056,"x_min":38,"x_max":1018,"o":"m 526 -8 q 326 34 415 -8 q 172 148 236 76 q 72 309 107 219 q 38 494 38 399 q 74 682 38 593 q 177 841 111 771 q 333 951 243 911 q 531 992 424 992 q 730 949 640 992 q 884 835 819 907 q 983 673 949 763 q 1018 490 1018 583 q 982 303 1018 392 q 879 144 946 214 q 723 33 813 74 q 526 -8 633 -8 m 269 492 q 286 381 269 435 q 335 286 303 328 q 417 219 368 244 q 528 194 465 194 q 642 220 593 194 q 722 289 690 246 q 770 385 754 332 q 786 494 786 439 q 769 604 786 551 q 719 699 753 657 q 638 765 686 742 q 528 789 589 789 q 415 764 463 789 q 334 697 367 739 q 285 601 301 654 q 269 492 269 547 z "},"Ȍ":{"ha":1056,"x_min":38,"x_max":1018,"o":"m 526 -8 q 326 34 415 -8 q 172 148 236 76 q 72 309 107 219 q 38 494 38 399 q 74 682 38 593 q 177 841 111 771 q 333 951 243 911 q 531 992 424 992 q 730 949 640 992 q 884 835 819 907 q 983 673 949 763 q 1018 490 1018 583 q 982 303 1018 392 q 879 144 946 214 q 723 33 813 74 q 526 -8 633 -8 m 269 492 q 286 381 269 435 q 335 286 303 328 q 417 219 368 244 q 528 194 465 194 q 642 220 593 194 q 722 289 690 246 q 770 385 754 332 q 786 494 786 439 q 769 604 786 551 q 719 699 753 657 q 638 765 686 742 q 528 789 589 789 q 415 764 463 789 q 334 697 367 739 q 285 601 301 654 q 269 492 269 547 m 493 1272 l 661 1272 l 722 1092 l 615 1053 l 493 1272 m 251 1272 l 418 1272 l 481 1092 l 372 1053 l 251 1272 z "},"Ö":{"ha":1056,"x_min":38,"x_max":1018,"o":"m 526 -8 q 326 34 415 -8 q 172 148 236 76 q 72 309 107 219 q 38 494 38 399 q 74 682 38 593 q 177 841 111 771 q 333 951 243 911 q 531 992 424 992 q 730 949 640 992 q 884 835 819 907 q 983 673 949 763 q 1018 490 1018 583 q 982 303 1018 392 q 879 144 946 214 q 723 33 813 74 q 526 -8 633 -8 m 269 492 q 286 381 269 435 q 335 286 303 328 q 417 219 368 244 q 528 194 465 194 q 642 220 593 194 q 722 289 690 246 q 770 385 754 332 q 786 494 786 439 q 769 604 786 551 q 719 699 753 657 q 638 765 686 742 q 528 789 589 789 q 415 764 463 789 q 334 697 367 739 q 285 601 301 654 q 269 492 269 547 m 293 1082 l 293 1261 l 476 1261 l 476 1082 l 293 1082 m 585 1082 l 585 1261 l 768 1261 l 768 1082 l 585 1082 z "},"Ȫ":{"ha":1056,"x_min":38,"x_max":1018,"o":"m 526 -8 q 326 34 415 -8 q 172 148 236 76 q 72 309 107 219 q 38 494 38 399 q 74 682 38 593 q 177 841 111 771 q 333 951 243 911 q 531 992 424 992 q 730 949 640 992 q 884 835 819 907 q 983 673 949 763 q 1018 490 1018 583 q 982 303 1018 392 q 879 144 946 214 q 723 33 813 74 q 526 -8 633 -8 m 269 492 q 286 381 269 435 q 335 286 303 328 q 417 219 368 244 q 528 194 465 194 q 642 220 593 194 q 722 289 690 246 q 770 385 754 332 q 786 494 786 439 q 769 604 786 551 q 719 699 753 657 q 638 765 686 742 q 528 789 589 789 q 415 764 463 789 q 334 697 367 739 q 285 601 301 654 q 269 492 269 547 m 293 1082 l 293 1261 l 476 1261 l 476 1082 l 293 1082 m 585 1082 l 585 1261 l 768 1261 l 768 1082 l 585 1082 m 321 1392 l 321 1526 l 743 1526 l 743 1392 l 321 1392 z "},"Ȱ":{"ha":1056,"x_min":38,"x_max":1018,"o":"m 526 -8 q 326 34 415 -8 q 172 148 236 76 q 72 309 107 219 q 38 494 38 399 q 74 682 38 593 q 177 841 111 771 q 333 951 243 911 q 531 992 424 992 q 730 949 640 992 q 884 835 819 907 q 983 673 949 763 q 1018 490 1018 583 q 982 303 1018 392 q 879 144 946 214 q 723 33 813 74 q 526 -8 633 -8 m 269 492 q 286 381 269 435 q 335 286 303 328 q 417 219 368 244 q 528 194 465 194 q 642 220 593 194 q 722 289 690 246 q 770 385 754 332 q 786 494 786 439 q 769 604 786 551 q 719 699 753 657 q 638 765 686 742 q 528 789 589 789 q 415 764 463 789 q 334 697 367 739 q 285 601 301 654 q 269 492 269 547 m 431 1081 l 431 1271 l 631 1271 l 631 1081 l 431 1081 m 321 1404 l 321 1539 l 743 1539 l 743 1404 l 321 1404 z "},"Ọ":{"ha":1056,"x_min":38,"x_max":1018,"o":"m 526 -8 q 326 34 415 -8 q 172 148 236 76 q 72 309 107 219 q 38 494 38 399 q 74 682 38 593 q 177 841 111 771 q 333 951 243 911 q 531 992 424 992 q 730 949 640 992 q 884 835 819 907 q 983 673 949 763 q 1018 490 1018 583 q 982 303 1018 392 q 879 144 946 214 q 723 33 813 74 q 526 -8 633 -8 m 269 492 q 286 381 269 435 q 335 286 303 328 q 417 219 368 244 q 528 194 465 194 q 642 220 593 194 q 722 289 690 246 q 770 385 754 332 q 786 494 786 439 q 769 604 786 551 q 719 699 753 657 q 638 765 686 742 q 528 789 589 789 q 415 764 463 789 q 334 697 367 739 q 285 601 301 654 q 269 492 269 547 m 426 -286 l 426 -96 l 626 -96 l 626 -286 l 426 -286 z "},"Ò":{"ha":1056,"x_min":38,"x_max":1018,"o":"m 526 -8 q 326 34 415 -8 q 172 148 236 76 q 72 309 107 219 q 38 494 38 399 q 74 682 38 593 q 177 841 111 771 q 333 951 243 911 q 531 992 424 992 q 730 949 640 992 q 884 835 819 907 q 983 673 949 763 q 1018 490 1018 583 q 982 303 1018 392 q 879 144 946 214 q 723 33 813 74 q 526 -8 633 -8 m 269 492 q 286 381 269 435 q 335 286 303 328 q 417 219 368 244 q 528 194 465 194 q 642 220 593 194 q 722 289 690 246 q 770 385 754 332 q 786 494 786 439 q 769 604 786 551 q 719 699 753 657 q 638 765 686 742 q 528 789 589 789 q 415 764 463 789 q 334 697 367 739 q 285 601 301 654 q 269 492 269 547 m 342 1271 l 543 1271 l 615 1090 l 475 1051 l 342 1271 z "},"Ỏ":{"ha":1056,"x_min":38,"x_max":1018,"o":"m 526 -8 q 326 34 415 -8 q 172 148 236 76 q 72 309 107 219 q 38 494 38 399 q 74 682 38 593 q 177 841 111 771 q 333 951 243 911 q 531 992 424 992 q 730 949 640 992 q 884 835 819 907 q 983 673 949 763 q 1018 490 1018 583 q 982 303 1018 392 q 879 144 946 214 q 723 33 813 74 q 526 -8 633 -8 m 269 492 q 286 381 269 435 q 335 286 303 328 q 417 219 368 244 q 528 194 465 194 q 642 220 593 194 q 722 289 690 246 q 770 385 754 332 q 786 494 786 439 q 769 604 786 551 q 719 699 753 657 q 638 765 686 742 q 528 789 589 789 q 415 764 463 789 q 334 697 367 739 q 285 601 301 654 q 269 492 269 547 m 457 1204 l 393 1267 q 468 1322 432 1304 q 543 1339 504 1339 q 635 1308 601 1339 q 668 1229 668 1278 q 645 1148 668 1182 q 572 1074 622 1114 l 518 1131 q 553 1165 542 1149 q 565 1199 565 1182 q 554 1228 565 1217 q 525 1239 543 1239 q 492 1231 506 1239 q 457 1204 478 1222 z "},"Ơ":{"ha":1056,"x_min":38,"x_max":1018,"o":"m 526 -8 q 326 34 415 -8 q 172 148 236 76 q 72 309 107 219 q 38 494 38 399 q 74 682 38 593 q 177 841 111 771 q 333 951 243 911 q 531 992 424 992 q 730 949 640 992 q 884 835 819 907 q 983 673 949 763 q 1018 490 1018 583 q 982 303 1018 392 q 879 144 946 214 q 723 33 813 74 q 526 -8 633 -8 m 269 492 q 286 381 269 435 q 335 286 303 328 q 417 219 368 244 q 528 194 465 194 q 642 220 593 194 q 722 289 690 246 q 770 385 754 332 q 786 494 786 439 q 769 604 786 551 q 719 699 753 657 q 638 765 686 742 q 528 789 589 789 q 415 764 463 789 q 334 697 367 739 q 285 601 301 654 q 269 492 269 547 m 608 833 l 611 985 q 692 992 660 985 q 740 1017 724 999 q 760 1060 758 1036 q 764 1111 763 1085 l 921 1111 q 916 1042 919 1078 q 899 972 913 1007 q 856 907 886 938 q 794 868 833 885 q 706 842 754 851 q 608 833 658 833 z "},"Ớ":{"ha":1056,"x_min":38,"x_max":1018,"o":"m 526 -8 q 326 34 415 -8 q 172 148 236 76 q 72 309 107 219 q 38 494 38 399 q 74 682 38 593 q 177 841 111 771 q 333 951 243 911 q 531 992 424 992 q 730 949 640 992 q 884 835 819 907 q 983 673 949 763 q 1018 490 1018 583 q 982 303 1018 392 q 879 144 946 214 q 723 33 813 74 q 526 -8 633 -8 m 269 492 q 286 381 269 435 q 335 286 303 328 q 417 219 368 244 q 528 194 465 194 q 642 220 593 194 q 722 289 690 246 q 770 385 754 332 q 786 494 786 439 q 769 604 786 551 q 719 699 753 657 q 638 765 686 742 q 528 789 589 789 q 415 764 463 789 q 334 697 367 739 q 285 601 301 654 q 269 492 269 547 m 608 833 l 611 985 q 692 992 660 985 q 740 1017 724 999 q 760 1060 758 1036 q 764 1111 763 1085 l 921 1111 q 916 1042 919 1078 q 899 972 913 1007 q 856 907 886 938 q 794 868 833 885 q 706 842 754 851 q 608 833 658 833 m 603 1051 l 461 1090 l 533 1271 l 735 1271 l 603 1051 z "},"Ợ":{"ha":1056,"x_min":38,"x_max":1018,"o":"m 526 -8 q 326 34 415 -8 q 172 148 236 76 q 72 309 107 219 q 38 494 38 399 q 74 682 38 593 q 177 841 111 771 q 333 951 243 911 q 531 992 424 992 q 730 949 640 992 q 884 835 819 907 q 983 673 949 763 q 1018 490 1018 583 q 982 303 1018 392 q 879 144 946 214 q 723 33 813 74 q 526 -8 633 -8 m 269 492 q 286 381 269 435 q 335 286 303 328 q 417 219 368 244 q 528 194 465 194 q 642 220 593 194 q 722 289 690 246 q 770 385 754 332 q 786 494 786 439 q 769 604 786 551 q 719 699 753 657 q 638 765 686 742 q 528 789 589 789 q 415 764 463 789 q 334 697 367 739 q 285 601 301 654 q 269 492 269 547 m 608 833 l 611 985 q 692 992 660 985 q 740 1017 724 999 q 760 1060 758 1036 q 764 1111 763 1085 l 921 1111 q 916 1042 919 1078 q 899 972 913 1007 q 856 907 886 938 q 794 868 833 885 q 706 842 754 851 q 608 833 658 833 m 426 -286 l 426 -96 l 626 -96 l 626 -286 l 426 -286 z "},"Ờ":{"ha":1056,"x_min":38,"x_max":1018,"o":"m 526 -8 q 326 34 415 -8 q 172 148 236 76 q 72 309 107 219 q 38 494 38 399 q 74 682 38 593 q 177 841 111 771 q 333 951 243 911 q 531 992 424 992 q 730 949 640 992 q 884 835 819 907 q 983 673 949 763 q 1018 490 1018 583 q 982 303 1018 392 q 879 144 946 214 q 723 33 813 74 q 526 -8 633 -8 m 269 492 q 286 381 269 435 q 335 286 303 328 q 417 219 368 244 q 528 194 465 194 q 642 220 593 194 q 722 289 690 246 q 770 385 754 332 q 786 494 786 439 q 769 604 786 551 q 719 699 753 657 q 638 765 686 742 q 528 789 589 789 q 415 764 463 789 q 334 697 367 739 q 285 601 301 654 q 269 492 269 547 m 608 833 l 611 985 q 692 992 660 985 q 740 1017 724 999 q 760 1060 758 1036 q 764 1111 763 1085 l 921 1111 q 916 1042 919 1078 q 899 972 913 1007 q 856 907 886 938 q 794 868 833 885 q 706 842 754 851 q 608 833 658 833 m 342 1271 l 543 1271 l 615 1090 l 475 1051 l 342 1271 z "},"Ở":{"ha":1056,"x_min":38,"x_max":1018,"o":"m 526 -8 q 326 34 415 -8 q 172 148 236 76 q 72 309 107 219 q 38 494 38 399 q 74 682 38 593 q 177 841 111 771 q 333 951 243 911 q 531 992 424 992 q 730 949 640 992 q 884 835 819 907 q 983 673 949 763 q 1018 490 1018 583 q 982 303 1018 392 q 879 144 946 214 q 723 33 813 74 q 526 -8 633 -8 m 269 492 q 286 381 269 435 q 335 286 303 328 q 417 219 368 244 q 528 194 465 194 q 642 220 593 194 q 722 289 690 246 q 770 385 754 332 q 786 494 786 439 q 769 604 786 551 q 719 699 753 657 q 638 765 686 742 q 528 789 589 789 q 415 764 463 789 q 334 697 367 739 q 285 601 301 654 q 269 492 269 547 m 608 833 l 611 985 q 692 992 660 985 q 740 1017 724 999 q 760 1060 758 1036 q 764 1111 763 1085 l 921 1111 q 916 1042 919 1078 q 899 972 913 1007 q 856 907 886 938 q 794 868 833 885 q 706 842 754 851 q 608 833 658 833 m 457 1204 l 393 1267 q 468 1322 432 1304 q 543 1339 504 1339 q 635 1308 601 1339 q 668 1229 668 1278 q 645 1148 668 1182 q 572 1074 622 1114 l 518 1131 q 553 1165 542 1149 q 565 1199 565 1182 q 554 1228 565 1217 q 525 1239 543 1239 q 492 1231 506 1239 q 457 1204 478 1222 z "},"Ỡ":{"ha":1056,"x_min":38,"x_max":1018,"o":"m 526 -8 q 326 34 415 -8 q 172 148 236 76 q 72 309 107 219 q 38 494 38 399 q 74 682 38 593 q 177 841 111 771 q 333 951 243 911 q 531 992 424 992 q 730 949 640 992 q 884 835 819 907 q 983 673 949 763 q 1018 490 1018 583 q 982 303 1018 392 q 879 144 946 214 q 723 33 813 74 q 526 -8 633 -8 m 269 492 q 286 381 269 435 q 335 286 303 328 q 417 219 368 244 q 528 194 465 194 q 642 220 593 194 q 722 289 690 246 q 770 385 754 332 q 786 494 786 439 q 769 604 786 551 q 719 699 753 657 q 638 765 686 742 q 528 789 589 789 q 415 764 463 789 q 334 697 367 739 q 285 601 301 654 q 269 492 269 547 m 608 833 l 611 985 q 692 992 660 985 q 740 1017 724 999 q 760 1060 758 1036 q 764 1111 763 1085 l 921 1111 q 916 1042 919 1078 q 899 972 913 1007 q 856 907 886 938 q 794 868 833 885 q 706 842 754 851 q 608 833 658 833 m 624 1074 q 551 1090 582 1074 q 496 1122 521 1106 q 439 1138 471 1138 q 394 1122 408 1138 q 377 1090 381 1107 q 374 1071 374 1074 l 254 1071 q 263 1119 254 1086 q 294 1185 272 1151 q 349 1244 315 1219 q 431 1268 382 1268 q 503 1251 475 1268 q 558 1218 532 1235 q 615 1201 583 1201 q 663 1217 649 1201 q 683 1251 678 1233 q 688 1271 688 1269 l 807 1271 q 797 1228 807 1260 q 766 1162 788 1197 q 710 1100 744 1126 q 624 1074 675 1074 z "},"Ő":{"ha":1056,"x_min":38,"x_max":1018,"o":"m 526 -8 q 326 34 415 -8 q 172 148 236 76 q 72 309 107 219 q 38 494 38 399 q 74 682 38 593 q 177 841 111 771 q 333 951 243 911 q 531 992 424 992 q 730 949 640 992 q 884 835 819 907 q 983 673 949 763 q 1018 490 1018 583 q 982 303 1018 392 q 879 144 946 214 q 723 33 813 74 q 526 -8 633 -8 m 269 492 q 286 381 269 435 q 335 286 303 328 q 417 219 368 244 q 528 194 465 194 q 642 220 593 194 q 722 289 690 246 q 770 385 754 332 q 786 494 786 439 q 769 604 786 551 q 719 699 753 657 q 638 765 686 742 q 528 789 589 789 q 415 764 463 789 q 334 697 367 739 q 285 601 301 654 q 269 492 269 547 m 443 1053 l 336 1092 l 399 1272 l 565 1272 l 443 1053 m 686 1053 l 579 1092 l 640 1272 l 807 1272 l 686 1053 z "},"Ȏ":{"ha":1056,"x_min":38,"x_max":1018,"o":"m 526 -8 q 326 34 415 -8 q 172 148 236 76 q 72 309 107 219 q 38 494 38 399 q 74 682 38 593 q 177 841 111 771 q 333 951 243 911 q 531 992 424 992 q 730 949 640 992 q 884 835 819 907 q 983 673 949 763 q 1018 490 1018 583 q 982 303 1018 392 q 879 144 946 214 q 723 33 813 74 q 526 -8 633 -8 m 269 492 q 286 381 269 435 q 335 286 303 328 q 417 219 368 244 q 528 194 465 194 q 642 220 593 194 q 722 289 690 246 q 770 385 754 332 q 786 494 786 439 q 769 604 786 551 q 719 699 753 657 q 638 765 686 742 q 528 789 589 789 q 415 764 463 789 q 334 697 367 739 q 285 601 301 654 q 269 492 269 547 m 531 1174 q 473 1142 497 1174 q 449 1067 449 1110 l 331 1067 q 387 1213 331 1156 q 531 1271 443 1271 q 675 1213 619 1271 q 731 1067 731 1156 l 615 1067 q 587 1143 611 1113 q 531 1174 563 1174 z "},"Ō":{"ha":1056,"x_min":38,"x_max":1018,"o":"m 526 -8 q 326 34 415 -8 q 172 148 236 76 q 72 309 107 219 q 38 494 38 399 q 74 682 38 593 q 177 841 111 771 q 333 951 243 911 q 531 992 424 992 q 730 949 640 992 q 884 835 819 907 q 983 673 949 763 q 1018 490 1018 583 q 982 303 1018 392 q 879 144 946 214 q 723 33 813 74 q 526 -8 633 -8 m 269 492 q 286 381 269 435 q 335 286 303 328 q 417 219 368 244 q 528 194 465 194 q 642 220 593 194 q 722 289 690 246 q 770 385 754 332 q 786 494 786 439 q 769 604 786 551 q 719 699 753 657 q 638 765 686 742 q 528 789 589 789 q 415 764 463 789 q 334 697 367 739 q 285 601 301 654 q 269 492 269 547 m 321 1119 l 321 1254 l 743 1254 l 743 1119 l 321 1119 z "},"Ṓ":{"ha":1056,"x_min":38,"x_max":1018,"o":"m 526 -8 q 326 34 415 -8 q 172 148 236 76 q 72 309 107 219 q 38 494 38 399 q 74 682 38 593 q 177 841 111 771 q 333 951 243 911 q 531 992 424 992 q 730 949 640 992 q 884 835 819 907 q 983 673 949 763 q 1018 490 1018 583 q 982 303 1018 392 q 879 144 946 214 q 723 33 813 74 q 526 -8 633 -8 m 269 492 q 286 381 269 435 q 335 286 303 328 q 417 219 368 244 q 528 194 465 194 q 642 220 593 194 q 722 289 690 246 q 770 385 754 332 q 786 494 786 439 q 769 604 786 551 q 719 699 753 657 q 638 765 686 742 q 528 789 589 789 q 415 764 463 789 q 334 697 367 739 q 285 601 301 654 q 269 492 269 547 m 321 1119 l 321 1254 l 743 1254 l 743 1119 l 321 1119 m 604 1318 l 463 1357 l 535 1538 l 736 1538 l 604 1318 z "},"Ṑ":{"ha":1056,"x_min":38,"x_max":1018,"o":"m 526 -8 q 326 34 415 -8 q 172 148 236 76 q 72 309 107 219 q 38 494 38 399 q 74 682 38 593 q 177 841 111 771 q 333 951 243 911 q 531 992 424 992 q 730 949 640 992 q 884 835 819 907 q 983 673 949 763 q 1018 490 1018 583 q 982 303 1018 392 q 879 144 946 214 q 723 33 813 74 q 526 -8 633 -8 m 269 492 q 286 381 269 435 q 335 286 303 328 q 417 219 368 244 q 528 194 465 194 q 642 220 593 194 q 722 289 690 246 q 770 385 754 332 q 786 494 786 439 q 769 604 786 551 q 719 699 753 657 q 638 765 686 742 q 528 789 589 789 q 415 764 463 789 q 334 697 367 739 q 285 601 301 654 q 269 492 269 547 m 321 1119 l 321 1254 l 743 1254 l 743 1119 l 321 1119 m 343 1539 l 544 1539 l 617 1358 l 476 1319 l 343 1539 z "},"Ǫ":{"ha":1056,"x_min":38,"x_max":1018,"o":"m 526 -8 q 326 34 415 -8 q 172 148 236 76 q 72 309 107 219 q 38 494 38 399 q 74 682 38 593 q 177 841 111 771 q 333 951 243 911 q 531 992 424 992 q 730 949 640 992 q 884 835 819 907 q 983 673 949 763 q 1018 490 1018 583 q 982 303 1018 392 q 879 144 946 214 q 723 33 813 74 q 526 -8 633 -8 m 269 492 q 286 381 269 435 q 335 286 303 328 q 417 219 368 244 q 528 194 465 194 q 642 220 593 194 q 722 289 690 246 q 770 385 754 332 q 786 494 786 439 q 769 604 786 551 q 719 699 753 657 q 638 765 686 742 q 528 789 589 789 q 415 764 463 789 q 334 697 367 739 q 285 601 301 654 q 269 492 269 547 m 406 -147 q 443 -49 406 -99 q 554 40 481 0 l 626 40 l 647 10 q 571 -53 597 -24 q 544 -106 544 -82 q 569 -143 544 -129 q 644 -158 594 -157 l 603 -279 q 488 -251 532 -271 q 425 -204 444 -232 q 406 -147 406 -176 z "},"Ø":{"ha":1054,"x_min":38,"x_max":1018,"o":"m 526 -8 q 326 34 415 -8 q 172 148 236 76 q 72 309 107 219 q 38 494 38 399 q 74 682 38 593 q 177 841 111 771 q 333 951 243 911 q 531 992 424 992 q 730 949 640 992 q 884 835 819 907 q 983 673 949 763 q 1018 490 1018 583 q 982 303 1018 392 q 879 144 946 214 q 723 33 813 74 q 526 -8 633 -8 m 269 492 q 286 381 269 435 q 335 286 303 328 q 417 219 368 244 q 528 194 465 194 q 642 220 593 194 q 722 289 690 246 q 770 385 754 332 q 786 494 786 439 q 769 604 786 551 q 719 699 753 657 q 638 765 686 742 q 528 789 589 789 q 415 764 463 789 q 334 697 367 739 q 285 601 301 654 q 269 492 269 547 m 1001 986 l 300 0 l 54 0 l 756 986 l 1001 986 z "},"Ǿ":{"ha":1054,"x_min":38,"x_max":1018,"o":"m 526 -8 q 326 34 415 -8 q 172 148 236 76 q 72 309 107 219 q 38 494 38 399 q 74 682 38 593 q 177 841 111 771 q 333 951 243 911 q 531 992 424 992 q 730 949 640 992 q 884 835 819 907 q 983 673 949 763 q 1018 490 1018 583 q 982 303 1018 392 q 879 144 946 214 q 723 33 813 74 q 526 -8 633 -8 m 269 492 q 286 381 269 435 q 335 286 303 328 q 417 219 368 244 q 528 194 465 194 q 642 220 593 194 q 722 289 690 246 q 770 385 754 332 q 786 494 786 439 q 769 604 786 551 q 719 699 753 657 q 638 765 686 742 q 528 789 589 789 q 415 764 463 789 q 334 697 367 739 q 285 601 301 654 q 269 492 269 547 m 1001 986 l 300 0 l 54 0 l 756 986 l 1001 986 m 603 1051 l 461 1090 l 533 1271 l 735 1271 l 603 1051 z "},"Õ":{"ha":1056,"x_min":38,"x_max":1018,"o":"m 526 -8 q 326 34 415 -8 q 172 148 236 76 q 72 309 107 219 q 38 494 38 399 q 74 682 38 593 q 177 841 111 771 q 333 951 243 911 q 531 992 424 992 q 730 949 640 992 q 884 835 819 907 q 983 673 949 763 q 1018 490 1018 583 q 982 303 1018 392 q 879 144 946 214 q 723 33 813 74 q 526 -8 633 -8 m 269 492 q 286 381 269 435 q 335 286 303 328 q 417 219 368 244 q 528 194 465 194 q 642 220 593 194 q 722 289 690 246 q 770 385 754 332 q 786 494 786 439 q 769 604 786 551 q 719 699 753 657 q 638 765 686 742 q 528 789 589 789 q 415 764 463 789 q 334 697 367 739 q 285 601 301 654 q 269 492 269 547 m 624 1074 q 551 1090 582 1074 q 496 1122 521 1106 q 439 1138 471 1138 q 394 1122 408 1138 q 377 1090 381 1107 q 374 1071 374 1074 l 254 1071 q 263 1119 254 1086 q 294 1185 272 1151 q 349 1244 315 1219 q 431 1268 382 1268 q 503 1251 475 1268 q 558 1218 532 1235 q 615 1201 583 1201 q 663 1217 649 1201 q 683 1251 678 1233 q 688 1271 688 1269 l 807 1271 q 797 1228 807 1260 q 766 1162 788 1197 q 710 1100 744 1126 q 624 1074 675 1074 z "},"Ṍ":{"ha":1056,"x_min":38,"x_max":1018,"o":"m 526 -8 q 326 34 415 -8 q 172 148 236 76 q 72 309 107 219 q 38 494 38 399 q 74 682 38 593 q 177 841 111 771 q 333 951 243 911 q 531 992 424 992 q 730 949 640 992 q 884 835 819 907 q 983 673 949 763 q 1018 490 1018 583 q 982 303 1018 392 q 879 144 946 214 q 723 33 813 74 q 526 -8 633 -8 m 269 492 q 286 381 269 435 q 335 286 303 328 q 417 219 368 244 q 528 194 465 194 q 642 220 593 194 q 722 289 690 246 q 770 385 754 332 q 786 494 786 439 q 769 604 786 551 q 719 699 753 657 q 638 765 686 742 q 528 789 589 789 q 415 764 463 789 q 334 697 367 739 q 285 601 301 654 q 269 492 269 547 m 624 1074 q 551 1090 582 1074 q 496 1122 521 1106 q 439 1138 471 1138 q 394 1122 408 1138 q 377 1090 381 1107 q 374 1071 374 1074 l 254 1071 q 263 1119 254 1086 q 294 1185 272 1151 q 349 1244 315 1219 q 431 1268 382 1268 q 503 1251 475 1268 q 558 1218 532 1235 q 615 1201 583 1201 q 663 1217 649 1201 q 683 1251 678 1233 q 688 1271 688 1269 l 807 1271 q 797 1228 807 1260 q 766 1162 788 1197 q 710 1100 744 1126 q 624 1074 675 1074 m 603 1336 l 461 1375 l 533 1556 l 735 1556 l 603 1336 z "},"Ṏ":{"ha":1056,"x_min":38,"x_max":1018,"o":"m 526 -8 q 326 34 415 -8 q 172 148 236 76 q 72 309 107 219 q 38 494 38 399 q 74 682 38 593 q 177 841 111 771 q 333 951 243 911 q 531 992 424 992 q 730 949 640 992 q 884 835 819 907 q 983 673 949 763 q 1018 490 1018 583 q 982 303 1018 392 q 879 144 946 214 q 723 33 813 74 q 526 -8 633 -8 m 269 492 q 286 381 269 435 q 335 286 303 328 q 417 219 368 244 q 528 194 465 194 q 642 220 593 194 q 722 289 690 246 q 770 385 754 332 q 786 494 786 439 q 769 604 786 551 q 719 699 753 657 q 638 765 686 742 q 528 789 589 789 q 415 764 463 789 q 334 697 367 739 q 285 601 301 654 q 269 492 269 547 m 624 1074 q 551 1090 582 1074 q 496 1122 521 1106 q 439 1138 471 1138 q 394 1122 408 1138 q 377 1090 381 1107 q 374 1071 374 1074 l 254 1071 q 263 1119 254 1086 q 294 1185 272 1151 q 349 1244 315 1219 q 431 1268 382 1268 q 503 1251 475 1268 q 558 1218 532 1235 q 615 1201 583 1201 q 663 1217 649 1201 q 683 1251 678 1233 q 688 1271 688 1269 l 807 1271 q 797 1228 807 1260 q 766 1162 788 1197 q 710 1100 744 1126 q 624 1074 675 1074 m 293 1367 l 293 1546 l 476 1546 l 476 1367 l 293 1367 m 585 1367 l 585 1546 l 768 1546 l 768 1367 l 585 1367 z "},"Ȭ":{"ha":1056,"x_min":38,"x_max":1018,"o":"m 526 -8 q 326 34 415 -8 q 172 148 236 76 q 72 309 107 219 q 38 494 38 399 q 74 682 38 593 q 177 841 111 771 q 333 951 243 911 q 531 992 424 992 q 730 949 640 992 q 884 835 819 907 q 983 673 949 763 q 1018 490 1018 583 q 982 303 1018 392 q 879 144 946 214 q 723 33 813 74 q 526 -8 633 -8 m 269 492 q 286 381 269 435 q 335 286 303 328 q 417 219 368 244 q 528 194 465 194 q 642 220 593 194 q 722 289 690 246 q 770 385 754 332 q 786 494 786 439 q 769 604 786 551 q 719 699 753 657 q 638 765 686 742 q 528 789 589 789 q 415 764 463 789 q 334 697 367 739 q 285 601 301 654 q 269 492 269 547 m 624 1074 q 551 1090 582 1074 q 496 1122 521 1106 q 439 1138 471 1138 q 394 1122 408 1138 q 377 1090 381 1107 q 374 1071 374 1074 l 254 1071 q 263 1119 254 1086 q 294 1185 272 1151 q 349 1244 315 1219 q 431 1268 382 1268 q 503 1251 475 1268 q 558 1218 532 1235 q 615 1201 583 1201 q 663 1217 649 1201 q 683 1251 678 1233 q 688 1271 688 1269 l 807 1271 q 797 1228 807 1260 q 766 1162 788 1197 q 710 1100 744 1126 q 624 1074 675 1074 m 321 1404 l 321 1539 l 743 1539 l 743 1404 l 321 1404 z "},"Œ":{"ha":1472,"x_min":38,"x_max":1428,"o":"m 1428 200 l 1428 0 l 757 0 l 757 104 q 687 47 726 72 q 602 7 647 21 q 507 -7 557 -7 q 315 35 401 -7 q 167 148 229 76 q 71 309 104 219 q 38 494 38 399 q 73 683 38 593 q 172 842 108 772 q 322 952 236 911 q 511 993 408 993 q 606 979 561 993 q 688 940 650 965 q 757 883 726 915 l 757 986 l 1415 986 l 1415 786 l 985 786 l 985 601 l 1340 601 l 1340 403 l 985 403 l 985 200 l 1428 200 m 508 196 q 613 222 568 196 q 688 290 658 247 q 732 385 717 332 q 747 494 747 439 q 731 605 747 551 q 685 700 715 658 q 610 766 654 742 q 507 790 565 790 q 404 765 449 790 q 330 697 360 739 q 285 601 300 654 q 269 492 269 547 q 285 382 269 435 q 331 287 300 329 q 406 220 361 244 q 508 196 451 196 z "},"P":{"ha":865,"x_min":94,"x_max":838,"o":"m 94 0 l 94 986 l 515 986 q 645 958 586 986 q 747 881 704 929 q 814 774 790 833 q 838 651 838 714 q 798 490 838 567 q 688 366 758 414 q 522 318 618 318 l 322 318 l 322 0 l 94 0 m 322 517 l 508 517 q 557 532 535 517 q 593 578 579 547 q 607 653 607 608 q 591 728 607 699 q 551 772 575 758 q 500 786 526 786 l 322 786 l 322 517 z "},"Þ":{"ha":840,"x_min":94,"x_max":815,"o":"m 493 814 q 623 785 564 814 q 725 710 682 757 q 792 603 768 663 q 815 482 815 543 q 776 319 815 396 q 666 195 736 243 q 501 147 596 147 l 322 147 l 322 0 l 94 0 l 94 986 l 322 986 l 322 814 l 493 814 m 489 347 q 540 365 518 347 q 574 413 561 382 q 588 482 588 443 q 572 552 588 522 q 533 599 557 582 q 482 615 508 615 l 322 615 l 322 347 l 489 347 z "},"Q":{"ha":1054,"x_min":38,"x_max":1032,"o":"m 526 -7 q 326 35 415 -7 q 172 148 236 76 q 72 309 107 219 q 38 494 38 399 q 74 683 38 593 q 177 842 111 772 q 333 952 243 911 q 531 993 424 993 q 730 950 640 993 q 884 835 819 907 q 983 673 949 763 q 1018 490 1018 583 q 982 303 1018 392 q 879 144 946 214 q 723 33 813 74 q 526 -7 633 -7 m 528 196 q 642 222 593 196 q 722 290 690 247 q 770 385 754 332 q 786 494 786 439 q 769 605 786 551 q 719 700 753 658 q 638 766 686 742 q 528 790 589 790 q 415 765 463 790 q 334 697 367 739 q 285 601 301 654 q 269 492 269 547 q 286 382 269 435 q 335 287 303 329 q 417 220 368 244 q 528 196 465 196 m 467 389 l 681 389 l 1032 0 l 818 0 l 467 389 z "},"R":{"ha":931,"x_min":94,"x_max":917,"o":"m 94 0 l 94 986 l 539 986 q 667 958 608 986 q 769 881 726 929 q 837 774 813 833 q 861 653 861 714 q 842 537 861 592 q 786 438 822 482 q 700 367 750 394 l 917 0 l 665 0 l 476 318 l 322 318 l 322 0 l 94 0 m 322 517 l 531 517 q 580 534 558 517 q 615 582 601 551 q 629 653 629 613 q 613 723 629 693 q 574 769 597 753 q 524 786 550 786 l 322 786 l 322 517 z "},"Ŕ":{"ha":931,"x_min":94,"x_max":917,"o":"m 94 0 l 94 986 l 539 986 q 667 958 608 986 q 769 881 726 929 q 837 774 813 833 q 861 653 861 714 q 842 537 861 592 q 786 438 822 482 q 700 367 750 394 l 917 0 l 665 0 l 476 318 l 322 318 l 322 0 l 94 0 m 322 517 l 531 517 q 580 534 558 517 q 615 582 601 551 q 629 653 629 613 q 613 723 629 693 q 574 769 597 753 q 524 786 550 786 l 322 786 l 322 517 m 511 1050 l 369 1089 l 442 1269 l 643 1269 l 511 1050 z "},"Ř":{"ha":931,"x_min":94,"x_max":917,"o":"m 94 0 l 94 986 l 539 986 q 667 958 608 986 q 769 881 726 929 q 837 774 813 833 q 861 653 861 714 q 842 537 861 592 q 786 438 822 482 q 700 367 750 394 l 917 0 l 665 0 l 476 318 l 322 318 l 322 0 l 94 0 m 322 517 l 531 517 q 580 534 558 517 q 615 582 601 551 q 629 653 629 613 q 613 723 629 693 q 574 769 597 753 q 524 786 550 786 l 322 786 l 322 517 m 321 1269 l 439 1182 l 557 1269 l 671 1218 l 519 1069 l 360 1069 l 207 1218 l 321 1269 z "},"Ŗ":{"ha":931,"x_min":94,"x_max":917,"o":"m 94 0 l 94 986 l 539 986 q 667 958 608 986 q 769 881 726 929 q 837 774 813 833 q 861 653 861 714 q 842 537 861 592 q 786 438 822 482 q 700 367 750 394 l 917 0 l 665 0 l 476 318 l 322 318 l 322 0 l 94 0 m 322 517 l 531 517 q 580 534 558 517 q 615 582 601 551 q 629 653 629 613 q 613 723 629 693 q 574 769 597 753 q 524 786 550 786 l 322 786 l 322 517 m 408 -296 l 451 -203 l 385 -203 l 385 -65 l 571 -65 l 571 -203 l 506 -296 l 408 -296 z "},"Ȑ":{"ha":931,"x_min":94,"x_max":917,"o":"m 94 0 l 94 986 l 539 986 q 667 958 608 986 q 769 881 726 929 q 837 774 813 833 q 861 653 861 714 q 842 537 861 592 q 786 438 822 482 q 700 367 750 394 l 917 0 l 665 0 l 476 318 l 322 318 l 322 0 l 94 0 m 322 517 l 531 517 q 580 534 558 517 q 615 582 601 551 q 629 653 629 613 q 613 723 629 693 q 574 769 597 753 q 524 786 550 786 l 322 786 l 322 517 m 401 1271 l 569 1271 l 631 1090 l 524 1051 l 401 1271 m 160 1271 l 326 1271 l 389 1090 l 281 1051 l 160 1271 z "},"Ṛ":{"ha":931,"x_min":94,"x_max":917,"o":"m 94 0 l 94 986 l 539 986 q 667 958 608 986 q 769 881 726 929 q 837 774 813 833 q 861 653 861 714 q 842 537 861 592 q 786 438 822 482 q 700 367 750 394 l 917 0 l 665 0 l 476 318 l 322 318 l 322 0 l 94 0 m 322 517 l 531 517 q 580 534 558 517 q 615 582 601 551 q 629 653 629 613 q 613 723 629 693 q 574 769 597 753 q 524 786 550 786 l 322 786 l 322 517 m 383 -286 l 383 -96 l 583 -96 l 583 -286 l 383 -286 z "},"Ȓ":{"ha":931,"x_min":94,"x_max":917,"o":"m 94 0 l 94 986 l 539 986 q 667 958 608 986 q 769 881 726 929 q 837 774 813 833 q 861 653 861 714 q 842 537 861 592 q 786 438 822 482 q 700 367 750 394 l 917 0 l 665 0 l 476 318 l 322 318 l 322 0 l 94 0 m 322 517 l 531 517 q 580 534 558 517 q 615 582 601 551 q 629 653 629 613 q 613 723 629 693 q 574 769 597 753 q 524 786 550 786 l 322 786 l 322 517 m 438 1172 q 380 1140 404 1172 q 356 1065 356 1108 l 238 1065 q 294 1212 238 1154 q 438 1269 350 1269 q 582 1212 526 1269 q 638 1065 638 1154 l 522 1065 q 494 1142 518 1111 q 438 1172 469 1172 z "},"Ṟ":{"ha":931,"x_min":94,"x_max":917,"o":"m 94 0 l 94 986 l 539 986 q 667 958 608 986 q 769 881 726 929 q 837 774 813 833 q 861 653 861 714 q 842 537 861 592 q 786 438 822 482 q 700 367 750 394 l 917 0 l 665 0 l 476 318 l 322 318 l 322 0 l 94 0 m 322 517 l 531 517 q 580 534 558 517 q 615 582 601 551 q 629 653 629 613 q 613 723 629 693 q 574 769 597 753 q 524 786 550 786 l 322 786 l 322 517 m 272 -242 l 272 -107 l 694 -107 l 694 -242 l 272 -242 z "},"S":{"ha":854,"x_min":25,"x_max":815,"o":"m 686 697 q 657 719 682 704 q 594 750 632 733 q 513 779 557 767 q 424 792 468 792 q 333 772 365 792 q 301 710 301 751 q 326 657 301 676 q 396 623 350 638 q 508 589 442 608 q 672 528 603 564 q 778 438 742 493 q 815 290 815 382 q 785 149 815 207 q 702 56 754 92 q 583 5 650 21 q 446 -11 517 -11 q 298 3 374 -11 q 153 45 222 18 q 25 111 83 72 l 125 310 q 161 284 131 303 q 237 245 192 265 q 338 210 282 225 q 450 194 393 194 q 541 214 511 194 q 571 268 571 233 q 540 326 571 306 q 455 364 508 347 q 332 401 401 381 q 183 464 242 429 q 95 549 124 499 q 67 674 67 599 q 116 849 67 778 q 249 958 165 921 q 431 994 332 994 q 565 978 500 994 q 685 936 629 961 q 786 886 742 911 l 686 697 z "},"Ś":{"ha":854,"x_min":25,"x_max":815,"o":"m 686 697 q 657 719 682 704 q 594 750 632 733 q 513 779 557 767 q 424 792 468 792 q 333 772 365 792 q 301 710 301 751 q 326 657 301 676 q 396 623 350 638 q 508 589 442 608 q 672 528 603 564 q 778 438 742 493 q 815 290 815 382 q 785 149 815 207 q 702 56 754 92 q 583 5 650 21 q 446 -11 517 -11 q 298 3 374 -11 q 153 45 222 18 q 25 111 83 72 l 125 310 q 161 284 131 303 q 237 245 192 265 q 338 210 282 225 q 450 194 393 194 q 541 214 511 194 q 571 268 571 233 q 540 326 571 306 q 455 364 508 347 q 332 401 401 381 q 183 464 242 429 q 95 549 124 499 q 67 674 67 599 q 116 849 67 778 q 249 958 165 921 q 431 994 332 994 q 565 978 500 994 q 685 936 629 961 q 786 886 742 911 l 686 697 m 508 1056 l 367 1094 l 439 1275 l 640 1275 l 508 1056 z "},"Ṥ":{"ha":854,"x_min":25,"x_max":815,"o":"m 686 697 q 657 719 682 704 q 594 750 632 733 q 513 779 557 767 q 424 792 468 792 q 333 772 365 792 q 301 710 301 751 q 326 657 301 676 q 396 623 350 638 q 508 589 442 608 q 672 528 603 564 q 778 438 742 493 q 815 290 815 382 q 785 149 815 207 q 702 56 754 92 q 583 5 650 21 q 446 -11 517 -11 q 298 3 374 -11 q 153 45 222 18 q 25 111 83 72 l 125 310 q 161 284 131 303 q 237 245 192 265 q 338 210 282 225 q 450 194 393 194 q 541 214 511 194 q 571 268 571 233 q 540 326 571 306 q 455 364 508 347 q 332 401 401 381 q 183 464 242 429 q 95 549 124 499 q 67 674 67 599 q 116 849 67 778 q 249 958 165 921 q 431 994 332 994 q 565 978 500 994 q 685 936 629 961 q 786 886 742 911 l 686 697 m 508 1056 l 367 1094 l 439 1275 l 640 1275 l 508 1056 m 404 1371 l 404 1561 l 604 1561 l 604 1371 l 404 1371 z "},"Š":{"ha":854,"x_min":25,"x_max":815,"o":"m 686 697 q 657 719 682 704 q 594 750 632 733 q 513 779 557 767 q 424 792 468 792 q 333 772 365 792 q 301 710 301 751 q 326 657 301 676 q 396 623 350 638 q 508 589 442 608 q 672 528 603 564 q 778 438 742 493 q 815 290 815 382 q 785 149 815 207 q 702 56 754 92 q 583 5 650 21 q 446 -11 517 -11 q 298 3 374 -11 q 153 45 222 18 q 25 111 83 72 l 125 310 q 161 284 131 303 q 237 245 192 265 q 338 210 282 225 q 450 194 393 194 q 541 214 511 194 q 571 268 571 233 q 540 326 571 306 q 455 364 508 347 q 332 401 401 381 q 183 464 242 429 q 95 549 124 499 q 67 674 67 599 q 116 849 67 778 q 249 958 165 921 q 431 994 332 994 q 565 978 500 994 q 685 936 629 961 q 786 886 742 911 l 686 697 m 318 1275 l 436 1188 l 554 1275 l 668 1224 l 517 1075 l 357 1075 l 204 1224 l 318 1275 z "},"Ṧ":{"ha":854,"x_min":25,"x_max":815,"o":"m 686 697 q 657 719 682 704 q 594 750 632 733 q 513 779 557 767 q 424 792 468 792 q 333 772 365 792 q 301 710 301 751 q 326 657 301 676 q 396 623 350 638 q 508 589 442 608 q 672 528 603 564 q 778 438 742 493 q 815 290 815 382 q 785 149 815 207 q 702 56 754 92 q 583 5 650 21 q 446 -11 517 -11 q 298 3 374 -11 q 153 45 222 18 q 25 111 83 72 l 125 310 q 161 284 131 303 q 237 245 192 265 q 338 210 282 225 q 450 194 393 194 q 541 214 511 194 q 571 268 571 233 q 540 326 571 306 q 455 364 508 347 q 332 401 401 381 q 183 464 242 429 q 95 549 124 499 q 67 674 67 599 q 116 849 67 778 q 249 958 165 921 q 431 994 332 994 q 565 978 500 994 q 685 936 629 961 q 786 886 742 911 l 686 697 m 318 1275 l 436 1188 l 554 1275 l 668 1224 l 517 1075 l 357 1075 l 204 1224 l 318 1275 m 336 1371 l 336 1561 l 536 1561 l 536 1371 l 336 1371 z "},"Ş":{"ha":854,"x_min":25,"x_max":815,"o":"m 686 697 q 657 719 682 704 q 594 750 632 733 q 513 779 557 767 q 424 792 468 792 q 333 772 365 792 q 301 710 301 751 q 326 657 301 676 q 396 623 350 638 q 508 589 442 608 q 672 528 603 564 q 778 438 742 493 q 815 290 815 382 q 785 149 815 207 q 702 56 754 92 q 583 5 650 21 q 446 -11 517 -11 q 298 3 374 -11 q 153 45 222 18 q 25 111 83 72 l 125 310 q 161 284 131 303 q 237 245 192 265 q 338 210 282 225 q 450 194 393 194 q 541 214 511 194 q 571 268 571 233 q 540 326 571 306 q 455 364 508 347 q 332 401 401 381 q 183 464 242 429 q 95 549 124 499 q 67 674 67 599 q 116 849 67 778 q 249 958 165 921 q 431 994 332 994 q 565 978 500 994 q 685 936 629 961 q 786 886 742 911 l 686 697 m 428 -292 q 345 -281 389 -292 q 258 -247 301 -269 l 311 -132 q 350 -153 331 -146 q 390 -160 369 -160 q 438 -144 419 -160 q 457 -101 457 -129 q 440 -49 457 -74 q 389 0 422 -25 l 461 44 q 552 -37 515 7 q 589 -144 589 -82 q 549 -248 589 -204 q 428 -292 508 -292 z "},"Ŝ":{"ha":854,"x_min":25,"x_max":815,"o":"m 686 697 q 657 719 682 704 q 594 750 632 733 q 513 779 557 767 q 424 792 468 792 q 333 772 365 792 q 301 710 301 751 q 326 657 301 676 q 396 623 350 638 q 508 589 442 608 q 672 528 603 564 q 778 438 742 493 q 815 290 815 382 q 785 149 815 207 q 702 56 754 92 q 583 5 650 21 q 446 -11 517 -11 q 298 3 374 -11 q 153 45 222 18 q 25 111 83 72 l 125 310 q 161 284 131 303 q 237 245 192 265 q 338 210 282 225 q 450 194 393 194 q 541 214 511 194 q 571 268 571 233 q 540 326 571 306 q 455 364 508 347 q 332 401 401 381 q 183 464 242 429 q 95 549 124 499 q 67 674 67 599 q 116 849 67 778 q 249 958 165 921 q 431 994 332 994 q 565 978 500 994 q 685 936 629 961 q 786 886 742 911 l 686 697 m 204 1125 l 357 1275 l 517 1275 l 668 1125 l 554 1075 l 436 1163 l 318 1075 l 204 1125 z "},"Ș":{"ha":854,"x_min":25,"x_max":815,"o":"m 686 697 q 657 719 682 704 q 594 750 632 733 q 513 779 557 767 q 424 792 468 792 q 333 772 365 792 q 301 710 301 751 q 326 657 301 676 q 396 623 350 638 q 508 589 442 608 q 672 528 603 564 q 778 438 742 493 q 815 290 815 382 q 785 149 815 207 q 702 56 754 92 q 583 5 650 21 q 446 -11 517 -11 q 298 3 374 -11 q 153 45 222 18 q 25 111 83 72 l 125 310 q 161 284 131 303 q 237 245 192 265 q 338 210 282 225 q 450 194 393 194 q 541 214 511 194 q 571 268 571 233 q 540 326 571 306 q 455 364 508 347 q 332 401 401 381 q 183 464 242 429 q 95 549 124 499 q 67 674 67 599 q 116 849 67 778 q 249 958 165 921 q 431 994 332 994 q 565 978 500 994 q 685 936 629 961 q 786 886 742 911 l 686 697 m 372 -296 l 415 -203 l 349 -203 l 349 -65 l 535 -65 l 535 -203 l 469 -296 l 372 -296 z "},"Ṡ":{"ha":854,"x_min":25,"x_max":815,"o":"m 686 697 q 657 719 682 704 q 594 750 632 733 q 513 779 557 767 q 424 792 468 792 q 333 772 365 792 q 301 710 301 751 q 326 657 301 676 q 396 623 350 638 q 508 589 442 608 q 672 528 603 564 q 778 438 742 493 q 815 290 815 382 q 785 149 815 207 q 702 56 754 92 q 583 5 650 21 q 446 -11 517 -11 q 298 3 374 -11 q 153 45 222 18 q 25 111 83 72 l 125 310 q 161 284 131 303 q 237 245 192 265 q 338 210 282 225 q 450 194 393 194 q 541 214 511 194 q 571 268 571 233 q 540 326 571 306 q 455 364 508 347 q 332 401 401 381 q 183 464 242 429 q 95 549 124 499 q 67 674 67 599 q 116 849 67 778 q 249 958 165 921 q 431 994 332 994 q 565 978 500 994 q 685 936 629 961 q 786 886 742 911 l 686 697 m 336 1085 l 336 1275 l 536 1275 l 536 1085 l 336 1085 z "},"Ṣ":{"ha":854,"x_min":25,"x_max":815,"o":"m 686 697 q 657 719 682 704 q 594 750 632 733 q 513 779 557 767 q 424 792 468 792 q 333 772 365 792 q 301 710 301 751 q 326 657 301 676 q 396 623 350 638 q 508 589 442 608 q 672 528 603 564 q 778 438 742 493 q 815 290 815 382 q 785 149 815 207 q 702 56 754 92 q 583 5 650 21 q 446 -11 517 -11 q 298 3 374 -11 q 153 45 222 18 q 25 111 83 72 l 125 310 q 161 284 131 303 q 237 245 192 265 q 338 210 282 225 q 450 194 393 194 q 541 214 511 194 q 571 268 571 233 q 540 326 571 306 q 455 364 508 347 q 332 401 401 381 q 183 464 242 429 q 95 549 124 499 q 67 674 67 599 q 116 849 67 778 q 249 958 165 921 q 431 994 332 994 q 565 978 500 994 q 685 936 629 961 q 786 886 742 911 l 686 697 m 347 -286 l 347 -96 l 547 -96 l 547 -286 l 347 -286 z "},"Ṩ":{"ha":854,"x_min":25,"x_max":815,"o":"m 686 697 q 657 719 682 704 q 594 750 632 733 q 513 779 557 767 q 424 792 468 792 q 333 772 365 792 q 301 710 301 751 q 326 657 301 676 q 396 623 350 638 q 508 589 442 608 q 672 528 603 564 q 778 438 742 493 q 815 290 815 382 q 785 149 815 207 q 702 56 754 92 q 583 5 650 21 q 446 -11 517 -11 q 298 3 374 -11 q 153 45 222 18 q 25 111 83 72 l 125 310 q 161 284 131 303 q 237 245 192 265 q 338 210 282 225 q 450 194 393 194 q 541 214 511 194 q 571 268 571 233 q 540 326 571 306 q 455 364 508 347 q 332 401 401 381 q 183 464 242 429 q 95 549 124 499 q 67 674 67 599 q 116 849 67 778 q 249 958 165 921 q 431 994 332 994 q 565 978 500 994 q 685 936 629 961 q 786 886 742 911 l 686 697 m 347 -286 l 347 -96 l 547 -96 l 547 -286 l 347 -286 m 336 1085 l 336 1275 l 536 1275 l 536 1085 l 336 1085 z "},"ẞ":{"ha":972,"x_min":76,"x_max":935,"o":"m 654 -14 q 474 17 563 -14 q 324 107 386 47 l 401 247 q 520 174 463 199 q 632 149 578 149 q 696 163 672 149 q 719 207 719 178 q 708 238 719 225 q 674 260 697 250 q 613 281 651 269 q 474 335 529 308 q 390 399 418 361 q 363 501 363 438 q 389 610 363 564 q 463 688 415 656 q 577 738 510 719 q 726 764 644 757 l 665 667 q 632 754 656 722 q 573 800 608 786 q 490 814 538 814 q 373 787 418 814 q 308 710 328 760 q 288 594 288 661 l 288 0 l 76 0 l 76 635 q 108 792 76 725 q 197 903 140 860 q 328 969 254 947 q 483 992 401 992 q 666 959 585 992 q 801 863 747 926 q 869 701 854 799 l 881 639 q 766 619 821 629 q 666 597 711 610 q 595 566 621 583 q 569 521 569 549 q 584 488 569 501 q 624 465 599 475 q 683 443 650 454 q 825 392 769 415 q 908 331 881 368 q 935 228 935 294 q 860 49 935 113 q 654 -14 786 -14 z "},"Ə":{"ha":1044,"x_min":22,"x_max":1006,"o":"m 517 -7 q 309 35 400 -7 q 154 149 218 78 q 56 304 90 219 q 22 474 22 389 q 25 522 22 497 q 31 563 28 546 l 757 563 q 730 660 751 618 q 676 732 708 703 q 602 776 643 761 q 517 790 561 790 q 426 774 469 790 q 352 728 383 758 q 308 658 321 699 l 74 731 q 176 868 111 810 q 327 959 240 926 q 518 992 414 992 q 721 949 631 992 q 875 836 811 907 q 972 678 939 765 q 1006 503 1006 592 q 973 315 1006 407 q 876 151 940 224 q 722 36 813 79 q 517 -7 632 -7 m 519 193 q 633 217 583 193 q 714 287 682 242 q 753 392 746 332 l 274 392 q 315 287 282 332 q 401 217 349 242 q 519 193 454 193 z "},"T":{"ha":863,"x_min":17,"x_max":846,"o":"m 846 786 l 546 786 l 546 0 l 318 0 l 318 786 l 17 786 l 17 986 l 846 986 l 846 786 z "},"Ŧ":{"ha":896,"x_min":33,"x_max":863,"o":"m 100 389 l 100 503 l 796 503 l 796 389 l 100 389 m 863 786 l 563 786 l 563 0 l 335 0 l 335 786 l 33 786 l 33 986 l 863 986 l 863 786 z "},"Ť":{"ha":863,"x_min":17,"x_max":846,"o":"m 846 786 l 546 786 l 546 0 l 318 0 l 318 786 l 17 786 l 17 986 l 846 986 l 846 786 m 322 1271 l 440 1183 l 558 1271 l 672 1219 l 521 1071 l 361 1071 l 208 1219 l 322 1271 z "},"Ţ":{"ha":863,"x_min":17,"x_max":846,"o":"m 846 786 l 546 786 l 546 0 l 318 0 l 318 786 l 17 786 l 17 986 l 846 986 l 846 786 m 413 -292 q 330 -281 374 -292 q 243 -247 286 -269 l 296 -132 q 335 -153 315 -146 q 375 -160 354 -160 q 423 -144 404 -160 q 442 -101 442 -129 q 424 -49 442 -74 q 374 0 407 -25 l 446 44 q 537 -37 500 7 q 574 -144 574 -82 q 533 -248 574 -204 q 413 -292 493 -292 z "},"Ț":{"ha":863,"x_min":17,"x_max":846,"o":"m 846 786 l 546 786 l 546 0 l 318 0 l 318 786 l 17 786 l 17 986 l 846 986 l 846 786 m 357 -296 l 400 -203 l 333 -203 l 333 -65 l 519 -65 l 519 -203 l 454 -296 l 357 -296 z "},"Ṭ":{"ha":863,"x_min":17,"x_max":846,"o":"m 846 786 l 546 786 l 546 0 l 318 0 l 318 786 l 17 786 l 17 986 l 846 986 l 846 786 m 332 -286 l 332 -96 l 532 -96 l 532 -286 l 332 -286 z "},"Ṯ":{"ha":863,"x_min":17,"x_max":846,"o":"m 846 786 l 546 786 l 546 0 l 318 0 l 318 786 l 17 786 l 17 986 l 846 986 l 846 786 m 221 -242 l 221 -107 l 643 -107 l 643 -242 l 221 -242 z "},"U":{"ha":1038,"x_min":81,"x_max":956,"o":"m 518 -8 q 317 31 400 -8 q 181 140 233 71 q 105 297 129 208 q 81 482 81 385 l 81 986 l 308 986 l 308 482 q 319 374 308 426 q 356 282 331 322 q 420 218 381 242 q 518 194 460 194 q 618 219 578 194 q 682 284 658 243 q 717 376 706 325 q 728 482 728 428 l 728 986 l 956 986 l 956 482 q 930 290 956 379 q 851 134 904 201 q 716 29 799 67 q 518 -8 633 -8 z "},"Ú":{"ha":1038,"x_min":81,"x_max":956,"o":"m 518 -8 q 317 31 400 -8 q 181 140 233 71 q 105 297 129 208 q 81 482 81 385 l 81 986 l 308 986 l 308 482 q 319 374 308 426 q 356 282 331 322 q 420 218 381 242 q 518 194 460 194 q 618 219 578 194 q 682 284 658 243 q 717 376 706 325 q 728 482 728 428 l 728 986 l 956 986 l 956 482 q 930 290 956 379 q 851 134 904 201 q 716 29 799 67 q 518 -8 633 -8 m 590 1051 l 449 1090 l 521 1271 l 722 1271 l 590 1051 z "},"Ŭ":{"ha":1038,"x_min":81,"x_max":956,"o":"m 518 -8 q 317 31 400 -8 q 181 140 233 71 q 105 297 129 208 q 81 482 81 385 l 81 986 l 308 986 l 308 482 q 319 374 308 426 q 356 282 331 322 q 420 218 381 242 q 518 194 460 194 q 618 219 578 194 q 682 284 658 243 q 717 376 706 325 q 728 482 728 428 l 728 986 l 956 986 l 956 482 q 930 290 956 379 q 851 134 904 201 q 716 29 799 67 q 518 -8 633 -8 m 518 1164 q 574 1194 550 1164 q 603 1271 599 1225 l 718 1271 q 663 1124 718 1182 q 518 1067 607 1067 q 374 1124 431 1067 q 318 1271 318 1182 l 436 1271 q 460 1196 436 1228 q 518 1164 485 1164 z "},"Û":{"ha":1038,"x_min":81,"x_max":956,"o":"m 518 -8 q 317 31 400 -8 q 181 140 233 71 q 105 297 129 208 q 81 482 81 385 l 81 986 l 308 986 l 308 482 q 319 374 308 426 q 356 282 331 322 q 420 218 381 242 q 518 194 460 194 q 618 219 578 194 q 682 284 658 243 q 717 376 706 325 q 728 482 728 428 l 728 986 l 956 986 l 956 482 q 930 290 956 379 q 851 134 904 201 q 716 29 799 67 q 518 -8 633 -8 m 286 1121 l 439 1271 l 599 1271 l 750 1121 l 636 1071 l 518 1158 l 400 1071 l 286 1121 z "},"Ȕ":{"ha":1038,"x_min":81,"x_max":956,"o":"m 518 -8 q 317 31 400 -8 q 181 140 233 71 q 105 297 129 208 q 81 482 81 385 l 81 986 l 308 986 l 308 482 q 319 374 308 426 q 356 282 331 322 q 420 218 381 242 q 518 194 460 194 q 618 219 578 194 q 682 284 658 243 q 717 376 706 325 q 728 482 728 428 l 728 986 l 956 986 l 956 482 q 930 290 956 379 q 851 134 904 201 q 716 29 799 67 q 518 -8 633 -8 m 481 1272 l 649 1272 l 710 1092 l 603 1053 l 481 1272 m 239 1272 l 406 1272 l 468 1092 l 360 1053 l 239 1272 z "},"Ü":{"ha":1038,"x_min":81,"x_max":956,"o":"m 518 -8 q 317 31 400 -8 q 181 140 233 71 q 105 297 129 208 q 81 482 81 385 l 81 986 l 308 986 l 308 482 q 319 374 308 426 q 356 282 331 322 q 420 218 381 242 q 518 194 460 194 q 618 219 578 194 q 682 284 658 243 q 717 376 706 325 q 728 482 728 428 l 728 986 l 956 986 l 956 482 q 930 290 956 379 q 851 134 904 201 q 716 29 799 67 q 518 -8 633 -8 m 281 1082 l 281 1261 l 464 1261 l 464 1082 l 281 1082 m 572 1082 l 572 1261 l 756 1261 l 756 1082 l 572 1082 z "},"Ụ":{"ha":1038,"x_min":81,"x_max":956,"o":"m 518 -8 q 317 31 400 -8 q 181 140 233 71 q 105 297 129 208 q 81 482 81 385 l 81 986 l 308 986 l 308 482 q 319 374 308 426 q 356 282 331 322 q 420 218 381 242 q 518 194 460 194 q 618 219 578 194 q 682 284 658 243 q 717 376 706 325 q 728 482 728 428 l 728 986 l 956 986 l 956 482 q 930 290 956 379 q 851 134 904 201 q 716 29 799 67 q 518 -8 633 -8 m 418 -286 l 418 -96 l 618 -96 l 618 -286 l 418 -286 z "},"Ù":{"ha":1038,"x_min":81,"x_max":956,"o":"m 518 -8 q 317 31 400 -8 q 181 140 233 71 q 105 297 129 208 q 81 482 81 385 l 81 986 l 308 986 l 308 482 q 319 374 308 426 q 356 282 331 322 q 420 218 381 242 q 518 194 460 194 q 618 219 578 194 q 682 284 658 243 q 717 376 706 325 q 728 482 728 428 l 728 986 l 956 986 l 956 482 q 930 290 956 379 q 851 134 904 201 q 716 29 799 67 q 518 -8 633 -8 m 329 1271 l 531 1271 l 603 1090 l 463 1051 l 329 1271 z "},"Ủ":{"ha":1038,"x_min":81,"x_max":956,"o":"m 518 -8 q 317 31 400 -8 q 181 140 233 71 q 105 297 129 208 q 81 482 81 385 l 81 986 l 308 986 l 308 482 q 319 374 308 426 q 356 282 331 322 q 420 218 381 242 q 518 194 460 194 q 618 219 578 194 q 682 284 658 243 q 717 376 706 325 q 728 482 728 428 l 728 986 l 956 986 l 956 482 q 930 290 956 379 q 851 134 904 201 q 716 29 799 67 q 518 -8 633 -8 m 444 1204 l 381 1267 q 456 1322 419 1304 q 531 1339 492 1339 q 622 1308 589 1339 q 656 1229 656 1278 q 633 1148 656 1182 q 560 1074 610 1114 l 506 1131 q 541 1165 529 1149 q 553 1199 553 1182 q 542 1228 553 1217 q 513 1239 531 1239 q 479 1231 493 1239 q 444 1204 465 1222 z "},"Ư":{"ha":1038,"x_min":81,"x_max":1122,"o":"m 518 -8 q 317 31 400 -8 q 181 140 233 71 q 105 297 129 208 q 81 482 81 385 l 81 986 l 308 986 l 308 482 q 319 374 308 426 q 356 282 331 322 q 420 218 381 242 q 518 194 460 194 q 618 219 578 194 q 682 284 658 243 q 717 376 706 325 q 728 482 728 428 l 728 986 l 956 986 l 956 482 q 930 290 956 379 q 851 134 904 201 q 716 29 799 67 q 518 -8 633 -8 m 810 835 l 813 986 q 893 993 861 986 q 942 1018 925 1000 q 962 1062 960 1038 q 965 1113 964 1086 l 1122 1113 q 1117 1044 1121 1079 q 1101 974 1114 1008 q 1057 908 1088 939 q 995 869 1035 886 q 908 844 956 853 q 810 835 860 835 z "},"Ứ":{"ha":1038,"x_min":81,"x_max":1122,"o":"m 518 -8 q 317 31 400 -8 q 181 140 233 71 q 105 297 129 208 q 81 482 81 385 l 81 986 l 308 986 l 308 482 q 319 374 308 426 q 356 282 331 322 q 420 218 381 242 q 518 194 460 194 q 618 219 578 194 q 682 284 658 243 q 717 376 706 325 q 728 482 728 428 l 728 986 l 956 986 l 956 482 q 930 290 956 379 q 851 134 904 201 q 716 29 799 67 q 518 -8 633 -8 m 810 835 l 813 986 q 893 993 861 986 q 942 1018 925 1000 q 962 1062 960 1038 q 965 1113 964 1086 l 1122 1113 q 1117 1044 1121 1079 q 1101 974 1114 1008 q 1057 908 1088 939 q 995 869 1035 886 q 908 844 956 853 q 810 835 860 835 m 590 1051 l 449 1090 l 521 1271 l 722 1271 l 590 1051 z "},"Ự":{"ha":1038,"x_min":81,"x_max":1122,"o":"m 518 -8 q 317 31 400 -8 q 181 140 233 71 q 105 297 129 208 q 81 482 81 385 l 81 986 l 308 986 l 308 482 q 319 374 308 426 q 356 282 331 322 q 420 218 381 242 q 518 194 460 194 q 618 219 578 194 q 682 284 658 243 q 717 376 706 325 q 728 482 728 428 l 728 986 l 956 986 l 956 482 q 930 290 956 379 q 851 134 904 201 q 716 29 799 67 q 518 -8 633 -8 m 810 835 l 813 986 q 893 993 861 986 q 942 1018 925 1000 q 962 1062 960 1038 q 965 1113 964 1086 l 1122 1113 q 1117 1044 1121 1079 q 1101 974 1114 1008 q 1057 908 1088 939 q 995 869 1035 886 q 908 844 956 853 q 810 835 860 835 m 418 -286 l 418 -96 l 618 -96 l 618 -286 l 418 -286 z "},"Ừ":{"ha":1038,"x_min":81,"x_max":1122,"o":"m 518 -8 q 317 31 400 -8 q 181 140 233 71 q 105 297 129 208 q 81 482 81 385 l 81 986 l 308 986 l 308 482 q 319 374 308 426 q 356 282 331 322 q 420 218 381 242 q 518 194 460 194 q 618 219 578 194 q 682 284 658 243 q 717 376 706 325 q 728 482 728 428 l 728 986 l 956 986 l 956 482 q 930 290 956 379 q 851 134 904 201 q 716 29 799 67 q 518 -8 633 -8 m 810 835 l 813 986 q 893 993 861 986 q 942 1018 925 1000 q 962 1062 960 1038 q 965 1113 964 1086 l 1122 1113 q 1117 1044 1121 1079 q 1101 974 1114 1008 q 1057 908 1088 939 q 995 869 1035 886 q 908 844 956 853 q 810 835 860 835 m 329 1271 l 531 1271 l 603 1090 l 463 1051 l 329 1271 z "},"Ử":{"ha":1038,"x_min":81,"x_max":1122,"o":"m 518 -8 q 317 31 400 -8 q 181 140 233 71 q 105 297 129 208 q 81 482 81 385 l 81 986 l 308 986 l 308 482 q 319 374 308 426 q 356 282 331 322 q 420 218 381 242 q 518 194 460 194 q 618 219 578 194 q 682 284 658 243 q 717 376 706 325 q 728 482 728 428 l 728 986 l 956 986 l 956 482 q 930 290 956 379 q 851 134 904 201 q 716 29 799 67 q 518 -8 633 -8 m 810 835 l 813 986 q 893 993 861 986 q 942 1018 925 1000 q 962 1062 960 1038 q 965 1113 964 1086 l 1122 1113 q 1117 1044 1121 1079 q 1101 974 1114 1008 q 1057 908 1088 939 q 995 869 1035 886 q 908 844 956 853 q 810 835 860 835 m 444 1204 l 381 1267 q 456 1322 419 1304 q 531 1339 492 1339 q 622 1308 589 1339 q 656 1229 656 1278 q 633 1148 656 1182 q 560 1074 610 1114 l 506 1131 q 541 1165 529 1149 q 553 1199 553 1182 q 542 1228 553 1217 q 513 1239 531 1239 q 479 1231 493 1239 q 444 1204 465 1222 z "},"Ữ":{"ha":1038,"x_min":81,"x_max":1122,"o":"m 518 -8 q 317 31 400 -8 q 181 140 233 71 q 105 297 129 208 q 81 482 81 385 l 81 986 l 308 986 l 308 482 q 319 374 308 426 q 356 282 331 322 q 420 218 381 242 q 518 194 460 194 q 618 219 578 194 q 682 284 658 243 q 717 376 706 325 q 728 482 728 428 l 728 986 l 956 986 l 956 482 q 930 290 956 379 q 851 134 904 201 q 716 29 799 67 q 518 -8 633 -8 m 810 835 l 813 986 q 893 993 861 986 q 942 1018 925 1000 q 962 1062 960 1038 q 965 1113 964 1086 l 1122 1113 q 1117 1044 1121 1079 q 1101 974 1114 1008 q 1057 908 1088 939 q 995 869 1035 886 q 908 844 956 853 q 810 835 860 835 m 611 1074 q 539 1090 569 1074 q 483 1122 508 1106 q 426 1138 458 1138 q 382 1122 396 1138 q 365 1090 368 1107 q 361 1071 361 1074 l 242 1071 q 251 1119 242 1086 q 281 1185 260 1151 q 336 1244 303 1219 q 418 1268 369 1268 q 491 1251 463 1268 q 545 1218 519 1235 q 603 1201 571 1201 q 651 1217 636 1201 q 670 1251 665 1233 q 675 1271 675 1269 l 794 1271 q 785 1228 794 1260 q 753 1162 775 1197 q 697 1100 732 1126 q 611 1074 663 1074 z "},"Ű":{"ha":1038,"x_min":81,"x_max":956,"o":"m 518 -8 q 317 31 400 -8 q 181 140 233 71 q 105 297 129 208 q 81 482 81 385 l 81 986 l 308 986 l 308 482 q 319 374 308 426 q 356 282 331 322 q 420 218 381 242 q 518 194 460 194 q 618 219 578 194 q 682 284 658 243 q 717 376 706 325 q 728 482 728 428 l 728 986 l 956 986 l 956 482 q 930 290 956 379 q 851 134 904 201 q 716 29 799 67 q 518 -8 633 -8 m 431 1053 l 324 1092 l 386 1272 l 553 1272 l 431 1053 m 674 1053 l 567 1092 l 628 1272 l 794 1272 l 674 1053 z "},"Ȗ":{"ha":1038,"x_min":81,"x_max":956,"o":"m 518 -8 q 317 31 400 -8 q 181 140 233 71 q 105 297 129 208 q 81 482 81 385 l 81 986 l 308 986 l 308 482 q 319 374 308 426 q 356 282 331 322 q 420 218 381 242 q 518 194 460 194 q 618 219 578 194 q 682 284 658 243 q 717 376 706 325 q 728 482 728 428 l 728 986 l 956 986 l 956 482 q 930 290 956 379 q 851 134 904 201 q 716 29 799 67 q 518 -8 633 -8 m 518 1174 q 460 1142 485 1174 q 436 1067 436 1110 l 318 1067 q 374 1213 318 1156 q 518 1271 431 1271 q 663 1213 607 1271 q 718 1067 718 1156 l 603 1067 q 574 1143 599 1113 q 518 1174 550 1174 z "},"Ū":{"ha":1038,"x_min":81,"x_max":956,"o":"m 518 -8 q 317 31 400 -8 q 181 140 233 71 q 105 297 129 208 q 81 482 81 385 l 81 986 l 308 986 l 308 482 q 319 374 308 426 q 356 282 331 322 q 420 218 381 242 q 518 194 460 194 q 618 219 578 194 q 682 284 658 243 q 717 376 706 325 q 728 482 728 428 l 728 986 l 956 986 l 956 482 q 930 290 956 379 q 851 134 904 201 q 716 29 799 67 q 518 -8 633 -8 m 308 1119 l 308 1254 l 731 1254 l 731 1119 l 308 1119 z "},"Ṻ":{"ha":1038,"x_min":81,"x_max":956,"o":"m 518 -8 q 317 31 400 -8 q 181 140 233 71 q 105 297 129 208 q 81 482 81 385 l 81 986 l 308 986 l 308 482 q 319 374 308 426 q 356 282 331 322 q 420 218 381 242 q 518 194 460 194 q 618 219 578 194 q 682 284 658 243 q 717 376 706 325 q 728 482 728 428 l 728 986 l 956 986 l 956 482 q 930 290 956 379 q 851 134 904 201 q 716 29 799 67 q 518 -8 633 -8 m 308 1119 l 308 1254 l 731 1254 l 731 1119 l 308 1119 m 282 1349 l 282 1528 l 465 1528 l 465 1349 l 282 1349 m 574 1349 l 574 1528 l 757 1528 l 757 1349 l 574 1349 z "},"Ų":{"ha":1038,"x_min":81,"x_max":956,"o":"m 518 -8 q 317 31 400 -8 q 181 140 233 71 q 105 297 129 208 q 81 482 81 385 l 81 986 l 308 986 l 308 482 q 319 374 308 426 q 356 282 331 322 q 420 218 381 242 q 518 194 460 194 q 618 219 578 194 q 682 284 658 243 q 717 376 706 325 q 728 482 728 428 l 728 986 l 956 986 l 956 482 q 930 290 956 379 q 851 134 904 201 q 716 29 799 67 q 518 -8 633 -8 m 396 -150 q 433 -52 396 -101 q 544 38 471 -3 l 617 38 l 638 7 q 561 -56 588 -26 q 535 -108 535 -85 q 560 -146 535 -132 q 635 -161 585 -160 l 593 -282 q 478 -254 522 -274 q 415 -207 435 -235 q 396 -150 396 -179 z "},"Ů":{"ha":1038,"x_min":81,"x_max":956,"o":"m 518 -8 q 317 31 400 -8 q 181 140 233 71 q 105 297 129 208 q 81 482 81 385 l 81 986 l 308 986 l 308 482 q 319 374 308 426 q 356 282 331 322 q 420 218 381 242 q 518 194 460 194 q 618 219 578 194 q 682 284 658 243 q 717 376 706 325 q 728 482 728 428 l 728 986 l 956 986 l 956 482 q 930 290 956 379 q 851 134 904 201 q 716 29 799 67 q 518 -8 633 -8 m 364 1158 q 406 1253 364 1218 q 518 1288 449 1288 q 629 1253 588 1288 q 671 1158 671 1218 q 629 1067 671 1101 q 518 1032 588 1032 q 406 1067 449 1032 q 364 1158 364 1101 m 518 1215 q 476 1199 493 1215 q 460 1160 460 1183 q 476 1120 460 1138 q 518 1103 493 1103 q 559 1119 542 1103 q 576 1160 576 1136 q 560 1199 576 1183 q 518 1215 543 1215 z "},"Ũ":{"ha":1038,"x_min":81,"x_max":956,"o":"m 518 -8 q 317 31 400 -8 q 181 140 233 71 q 105 297 129 208 q 81 482 81 385 l 81 986 l 308 986 l 308 482 q 319 374 308 426 q 356 282 331 322 q 420 218 381 242 q 518 194 460 194 q 618 219 578 194 q 682 284 658 243 q 717 376 706 325 q 728 482 728 428 l 728 986 l 956 986 l 956 482 q 930 290 956 379 q 851 134 904 201 q 716 29 799 67 q 518 -8 633 -8 m 611 1074 q 539 1090 569 1074 q 483 1122 508 1106 q 426 1138 458 1138 q 382 1122 396 1138 q 365 1090 368 1107 q 361 1071 361 1074 l 242 1071 q 251 1119 242 1086 q 281 1185 260 1151 q 336 1244 303 1219 q 418 1268 369 1268 q 491 1251 463 1268 q 545 1218 519 1235 q 603 1201 571 1201 q 651 1217 636 1201 q 670 1251 665 1233 q 675 1271 675 1269 l 794 1271 q 785 1228 794 1260 q 753 1162 775 1197 q 697 1100 732 1126 q 611 1074 663 1074 z "},"Ṹ":{"ha":1038,"x_min":81,"x_max":956,"o":"m 518 -8 q 317 31 400 -8 q 181 140 233 71 q 105 297 129 208 q 81 482 81 385 l 81 986 l 308 986 l 308 482 q 319 374 308 426 q 356 282 331 322 q 420 218 381 242 q 518 194 460 194 q 618 219 578 194 q 682 284 658 243 q 717 376 706 325 q 728 482 728 428 l 728 986 l 956 986 l 956 482 q 930 290 956 379 q 851 134 904 201 q 716 29 799 67 q 518 -8 633 -8 m 611 1074 q 539 1090 569 1074 q 483 1122 508 1106 q 426 1138 458 1138 q 382 1122 396 1138 q 365 1090 368 1107 q 361 1071 361 1074 l 242 1071 q 251 1119 242 1086 q 281 1185 260 1151 q 336 1244 303 1219 q 418 1268 369 1268 q 491 1251 463 1268 q 545 1218 519 1235 q 603 1201 571 1201 q 651 1217 636 1201 q 670 1251 665 1233 q 675 1271 675 1269 l 794 1271 q 785 1228 794 1260 q 753 1162 775 1197 q 697 1100 732 1126 q 611 1074 663 1074 m 590 1336 l 449 1375 l 521 1556 l 722 1556 l 590 1336 z "},"V":{"ha":936,"x_min":-4,"x_max":939,"o":"m 238 986 l 469 267 l 699 986 l 939 986 l 581 0 l 357 0 l -4 986 l 238 986 z "},"W":{"ha":1465,"x_min":-8,"x_max":1474,"o":"m 419 985 l 629 985 l 732 669 l 835 985 l 1046 985 l 878 526 l 978 264 l 1225 986 l 1474 986 l 1089 0 l 892 0 l 732 386 l 574 0 l 375 0 l -8 986 l 239 986 l 488 264 l 585 526 l 419 985 z "},"Ẃ":{"ha":1465,"x_min":-8,"x_max":1474,"o":"m 419 985 l 629 985 l 732 669 l 835 985 l 1046 985 l 878 526 l 978 264 l 1225 986 l 1474 986 l 1089 0 l 892 0 l 732 386 l 574 0 l 375 0 l -8 986 l 239 986 l 488 264 l 585 526 l 419 985 m 804 1051 l 663 1090 l 735 1271 l 936 1271 l 804 1051 z "},"Ŵ":{"ha":1465,"x_min":-8,"x_max":1474,"o":"m 419 985 l 629 985 l 732 669 l 835 985 l 1046 985 l 878 526 l 978 264 l 1225 986 l 1474 986 l 1089 0 l 892 0 l 732 386 l 574 0 l 375 0 l -8 986 l 239 986 l 488 264 l 585 526 l 419 985 m 500 1121 l 653 1271 l 813 1271 l 964 1121 l 850 1071 l 732 1158 l 614 1071 l 500 1121 z "},"Ẅ":{"ha":1465,"x_min":-8,"x_max":1474,"o":"m 419 985 l 629 985 l 732 669 l 835 985 l 1046 985 l 878 526 l 978 264 l 1225 986 l 1474 986 l 1089 0 l 892 0 l 732 386 l 574 0 l 375 0 l -8 986 l 239 986 l 488 264 l 585 526 l 419 985 m 494 1082 l 494 1261 l 678 1261 l 678 1082 l 494 1082 m 786 1082 l 786 1261 l 969 1261 l 969 1082 l 786 1082 z "},"Ẁ":{"ha":1465,"x_min":-8,"x_max":1474,"o":"m 419 985 l 629 985 l 732 669 l 835 985 l 1046 985 l 878 526 l 978 264 l 1225 986 l 1474 986 l 1089 0 l 892 0 l 732 386 l 574 0 l 375 0 l -8 986 l 239 986 l 488 264 l 585 526 l 419 985 m 542 1271 l 743 1271 l 815 1090 l 675 1051 l 542 1271 z "},"X":{"ha":904,"x_min":-10,"x_max":914,"o":"m 239 986 l 453 646 l 667 986 l 914 986 l 588 486 l 903 0 l 656 0 l 453 326 l 250 0 l 1 0 l 317 486 l -10 986 l 239 986 z "},"Y":{"ha":921,"x_min":0,"x_max":924,"o":"m 247 986 l 460 550 l 675 986 l 924 986 l 572 336 l 572 0 l 346 0 l 346 339 l 0 986 l 247 986 z "},"Ý":{"ha":921,"x_min":0,"x_max":924,"o":"m 247 986 l 460 550 l 675 986 l 924 986 l 572 336 l 572 0 l 346 0 l 346 339 l 0 986 l 247 986 m 531 1051 l 389 1090 l 461 1271 l 663 1271 l 531 1051 z "},"Ŷ":{"ha":921,"x_min":0,"x_max":924,"o":"m 247 986 l 460 550 l 675 986 l 924 986 l 572 336 l 572 0 l 346 0 l 346 339 l 0 986 l 247 986 m 226 1121 l 379 1271 l 539 1271 l 690 1121 l 576 1071 l 458 1158 l 340 1071 l 226 1121 z "},"Ÿ":{"ha":921,"x_min":0,"x_max":924,"o":"m 247 986 l 460 550 l 675 986 l 924 986 l 572 336 l 572 0 l 346 0 l 346 339 l 0 986 l 247 986 m 222 1082 l 222 1261 l 406 1261 l 406 1082 l 222 1082 m 514 1082 l 514 1261 l 697 1261 l 697 1082 l 514 1082 z "},"Ẏ":{"ha":921,"x_min":0,"x_max":924,"o":"m 247 986 l 460 550 l 675 986 l 924 986 l 572 336 l 572 0 l 346 0 l 346 339 l 0 986 l 247 986 m 360 1081 l 360 1271 l 560 1271 l 560 1081 l 360 1081 z "},"Ỵ":{"ha":921,"x_min":0,"x_max":924,"o":"m 247 986 l 460 550 l 675 986 l 924 986 l 572 336 l 572 0 l 346 0 l 346 339 l 0 986 l 247 986 m 361 -286 l 361 -96 l 561 -96 l 561 -286 l 361 -286 z "},"Ỳ":{"ha":921,"x_min":0,"x_max":924,"o":"m 247 986 l 460 550 l 675 986 l 924 986 l 572 336 l 572 0 l 346 0 l 346 339 l 0 986 l 247 986 m 269 1271 l 471 1271 l 543 1090 l 403 1051 l 269 1271 z "},"Ỷ":{"ha":921,"x_min":0,"x_max":924,"o":"m 247 986 l 460 550 l 675 986 l 924 986 l 572 336 l 572 0 l 346 0 l 346 339 l 0 986 l 247 986 m 385 1204 l 321 1267 q 396 1322 360 1304 q 471 1339 432 1339 q 563 1308 529 1339 q 596 1229 596 1278 q 573 1148 596 1182 q 500 1074 550 1114 l 446 1131 q 481 1165 469 1149 q 493 1199 493 1182 q 482 1228 493 1217 q 453 1239 471 1239 q 419 1231 433 1239 q 385 1204 406 1222 z "},"Ȳ":{"ha":921,"x_min":0,"x_max":924,"o":"m 247 986 l 460 550 l 675 986 l 924 986 l 572 336 l 572 0 l 346 0 l 346 339 l 0 986 l 247 986 m 250 1119 l 250 1254 l 672 1254 l 672 1119 l 250 1119 z "},"Ỹ":{"ha":921,"x_min":0,"x_max":924,"o":"m 247 986 l 460 550 l 675 986 l 924 986 l 572 336 l 572 0 l 346 0 l 346 339 l 0 986 l 247 986 m 553 1074 q 481 1090 511 1074 q 425 1122 450 1106 q 368 1138 400 1138 q 324 1122 338 1138 q 306 1090 310 1107 q 303 1071 303 1074 l 183 1071 q 192 1119 183 1086 q 223 1185 201 1151 q 278 1244 244 1219 q 360 1268 311 1268 q 433 1251 404 1268 q 487 1218 461 1235 q 544 1201 513 1201 q 592 1217 578 1201 q 612 1251 607 1233 q 617 1271 617 1269 l 736 1271 q 726 1228 736 1260 q 695 1162 717 1197 q 639 1100 674 1126 q 553 1074 604 1074 z "},"Z":{"ha":868,"x_min":39,"x_max":821,"o":"m 39 171 l 542 786 l 58 786 l 58 986 l 815 986 l 815 815 l 336 200 l 821 200 l 821 0 l 39 0 l 39 171 z "},"Ź":{"ha":868,"x_min":39,"x_max":821,"o":"m 39 171 l 542 786 l 58 786 l 58 986 l 815 986 l 815 815 l 336 200 l 821 200 l 821 0 l 39 0 l 39 171 m 521 1051 l 379 1090 l 451 1271 l 653 1271 l 521 1051 z "},"Ž":{"ha":868,"x_min":39,"x_max":821,"o":"m 39 171 l 542 786 l 58 786 l 58 986 l 815 986 l 815 815 l 336 200 l 821 200 l 821 0 l 39 0 l 39 171 m 331 1271 l 449 1183 l 567 1271 l 681 1219 l 529 1071 l 369 1071 l 217 1219 l 331 1271 z "},"Ż":{"ha":868,"x_min":39,"x_max":821,"o":"m 39 171 l 542 786 l 58 786 l 58 986 l 815 986 l 815 815 l 336 200 l 821 200 l 821 0 l 39 0 l 39 171 m 349 1081 l 349 1271 l 549 1271 l 549 1081 l 349 1081 z "},"Ẓ":{"ha":868,"x_min":39,"x_max":821,"o":"m 39 171 l 542 786 l 58 786 l 58 986 l 815 986 l 815 815 l 336 200 l 821 200 l 821 0 l 39 0 l 39 171 m 335 -286 l 335 -96 l 535 -96 l 535 -286 l 335 -286 z "},"a":{"ha":814,"x_min":31,"x_max":776,"o":"m 31 218 q 71 344 31 290 q 182 430 111 399 q 344 461 253 461 q 432 453 389 461 q 507 432 475 446 l 507 464 q 471 556 507 524 q 361 588 435 588 q 247 567 300 588 q 133 507 193 546 l 67 649 q 217 719 139 696 q 383 743 296 743 q 638 665 547 743 q 729 438 729 586 l 729 247 q 740 201 729 214 q 776 185 750 188 l 776 0 q 724 -8 749 -6 q 682 -11 700 -11 q 587 14 619 -11 q 546 82 554 39 l 542 114 q 426 19 493 51 q 285 -14 358 -14 q 155 17 213 -14 q 64 100 97 47 q 31 218 31 153 m 472 190 q 497 218 488 203 q 507 247 507 233 l 507 313 q 445 330 479 324 q 382 336 411 336 q 281 309 321 336 q 240 238 240 282 q 254 192 240 213 q 292 158 268 171 q 350 146 317 146 q 417 158 383 146 q 472 190 450 171 z "},"á":{"ha":814,"x_min":31,"x_max":776,"o":"m 31 218 q 71 344 31 290 q 182 430 111 399 q 344 461 253 461 q 432 453 389 461 q 507 432 475 446 l 507 464 q 471 556 507 524 q 361 588 435 588 q 247 567 300 588 q 133 507 193 546 l 67 649 q 217 719 139 696 q 383 743 296 743 q 638 665 547 743 q 729 438 729 586 l 729 247 q 740 201 729 214 q 776 185 750 188 l 776 0 q 724 -8 749 -6 q 682 -11 700 -11 q 587 14 619 -11 q 546 82 554 39 l 542 114 q 426 19 493 51 q 285 -14 358 -14 q 155 17 213 -14 q 64 100 97 47 q 31 218 31 153 m 472 190 q 497 218 488 203 q 507 247 507 233 l 507 313 q 445 330 479 324 q 382 336 411 336 q 281 309 321 336 q 240 238 240 282 q 254 192 240 213 q 292 158 268 171 q 350 146 317 146 q 417 158 383 146 q 472 190 450 171 m 456 794 l 314 833 l 386 1014 l 588 1014 l 456 794 z "},"ă":{"ha":814,"x_min":31,"x_max":776,"o":"m 31 218 q 71 344 31 290 q 182 430 111 399 q 344 461 253 461 q 432 453 389 461 q 507 432 475 446 l 507 464 q 471 556 507 524 q 361 588 435 588 q 247 567 300 588 q 133 507 193 546 l 67 649 q 217 719 139 696 q 383 743 296 743 q 638 665 547 743 q 729 438 729 586 l 729 247 q 740 201 729 214 q 776 185 750 188 l 776 0 q 724 -8 749 -6 q 682 -11 700 -11 q 587 14 619 -11 q 546 82 554 39 l 542 114 q 426 19 493 51 q 285 -14 358 -14 q 155 17 213 -14 q 64 100 97 47 q 31 218 31 153 m 472 190 q 497 218 488 203 q 507 247 507 233 l 507 313 q 445 330 479 324 q 382 336 411 336 q 281 309 321 336 q 240 238 240 282 q 254 192 240 213 q 292 158 268 171 q 350 146 317 146 q 417 158 383 146 q 472 190 450 171 m 382 907 q 438 938 414 907 q 467 1014 463 968 l 582 1014 q 526 867 582 925 q 382 810 471 810 q 238 867 294 810 q 182 1014 182 925 l 300 1014 q 324 939 300 971 q 382 907 349 907 z "},"ắ":{"ha":814,"x_min":31,"x_max":776,"o":"m 31 218 q 71 344 31 290 q 182 430 111 399 q 344 461 253 461 q 432 453 389 461 q 507 432 475 446 l 507 464 q 471 556 507 524 q 361 588 435 588 q 247 567 300 588 q 133 507 193 546 l 67 649 q 217 719 139 696 q 383 743 296 743 q 638 665 547 743 q 729 438 729 586 l 729 247 q 740 201 729 214 q 776 185 750 188 l 776 0 q 724 -8 749 -6 q 682 -11 700 -11 q 587 14 619 -11 q 546 82 554 39 l 542 114 q 426 19 493 51 q 285 -14 358 -14 q 155 17 213 -14 q 64 100 97 47 q 31 218 31 153 m 472 190 q 497 218 488 203 q 507 247 507 233 l 507 313 q 445 330 479 324 q 382 336 411 336 q 281 309 321 336 q 240 238 240 282 q 254 192 240 213 q 292 158 268 171 q 350 146 317 146 q 417 158 383 146 q 472 190 450 171 z "},"ặ":{"ha":814,"x_min":31,"x_max":776,"o":"m 31 218 q 71 344 31 290 q 182 430 111 399 q 344 461 253 461 q 432 453 389 461 q 507 432 475 446 l 507 464 q 471 556 507 524 q 361 588 435 588 q 247 567 300 588 q 133 507 193 546 l 67 649 q 217 719 139 696 q 383 743 296 743 q 638 665 547 743 q 729 438 729 586 l 729 247 q 740 201 729 214 q 776 185 750 188 l 776 0 q 724 -8 749 -6 q 682 -11 700 -11 q 587 14 619 -11 q 546 82 554 39 l 542 114 q 426 19 493 51 q 285 -14 358 -14 q 155 17 213 -14 q 64 100 97 47 q 31 218 31 153 m 472 190 q 497 218 488 203 q 507 247 507 233 l 507 313 q 445 330 479 324 q 382 336 411 336 q 281 309 321 336 q 240 238 240 282 q 254 192 240 213 q 292 158 268 171 q 350 146 317 146 q 417 158 383 146 q 472 190 450 171 m 315 -286 l 315 -96 l 515 -96 l 515 -286 l 315 -286 m 382 907 q 438 938 414 907 q 467 1014 463 968 l 582 1014 q 526 867 582 925 q 382 810 471 810 q 238 867 294 810 q 182 1014 182 925 l 300 1014 q 324 939 300 971 q 382 907 349 907 z "},"ằ":{"ha":814,"x_min":31,"x_max":776,"o":"m 31 218 q 71 344 31 290 q 182 430 111 399 q 344 461 253 461 q 432 453 389 461 q 507 432 475 446 l 507 464 q 471 556 507 524 q 361 588 435 588 q 247 567 300 588 q 133 507 193 546 l 67 649 q 217 719 139 696 q 383 743 296 743 q 638 665 547 743 q 729 438 729 586 l 729 247 q 740 201 729 214 q 776 185 750 188 l 776 0 q 724 -8 749 -6 q 682 -11 700 -11 q 587 14 619 -11 q 546 82 554 39 l 542 114 q 426 19 493 51 q 285 -14 358 -14 q 155 17 213 -14 q 64 100 97 47 q 31 218 31 153 m 472 190 q 497 218 488 203 q 507 247 507 233 l 507 313 q 445 330 479 324 q 382 336 411 336 q 281 309 321 336 q 240 238 240 282 q 254 192 240 213 q 292 158 268 171 q 350 146 317 146 q 417 158 383 146 q 472 190 450 171 z "},"ẳ":{"ha":814,"x_min":31,"x_max":776,"o":"m 31 218 q 71 344 31 290 q 182 430 111 399 q 344 461 253 461 q 432 453 389 461 q 507 432 475 446 l 507 464 q 471 556 507 524 q 361 588 435 588 q 247 567 300 588 q 133 507 193 546 l 67 649 q 217 719 139 696 q 383 743 296 743 q 638 665 547 743 q 729 438 729 586 l 729 247 q 740 201 729 214 q 776 185 750 188 l 776 0 q 724 -8 749 -6 q 682 -11 700 -11 q 587 14 619 -11 q 546 82 554 39 l 542 114 q 426 19 493 51 q 285 -14 358 -14 q 155 17 213 -14 q 64 100 97 47 q 31 218 31 153 m 472 190 q 497 218 488 203 q 507 247 507 233 l 507 313 q 445 330 479 324 q 382 336 411 336 q 281 309 321 336 q 240 238 240 282 q 254 192 240 213 q 292 158 268 171 q 350 146 317 146 q 417 158 383 146 q 472 190 450 171 z "},"ẵ":{"ha":814,"x_min":31,"x_max":776,"o":"m 31 218 q 71 344 31 290 q 182 430 111 399 q 344 461 253 461 q 432 453 389 461 q 507 432 475 446 l 507 464 q 471 556 507 524 q 361 588 435 588 q 247 567 300 588 q 133 507 193 546 l 67 649 q 217 719 139 696 q 383 743 296 743 q 638 665 547 743 q 729 438 729 586 l 729 247 q 740 201 729 214 q 776 185 750 188 l 776 0 q 724 -8 749 -6 q 682 -11 700 -11 q 587 14 619 -11 q 546 82 554 39 l 542 114 q 426 19 493 51 q 285 -14 358 -14 q 155 17 213 -14 q 64 100 97 47 q 31 218 31 153 m 472 190 q 497 218 488 203 q 507 247 507 233 l 507 313 q 445 330 479 324 q 382 336 411 336 q 281 309 321 336 q 240 238 240 282 q 254 192 240 213 q 292 158 268 171 q 350 146 317 146 q 417 158 383 146 q 472 190 450 171 z "},"â":{"ha":814,"x_min":31,"x_max":776,"o":"m 31 218 q 71 344 31 290 q 182 430 111 399 q 344 461 253 461 q 432 453 389 461 q 507 432 475 446 l 507 464 q 471 556 507 524 q 361 588 435 588 q 247 567 300 588 q 133 507 193 546 l 67 649 q 217 719 139 696 q 383 743 296 743 q 638 665 547 743 q 729 438 729 586 l 729 247 q 740 201 729 214 q 776 185 750 188 l 776 0 q 724 -8 749 -6 q 682 -11 700 -11 q 587 14 619 -11 q 546 82 554 39 l 542 114 q 426 19 493 51 q 285 -14 358 -14 q 155 17 213 -14 q 64 100 97 47 q 31 218 31 153 m 472 190 q 497 218 488 203 q 507 247 507 233 l 507 313 q 445 330 479 324 q 382 336 411 336 q 281 309 321 336 q 240 238 240 282 q 254 192 240 213 q 292 158 268 171 q 350 146 317 146 q 417 158 383 146 q 472 190 450 171 m 151 864 l 304 1014 l 464 1014 l 615 864 l 501 814 l 383 901 l 265 814 l 151 864 z "},"ấ":{"ha":814,"x_min":31,"x_max":800,"o":"m 31 218 q 71 344 31 290 q 182 430 111 399 q 344 461 253 461 q 432 453 389 461 q 507 432 475 446 l 507 464 q 471 556 507 524 q 361 588 435 588 q 247 567 300 588 q 133 507 193 546 l 67 649 q 217 719 139 696 q 383 743 296 743 q 638 665 547 743 q 729 438 729 586 l 729 247 q 740 201 729 214 q 776 185 750 188 l 776 0 q 724 -8 749 -6 q 682 -11 700 -11 q 587 14 619 -11 q 546 82 554 39 l 542 114 q 426 19 493 51 q 285 -14 358 -14 q 155 17 213 -14 q 64 100 97 47 q 31 218 31 153 m 472 190 q 497 218 488 203 q 507 247 507 233 l 507 313 q 445 330 479 324 q 382 336 411 336 q 281 309 321 336 q 240 238 240 282 q 254 192 240 213 q 292 158 268 171 q 350 146 317 146 q 417 158 383 146 q 472 190 450 171 z "},"ậ":{"ha":814,"x_min":31,"x_max":776,"o":"m 31 218 q 71 344 31 290 q 182 430 111 399 q 344 461 253 461 q 432 453 389 461 q 507 432 475 446 l 507 464 q 471 556 507 524 q 361 588 435 588 q 247 567 300 588 q 133 507 193 546 l 67 649 q 217 719 139 696 q 383 743 296 743 q 638 665 547 743 q 729 438 729 586 l 729 247 q 740 201 729 214 q 776 185 750 188 l 776 0 q 724 -8 749 -6 q 682 -11 700 -11 q 587 14 619 -11 q 546 82 554 39 l 542 114 q 426 19 493 51 q 285 -14 358 -14 q 155 17 213 -14 q 64 100 97 47 q 31 218 31 153 m 472 190 q 497 218 488 203 q 507 247 507 233 l 507 313 q 445 330 479 324 q 382 336 411 336 q 281 309 321 336 q 240 238 240 282 q 254 192 240 213 q 292 158 268 171 q 350 146 317 146 q 417 158 383 146 q 472 190 450 171 m 315 -286 l 315 -96 l 515 -96 l 515 -286 l 315 -286 m 151 864 l 304 1014 l 464 1014 l 615 864 l 501 814 l 383 901 l 265 814 l 151 864 z "},"ầ":{"ha":814,"x_min":-50,"x_max":776,"o":"m 31 218 q 71 344 31 290 q 182 430 111 399 q 344 461 253 461 q 432 453 389 461 q 507 432 475 446 l 507 464 q 471 556 507 524 q 361 588 435 588 q 247 567 300 588 q 133 507 193 546 l 67 649 q 217 719 139 696 q 383 743 296 743 q 638 665 547 743 q 729 438 729 586 l 729 247 q 740 201 729 214 q 776 185 750 188 l 776 0 q 724 -8 749 -6 q 682 -11 700 -11 q 587 14 619 -11 q 546 82 554 39 l 542 114 q 426 19 493 51 q 285 -14 358 -14 q 155 17 213 -14 q 64 100 97 47 q 31 218 31 153 m 472 190 q 497 218 488 203 q 507 247 507 233 l 507 313 q 445 330 479 324 q 382 336 411 336 q 281 309 321 336 q 240 238 240 282 q 254 192 240 213 q 292 158 268 171 q 350 146 317 146 q 417 158 383 146 q 472 190 450 171 z "},"ẩ":{"ha":814,"x_min":31,"x_max":776,"o":"m 31 218 q 71 344 31 290 q 182 430 111 399 q 344 461 253 461 q 432 453 389 461 q 507 432 475 446 l 507 464 q 471 556 507 524 q 361 588 435 588 q 247 567 300 588 q 133 507 193 546 l 67 649 q 217 719 139 696 q 383 743 296 743 q 638 665 547 743 q 729 438 729 586 l 729 247 q 740 201 729 214 q 776 185 750 188 l 776 0 q 724 -8 749 -6 q 682 -11 700 -11 q 587 14 619 -11 q 546 82 554 39 l 542 114 q 426 19 493 51 q 285 -14 358 -14 q 155 17 213 -14 q 64 100 97 47 q 31 218 31 153 m 472 190 q 497 218 488 203 q 507 247 507 233 l 507 313 q 445 330 479 324 q 382 336 411 336 q 281 309 321 336 q 240 238 240 282 q 254 192 240 213 q 292 158 268 171 q 350 146 317 146 q 417 158 383 146 q 472 190 450 171 z "},"ẫ":{"ha":814,"x_min":31,"x_max":776,"o":"m 31 218 q 71 344 31 290 q 182 430 111 399 q 344 461 253 461 q 432 453 389 461 q 507 432 475 446 l 507 464 q 471 556 507 524 q 361 588 435 588 q 247 567 300 588 q 133 507 193 546 l 67 649 q 217 719 139 696 q 383 743 296 743 q 638 665 547 743 q 729 438 729 586 l 729 247 q 740 201 729 214 q 776 185 750 188 l 776 0 q 724 -8 749 -6 q 682 -11 700 -11 q 587 14 619 -11 q 546 82 554 39 l 542 114 q 426 19 493 51 q 285 -14 358 -14 q 155 17 213 -14 q 64 100 97 47 q 31 218 31 153 m 472 190 q 497 218 488 203 q 507 247 507 233 l 507 313 q 445 330 479 324 q 382 336 411 336 q 281 309 321 336 q 240 238 240 282 q 254 192 240 213 q 292 158 268 171 q 350 146 317 146 q 417 158 383 146 q 472 190 450 171 z "},"ȁ":{"ha":814,"x_min":31,"x_max":776,"o":"m 31 218 q 71 344 31 290 q 182 430 111 399 q 344 461 253 461 q 432 453 389 461 q 507 432 475 446 l 507 464 q 471 556 507 524 q 361 588 435 588 q 247 567 300 588 q 133 507 193 546 l 67 649 q 217 719 139 696 q 383 743 296 743 q 638 665 547 743 q 729 438 729 586 l 729 247 q 740 201 729 214 q 776 185 750 188 l 776 0 q 724 -8 749 -6 q 682 -11 700 -11 q 587 14 619 -11 q 546 82 554 39 l 542 114 q 426 19 493 51 q 285 -14 358 -14 q 155 17 213 -14 q 64 100 97 47 q 31 218 31 153 m 472 190 q 497 218 488 203 q 507 247 507 233 l 507 313 q 445 330 479 324 q 382 336 411 336 q 281 309 321 336 q 240 238 240 282 q 254 192 240 213 q 292 158 268 171 q 350 146 317 146 q 417 158 383 146 q 472 190 450 171 m 346 1015 l 514 1015 l 575 835 l 468 796 l 346 1015 m 104 1015 l 271 1015 l 333 835 l 225 796 l 104 1015 z "},"ä":{"ha":814,"x_min":31,"x_max":776,"o":"m 31 218 q 71 344 31 290 q 182 430 111 399 q 344 461 253 461 q 432 453 389 461 q 507 432 475 446 l 507 464 q 471 556 507 524 q 361 588 435 588 q 247 567 300 588 q 133 507 193 546 l 67 649 q 217 719 139 696 q 383 743 296 743 q 638 665 547 743 q 729 438 729 586 l 729 247 q 740 201 729 214 q 776 185 750 188 l 776 0 q 724 -8 749 -6 q 682 -11 700 -11 q 587 14 619 -11 q 546 82 554 39 l 542 114 q 426 19 493 51 q 285 -14 358 -14 q 155 17 213 -14 q 64 100 97 47 q 31 218 31 153 m 472 190 q 497 218 488 203 q 507 247 507 233 l 507 313 q 445 330 479 324 q 382 336 411 336 q 281 309 321 336 q 240 238 240 282 q 254 192 240 213 q 292 158 268 171 q 350 146 317 146 q 417 158 383 146 q 472 190 450 171 m 146 825 l 146 1004 l 329 1004 l 329 825 l 146 825 m 438 825 l 438 1004 l 621 1004 l 621 825 l 438 825 z "},"ạ":{"ha":814,"x_min":31,"x_max":776,"o":"m 31 218 q 71 344 31 290 q 182 430 111 399 q 344 461 253 461 q 432 453 389 461 q 507 432 475 446 l 507 464 q 471 556 507 524 q 361 588 435 588 q 247 567 300 588 q 133 507 193 546 l 67 649 q 217 719 139 696 q 383 743 296 743 q 638 665 547 743 q 729 438 729 586 l 729 247 q 740 201 729 214 q 776 185 750 188 l 776 0 q 724 -8 749 -6 q 682 -11 700 -11 q 587 14 619 -11 q 546 82 554 39 l 542 114 q 426 19 493 51 q 285 -14 358 -14 q 155 17 213 -14 q 64 100 97 47 q 31 218 31 153 m 472 190 q 497 218 488 203 q 507 247 507 233 l 507 313 q 445 330 479 324 q 382 336 411 336 q 281 309 321 336 q 240 238 240 282 q 254 192 240 213 q 292 158 268 171 q 350 146 317 146 q 417 158 383 146 q 472 190 450 171 m 315 -286 l 315 -96 l 515 -96 l 515 -286 l 315 -286 z "},"à":{"ha":814,"x_min":31,"x_max":776,"o":"m 31 218 q 71 344 31 290 q 182 430 111 399 q 344 461 253 461 q 432 453 389 461 q 507 432 475 446 l 507 464 q 471 556 507 524 q 361 588 435 588 q 247 567 300 588 q 133 507 193 546 l 67 649 q 217 719 139 696 q 383 743 296 743 q 638 665 547 743 q 729 438 729 586 l 729 247 q 740 201 729 214 q 776 185 750 188 l 776 0 q 724 -8 749 -6 q 682 -11 700 -11 q 587 14 619 -11 q 546 82 554 39 l 542 114 q 426 19 493 51 q 285 -14 358 -14 q 155 17 213 -14 q 64 100 97 47 q 31 218 31 153 m 472 190 q 497 218 488 203 q 507 247 507 233 l 507 313 q 445 330 479 324 q 382 336 411 336 q 281 309 321 336 q 240 238 240 282 q 254 192 240 213 q 292 158 268 171 q 350 146 317 146 q 417 158 383 146 q 472 190 450 171 m 194 1014 l 396 1014 l 468 833 l 328 794 l 194 1014 z "},"ả":{"ha":814,"x_min":31,"x_max":776,"o":"m 31 218 q 71 344 31 290 q 182 430 111 399 q 344 461 253 461 q 432 453 389 461 q 507 432 475 446 l 507 464 q 471 556 507 524 q 361 588 435 588 q 247 567 300 588 q 133 507 193 546 l 67 649 q 217 719 139 696 q 383 743 296 743 q 638 665 547 743 q 729 438 729 586 l 729 247 q 740 201 729 214 q 776 185 750 188 l 776 0 q 724 -8 749 -6 q 682 -11 700 -11 q 587 14 619 -11 q 546 82 554 39 l 542 114 q 426 19 493 51 q 285 -14 358 -14 q 155 17 213 -14 q 64 100 97 47 q 31 218 31 153 m 472 190 q 497 218 488 203 q 507 247 507 233 l 507 313 q 445 330 479 324 q 382 336 411 336 q 281 309 321 336 q 240 238 240 282 q 254 192 240 213 q 292 158 268 171 q 350 146 317 146 q 417 158 383 146 q 472 190 450 171 m 310 947 l 246 1010 q 321 1065 285 1047 q 396 1082 357 1082 q 488 1051 454 1082 q 521 972 521 1021 q 498 891 521 925 q 425 817 475 857 l 371 874 q 406 908 394 892 q 418 942 418 925 q 407 971 418 960 q 378 982 396 982 q 344 974 358 982 q 310 947 331 965 z "},"ȃ":{"ha":814,"x_min":31,"x_max":776,"o":"m 31 218 q 71 344 31 290 q 182 430 111 399 q 344 461 253 461 q 432 453 389 461 q 507 432 475 446 l 507 464 q 471 556 507 524 q 361 588 435 588 q 247 567 300 588 q 133 507 193 546 l 67 649 q 217 719 139 696 q 383 743 296 743 q 638 665 547 743 q 729 438 729 586 l 729 247 q 740 201 729 214 q 776 185 750 188 l 776 0 q 724 -8 749 -6 q 682 -11 700 -11 q 587 14 619 -11 q 546 82 554 39 l 542 114 q 426 19 493 51 q 285 -14 358 -14 q 155 17 213 -14 q 64 100 97 47 q 31 218 31 153 m 472 190 q 497 218 488 203 q 507 247 507 233 l 507 313 q 445 330 479 324 q 382 336 411 336 q 281 309 321 336 q 240 238 240 282 q 254 192 240 213 q 292 158 268 171 q 350 146 317 146 q 417 158 383 146 q 472 190 450 171 m 382 917 q 324 885 349 917 q 300 810 300 853 l 182 810 q 238 956 182 899 q 382 1014 294 1014 q 526 956 471 1014 q 582 810 582 899 l 467 810 q 438 886 463 856 q 382 917 414 917 z "},"ā":{"ha":814,"x_min":31,"x_max":776,"o":"m 31 218 q 71 344 31 290 q 182 430 111 399 q 344 461 253 461 q 432 453 389 461 q 507 432 475 446 l 507 464 q 471 556 507 524 q 361 588 435 588 q 247 567 300 588 q 133 507 193 546 l 67 649 q 217 719 139 696 q 383 743 296 743 q 638 665 547 743 q 729 438 729 586 l 729 247 q 740 201 729 214 q 776 185 750 188 l 776 0 q 724 -8 749 -6 q 682 -11 700 -11 q 587 14 619 -11 q 546 82 554 39 l 542 114 q 426 19 493 51 q 285 -14 358 -14 q 155 17 213 -14 q 64 100 97 47 q 31 218 31 153 m 472 190 q 497 218 488 203 q 507 247 507 233 l 507 313 q 445 330 479 324 q 382 336 411 336 q 281 309 321 336 q 240 238 240 282 q 254 192 240 213 q 292 158 268 171 q 350 146 317 146 q 417 158 383 146 q 472 190 450 171 m 174 863 l 174 997 l 596 997 l 596 863 l 174 863 z "},"ą":{"ha":814,"x_min":31,"x_max":776,"o":"m 31 218 q 71 344 31 290 q 182 430 111 399 q 344 461 253 461 q 432 453 389 461 q 507 432 475 446 l 507 464 q 471 556 507 524 q 361 588 435 588 q 247 567 300 588 q 133 507 193 546 l 67 649 q 217 719 139 696 q 383 743 296 743 q 638 665 547 743 q 729 438 729 586 l 729 247 q 740 201 729 214 q 776 185 750 188 l 776 0 q 724 -8 749 -6 q 682 -11 700 -11 q 587 14 619 -11 q 546 82 554 39 l 542 114 q 426 19 493 51 q 285 -14 358 -14 q 155 17 213 -14 q 64 100 97 47 q 31 218 31 153 m 472 190 q 497 218 488 203 q 507 247 507 233 l 507 313 q 445 330 479 324 q 382 336 411 336 q 281 309 321 336 q 240 238 240 282 q 254 192 240 213 q 292 158 268 171 q 350 146 317 146 q 417 158 383 146 q 472 190 450 171 m 535 -157 q 572 -59 535 -108 q 683 31 610 -10 l 756 31 l 776 0 q 700 -62 726 -33 q 674 -115 674 -92 q 699 -153 674 -139 q 774 -168 724 -167 l 732 -289 q 617 -261 661 -281 q 554 -214 574 -242 q 535 -157 535 -186 z "},"å":{"ha":814,"x_min":31,"x_max":776,"o":"m 31 218 q 71 344 31 290 q 182 430 111 399 q 344 461 253 461 q 432 453 389 461 q 507 432 475 446 l 507 464 q 471 556 507 524 q 361 588 435 588 q 247 567 300 588 q 133 507 193 546 l 67 649 q 217 719 139 696 q 383 743 296 743 q 638 665 547 743 q 729 438 729 586 l 729 247 q 740 201 729 214 q 776 185 750 188 l 776 0 q 724 -8 749 -6 q 682 -11 700 -11 q 587 14 619 -11 q 546 82 554 39 l 542 114 q 426 19 493 51 q 285 -14 358 -14 q 155 17 213 -14 q 64 100 97 47 q 31 218 31 153 m 472 190 q 497 218 488 203 q 507 247 507 233 l 507 313 q 445 330 479 324 q 382 336 411 336 q 281 309 321 336 q 240 238 240 282 q 254 192 240 213 q 292 158 268 171 q 350 146 317 146 q 417 158 383 146 q 472 190 450 171 m 229 901 q 272 996 229 961 q 383 1031 314 1031 q 494 996 453 1031 q 536 901 536 961 q 494 810 536 844 q 383 775 453 775 q 272 810 314 775 q 229 901 229 844 m 383 958 q 342 942 358 958 q 325 903 325 926 q 342 863 325 881 q 383 846 358 846 q 424 863 407 846 q 442 903 442 879 q 425 942 442 926 q 383 958 408 958 z "},"ǻ":{"ha":814,"x_min":31,"x_max":776,"o":"m 31 218 q 71 344 31 290 q 182 430 111 399 q 344 461 253 461 q 432 453 389 461 q 507 432 475 446 l 507 464 q 471 556 507 524 q 361 588 435 588 q 247 567 300 588 q 133 507 193 546 l 67 649 q 217 719 139 696 q 383 743 296 743 q 638 665 547 743 q 729 438 729 586 l 729 247 q 740 201 729 214 q 776 185 750 188 l 776 0 q 724 -8 749 -6 q 682 -11 700 -11 q 587 14 619 -11 q 546 82 554 39 l 542 114 q 426 19 493 51 q 285 -14 358 -14 q 155 17 213 -14 q 64 100 97 47 q 31 218 31 153 m 472 190 q 497 218 488 203 q 507 247 507 233 l 507 313 q 445 330 479 324 q 382 336 411 336 q 281 309 321 336 q 240 238 240 282 q 254 192 240 213 q 292 158 268 171 q 350 146 317 146 q 417 158 383 146 q 472 190 450 171 m 229 901 q 272 996 229 961 q 383 1031 314 1031 q 494 996 453 1031 q 536 901 536 961 q 494 810 536 844 q 383 775 453 775 q 272 810 314 775 q 229 901 229 844 m 383 958 q 342 942 358 958 q 325 903 325 926 q 342 863 325 881 q 383 846 358 846 q 424 863 407 846 q 442 903 442 879 q 425 942 442 926 q 383 958 408 958 m 485 1051 l 343 1090 l 415 1271 l 617 1271 l 485 1051 z "},"ã":{"ha":814,"x_min":31,"x_max":776,"o":"m 31 218 q 71 344 31 290 q 182 430 111 399 q 344 461 253 461 q 432 453 389 461 q 507 432 475 446 l 507 464 q 471 556 507 524 q 361 588 435 588 q 247 567 300 588 q 133 507 193 546 l 67 649 q 217 719 139 696 q 383 743 296 743 q 638 665 547 743 q 729 438 729 586 l 729 247 q 740 201 729 214 q 776 185 750 188 l 776 0 q 724 -8 749 -6 q 682 -11 700 -11 q 587 14 619 -11 q 546 82 554 39 l 542 114 q 426 19 493 51 q 285 -14 358 -14 q 155 17 213 -14 q 64 100 97 47 q 31 218 31 153 m 472 190 q 497 218 488 203 q 507 247 507 233 l 507 313 q 445 330 479 324 q 382 336 411 336 q 281 309 321 336 q 240 238 240 282 q 254 192 240 213 q 292 158 268 171 q 350 146 317 146 q 417 158 383 146 q 472 190 450 171 m 476 817 q 404 833 435 817 q 349 865 374 849 q 292 881 324 881 q 247 865 261 881 q 230 833 233 850 q 226 814 226 817 l 107 814 q 116 862 107 829 q 147 928 125 894 q 201 987 168 963 q 283 1011 235 1011 q 356 994 328 1011 q 410 961 385 978 q 468 944 436 944 q 516 960 501 944 q 535 994 531 976 q 540 1014 540 1013 l 660 1014 q 650 972 660 1003 q 619 905 640 940 q 563 843 597 869 q 476 817 528 817 z "},"æ":{"ha":1304,"x_min":31,"x_max":1281,"o":"m 282 -14 q 154 17 211 -14 q 64 100 97 47 q 31 218 31 153 q 71 344 31 290 q 181 430 111 399 q 343 461 251 461 q 428 453 388 461 q 500 433 468 446 q 501 454 500 443 q 506 475 503 465 q 467 561 501 532 q 361 590 432 590 q 247 570 301 590 q 133 510 193 550 l 68 649 q 383 743 211 743 q 531 720 467 743 q 638 654 594 697 q 748 719 685 694 q 889 743 811 743 q 1101 690 1014 743 q 1234 552 1188 638 q 1281 364 1281 467 q 1278 328 1281 347 q 1274 296 1276 310 l 732 296 q 759 214 735 247 q 820 163 783 181 q 897 146 857 146 q 992 169 947 146 q 1051 233 1036 193 l 1240 181 q 1163 80 1213 124 q 1044 11 1113 36 q 890 -14 975 -14 q 703 26 785 -14 q 574 132 622 67 q 490 49 539 81 q 386 1 440 17 q 282 -14 332 -14 m 347 146 q 418 158 383 146 q 475 192 453 171 q 507 243 506 215 q 502 279 504 260 q 500 317 500 299 q 440 332 472 326 q 381 338 408 338 q 281 310 321 338 q 240 238 240 282 q 254 192 240 213 q 292 158 268 171 q 347 146 317 146 m 1046 431 q 1020 511 1042 478 q 965 564 999 544 q 886 583 931 583 q 808 564 843 583 q 753 511 774 544 q 728 431 732 478 l 1046 431 z "},"ǽ":{"ha":1304,"x_min":31,"x_max":1281,"o":"m 282 -14 q 154 17 211 -14 q 64 100 97 47 q 31 218 31 153 q 71 344 31 290 q 181 430 111 399 q 343 461 251 461 q 428 453 388 461 q 500 433 468 446 q 501 454 500 443 q 506 475 503 465 q 467 561 501 532 q 361 590 432 590 q 247 570 301 590 q 133 510 193 550 l 68 649 q 383 743 211 743 q 531 720 467 743 q 638 654 594 697 q 748 719 685 694 q 889 743 811 743 q 1101 690 1014 743 q 1234 552 1188 638 q 1281 364 1281 467 q 1278 328 1281 347 q 1274 296 1276 310 l 732 296 q 759 214 735 247 q 820 163 783 181 q 897 146 857 146 q 992 169 947 146 q 1051 233 1036 193 l 1240 181 q 1163 80 1213 124 q 1044 11 1113 36 q 890 -14 975 -14 q 703 26 785 -14 q 574 132 622 67 q 490 49 539 81 q 386 1 440 17 q 282 -14 332 -14 m 347 146 q 418 158 383 146 q 475 192 453 171 q 507 243 506 215 q 502 279 504 260 q 500 317 500 299 q 440 332 472 326 q 381 338 408 338 q 281 310 321 338 q 240 238 240 282 q 254 192 240 213 q 292 158 268 171 q 347 146 317 146 m 1046 431 q 1020 511 1042 478 q 965 564 999 544 q 886 583 931 583 q 808 564 843 583 q 753 511 774 544 q 728 431 732 478 l 1046 431 m 718 794 l 576 833 l 649 1014 l 850 1014 l 718 794 z "},"b":{"ha":889,"x_min":76,"x_max":854,"o":"m 514 -14 q 368 22 431 -14 q 269 121 306 57 l 269 0 l 76 0 l 76 1014 l 299 1014 l 299 610 q 395 708 335 674 q 538 743 456 743 q 665 713 607 743 q 765 631 722 683 q 831 510 807 579 q 854 361 854 442 q 828 214 854 282 q 757 94 803 146 q 649 15 711 43 q 514 -14 588 -14 m 451 174 q 522 188 489 174 q 578 228 554 203 q 614 287 601 253 q 626 361 626 321 q 606 457 626 413 q 548 528 585 501 q 463 554 511 554 q 396 538 428 554 q 339 492 364 521 q 299 428 314 464 l 299 275 q 326 233 310 251 q 363 201 343 214 q 406 181 383 189 q 451 174 429 174 z "},"c":{"ha":792,"x_min":33,"x_max":768,"o":"m 425 -14 q 260 17 332 -14 q 137 100 188 47 q 60 221 86 153 q 33 365 33 289 q 80 551 33 465 q 214 690 126 638 q 425 743 301 743 q 637 690 550 743 q 767 550 724 636 l 550 485 q 497 536 529 518 q 424 554 464 554 q 341 531 378 554 q 283 465 304 507 q 261 365 261 424 q 283 265 261 308 q 342 198 306 222 q 424 174 378 174 q 476 183 451 174 q 520 208 500 192 q 551 246 540 225 l 768 179 q 692 80 742 124 q 576 11 643 36 q 425 -14 510 -14 z "},"ć":{"ha":792,"x_min":33,"x_max":768,"o":"m 425 -14 q 260 17 332 -14 q 137 100 188 47 q 60 221 86 153 q 33 365 33 289 q 80 551 33 465 q 214 690 126 638 q 425 743 301 743 q 637 690 550 743 q 767 550 724 636 l 550 485 q 497 536 529 518 q 424 554 464 554 q 341 531 378 554 q 283 465 304 507 q 261 365 261 424 q 283 265 261 308 q 342 198 306 222 q 424 174 378 174 q 476 183 451 174 q 520 208 500 192 q 551 246 540 225 l 768 179 q 692 80 742 124 q 576 11 643 36 q 425 -14 510 -14 m 496 794 l 354 833 l 426 1014 l 628 1014 l 496 794 z "},"č":{"ha":792,"x_min":33,"x_max":768,"o":"m 425 -14 q 260 17 332 -14 q 137 100 188 47 q 60 221 86 153 q 33 365 33 289 q 80 551 33 465 q 214 690 126 638 q 425 743 301 743 q 637 690 550 743 q 767 550 724 636 l 550 485 q 497 536 529 518 q 424 554 464 554 q 341 531 378 554 q 283 465 304 507 q 261 365 261 424 q 283 265 261 308 q 342 198 306 222 q 424 174 378 174 q 476 183 451 174 q 520 208 500 192 q 551 246 540 225 l 768 179 q 692 80 742 124 q 576 11 643 36 q 425 -14 510 -14 m 306 1014 l 424 926 l 542 1014 l 656 963 l 504 814 l 344 814 l 192 963 l 306 1014 z "},"ç":{"ha":792,"x_min":33,"x_max":768,"o":"m 425 -14 q 260 17 332 -14 q 137 100 188 47 q 60 221 86 153 q 33 365 33 289 q 80 551 33 465 q 214 690 126 638 q 425 743 301 743 q 637 690 550 743 q 767 550 724 636 l 550 485 q 497 536 529 518 q 424 554 464 554 q 341 531 378 554 q 283 465 304 507 q 261 365 261 424 q 283 265 261 308 q 342 198 306 222 q 424 174 378 174 q 476 183 451 174 q 520 208 500 192 q 551 246 540 225 l 768 179 q 692 80 742 124 q 576 11 643 36 q 425 -14 510 -14 m 407 -292 q 324 -281 368 -292 q 238 -247 281 -269 l 290 -132 q 329 -153 310 -146 q 369 -160 349 -160 q 417 -144 399 -160 q 436 -101 436 -129 q 419 -49 436 -74 q 368 0 401 -25 l 440 44 q 531 -37 494 7 q 568 -144 568 -82 q 528 -248 568 -204 q 407 -292 488 -292 z "},"ḉ":{"ha":792,"x_min":33,"x_max":768,"o":"m 425 -14 q 260 17 332 -14 q 137 100 188 47 q 60 221 86 153 q 33 365 33 289 q 80 551 33 465 q 214 690 126 638 q 425 743 301 743 q 637 690 550 743 q 767 550 724 636 l 550 485 q 497 536 529 518 q 424 554 464 554 q 341 531 378 554 q 283 465 304 507 q 261 365 261 424 q 283 265 261 308 q 342 198 306 222 q 424 174 378 174 q 476 183 451 174 q 520 208 500 192 q 551 246 540 225 l 768 179 q 692 80 742 124 q 576 11 643 36 q 425 -14 510 -14 m 407 -292 q 324 -281 368 -292 q 238 -247 281 -269 l 290 -132 q 329 -153 310 -146 q 369 -160 349 -160 q 417 -144 399 -160 q 436 -101 436 -129 q 419 -49 436 -74 q 368 0 401 -25 l 440 44 q 531 -37 494 7 q 568 -144 568 -82 q 528 -248 568 -204 q 407 -292 488 -292 m 496 794 l 354 833 l 426 1014 l 628 1014 l 496 794 z "},"ĉ":{"ha":792,"x_min":33,"x_max":768,"o":"m 425 -14 q 260 17 332 -14 q 137 100 188 47 q 60 221 86 153 q 33 365 33 289 q 80 551 33 465 q 214 690 126 638 q 425 743 301 743 q 637 690 550 743 q 767 550 724 636 l 550 485 q 497 536 529 518 q 424 554 464 554 q 341 531 378 554 q 283 465 304 507 q 261 365 261 424 q 283 265 261 308 q 342 198 306 222 q 424 174 378 174 q 476 183 451 174 q 520 208 500 192 q 551 246 540 225 l 768 179 q 692 80 742 124 q 576 11 643 36 q 425 -14 510 -14 m 192 864 l 344 1014 l 504 1014 l 656 864 l 542 814 l 424 901 l 306 814 l 192 864 z "},"ċ":{"ha":792,"x_min":33,"x_max":768,"o":"m 425 -14 q 260 17 332 -14 q 137 100 188 47 q 60 221 86 153 q 33 365 33 289 q 80 551 33 465 q 214 690 126 638 q 425 743 301 743 q 637 690 550 743 q 767 550 724 636 l 550 485 q 497 536 529 518 q 424 554 464 554 q 341 531 378 554 q 283 465 304 507 q 261 365 261 424 q 283 265 261 308 q 342 198 306 222 q 424 174 378 174 q 476 183 451 174 q 520 208 500 192 q 551 246 540 225 l 768 179 q 692 80 742 124 q 576 11 643 36 q 425 -14 510 -14 m 325 824 l 325 1014 l 525 1014 l 525 824 l 325 824 z "},"d":{"ha":908,"x_min":35,"x_max":860,"o":"m 35 365 q 76 558 35 472 q 190 693 118 643 q 357 743 263 743 q 496 706 433 743 q 590 610 558 669 l 590 1014 l 813 1014 l 813 247 q 824 201 813 214 q 860 185 835 188 l 860 0 q 765 -11 801 -11 q 673 14 708 -11 q 629 83 638 39 l 625 121 q 519 19 586 53 q 379 -14 453 -14 q 241 15 304 -14 q 131 94 178 43 q 60 215 85 146 q 35 365 35 285 m 592 275 l 592 428 q 552 493 578 465 q 494 538 526 521 q 428 554 461 554 q 362 539 392 554 q 310 497 332 524 q 276 435 288 469 q 264 361 264 400 q 277 287 264 321 q 314 227 290 253 q 369 188 338 201 q 439 174 401 174 q 485 181 463 174 q 527 201 507 189 q 564 233 547 214 q 592 275 581 253 z "},"ð":{"ha":857,"x_min":38,"x_max":818,"o":"m 818 404 q 790 229 818 307 q 709 97 761 151 q 585 15 657 43 q 425 -14 513 -14 q 226 30 314 -14 q 88 151 139 74 q 38 325 38 228 q 63 453 38 393 q 134 559 89 514 q 240 630 179 604 q 371 656 300 656 q 493 632 435 656 q 589 567 551 608 q 542 693 574 633 q 462 808 511 753 q 342 914 413 863 q 178 1014 272 965 l 454 1014 q 608 906 540 972 q 722 758 675 840 q 793 585 768 675 q 818 404 818 494 m 265 325 q 286 247 265 282 q 343 193 307 213 q 426 174 379 174 q 511 194 475 174 q 568 249 547 214 q 589 328 589 285 q 569 406 589 372 q 512 458 549 439 q 428 478 475 478 q 344 458 381 478 q 286 405 307 439 q 265 325 265 371 m 746 904 l 588 819 l 519 799 l 367 717 l 304 801 l 456 882 l 519 900 l 685 989 l 746 904 z "},"ď":{"ha":908,"x_min":35,"x_max":1119,"o":"m 35 365 q 76 558 35 472 q 190 693 118 643 q 357 743 263 743 q 496 706 433 743 q 590 610 558 669 l 590 1014 l 813 1014 l 813 247 q 824 201 813 214 q 860 185 835 188 l 860 0 q 765 -11 801 -11 q 673 14 708 -11 q 629 83 638 39 l 625 121 q 519 19 586 53 q 379 -14 453 -14 q 241 15 304 -14 q 131 94 178 43 q 60 215 85 146 q 35 365 35 285 m 592 275 l 592 428 q 552 493 578 465 q 494 538 526 521 q 428 554 461 554 q 362 539 392 554 q 310 497 332 524 q 276 435 288 469 q 264 361 264 400 q 277 287 264 321 q 314 227 290 253 q 369 188 338 201 q 439 174 401 174 q 485 181 463 174 q 527 201 507 189 q 564 233 547 214 q 592 275 581 253 m 988 794 l 846 833 l 918 1014 l 1119 1014 l 988 794 z "},"đ":{"ha":908,"x_min":35,"x_max":897,"o":"m 461 817 l 461 947 l 897 947 l 897 817 l 461 817 m 35 365 q 76 558 35 472 q 190 693 118 643 q 357 743 263 743 q 496 706 433 743 q 590 610 558 669 l 590 1014 l 813 1014 l 813 247 q 824 201 813 214 q 860 185 835 188 l 860 0 q 765 -11 801 -11 q 673 14 708 -11 q 629 83 638 39 l 625 121 q 519 19 586 53 q 379 -14 453 -14 q 241 15 304 -14 q 131 94 178 43 q 60 215 85 146 q 35 365 35 285 m 592 275 l 592 428 q 552 493 578 465 q 494 538 526 521 q 428 554 461 554 q 362 539 392 554 q 310 497 332 524 q 276 435 288 469 q 264 361 264 400 q 277 287 264 321 q 314 227 290 253 q 369 188 338 201 q 439 174 401 174 q 485 181 463 174 q 527 201 507 189 q 564 233 547 214 q 592 275 581 253 z "},"ḍ":{"ha":908,"x_min":35,"x_max":860,"o":"m 35 365 q 76 558 35 472 q 190 693 118 643 q 357 743 263 743 q 496 706 433 743 q 590 610 558 669 l 590 1014 l 813 1014 l 813 247 q 824 201 813 214 q 860 185 835 188 l 860 0 q 765 -11 801 -11 q 673 14 708 -11 q 629 83 638 39 l 625 121 q 519 19 586 53 q 379 -14 453 -14 q 241 15 304 -14 q 131 94 178 43 q 60 215 85 146 q 35 365 35 285 m 592 275 l 592 428 q 552 493 578 465 q 494 538 526 521 q 428 554 461 554 q 362 539 392 554 q 310 497 332 524 q 276 435 288 469 q 264 361 264 400 q 277 287 264 321 q 314 227 290 253 q 369 188 338 201 q 439 174 401 174 q 485 181 463 174 q 527 201 507 189 q 564 233 547 214 q 592 275 581 253 m 356 -286 l 356 -96 l 556 -96 l 556 -286 l 356 -286 z "},"ḏ":{"ha":908,"x_min":35,"x_max":860,"o":"m 35 365 q 76 558 35 472 q 190 693 118 643 q 357 743 263 743 q 496 706 433 743 q 590 610 558 669 l 590 1014 l 813 1014 l 813 247 q 824 201 813 214 q 860 185 835 188 l 860 0 q 765 -11 801 -11 q 673 14 708 -11 q 629 83 638 39 l 625 121 q 519 19 586 53 q 379 -14 453 -14 q 241 15 304 -14 q 131 94 178 43 q 60 215 85 146 q 35 365 35 285 m 592 275 l 592 428 q 552 493 578 465 q 494 538 526 521 q 428 554 461 554 q 362 539 392 554 q 310 497 332 524 q 276 435 288 469 q 264 361 264 400 q 277 287 264 321 q 314 227 290 253 q 369 188 338 201 q 439 174 401 174 q 485 181 463 174 q 527 201 507 189 q 564 233 547 214 q 592 275 581 253 m 244 -242 l 244 -107 l 667 -107 l 667 -242 l 244 -242 z "},"e":{"ha":839,"x_min":33,"x_max":814,"o":"m 425 -14 q 260 16 332 -14 q 137 97 188 46 q 60 216 86 149 q 33 357 33 283 q 80 549 33 463 q 214 690 126 636 q 425 743 301 743 q 635 690 549 743 q 768 552 722 638 q 814 367 814 467 q 812 328 814 347 q 808 296 810 310 l 269 296 q 297 214 274 247 q 356 163 319 181 q 432 146 392 146 q 526 169 482 146 q 586 233 569 193 l 775 181 q 697 80 747 124 q 577 11 646 36 q 425 -14 508 -14 m 264 432 l 581 432 q 554 512 575 478 q 499 565 533 546 q 422 583 464 583 q 345 565 379 583 q 290 512 311 546 q 264 432 269 478 z "},"é":{"ha":839,"x_min":33,"x_max":814,"o":"m 425 -14 q 260 16 332 -14 q 137 97 188 46 q 60 216 86 149 q 33 357 33 283 q 80 549 33 463 q 214 690 126 636 q 425 743 301 743 q 635 690 549 743 q 768 552 722 638 q 814 367 814 467 q 812 328 814 347 q 808 296 810 310 l 269 296 q 297 214 274 247 q 356 163 319 181 q 432 146 392 146 q 526 169 482 146 q 586 233 569 193 l 775 181 q 697 80 747 124 q 577 11 646 36 q 425 -14 508 -14 m 264 432 l 581 432 q 554 512 575 478 q 499 565 533 546 q 422 583 464 583 q 345 565 379 583 q 290 512 311 546 q 264 432 269 478 m 494 794 l 353 833 l 425 1014 l 626 1014 l 494 794 z "},"ĕ":{"ha":839,"x_min":33,"x_max":814,"o":"m 425 -14 q 260 16 332 -14 q 137 97 188 46 q 60 216 86 149 q 33 357 33 283 q 80 549 33 463 q 214 690 126 636 q 425 743 301 743 q 635 690 549 743 q 768 552 722 638 q 814 367 814 467 q 812 328 814 347 q 808 296 810 310 l 269 296 q 297 214 274 247 q 356 163 319 181 q 432 146 392 146 q 526 169 482 146 q 586 233 569 193 l 775 181 q 697 80 747 124 q 577 11 646 36 q 425 -14 508 -14 m 264 432 l 581 432 q 554 512 575 478 q 499 565 533 546 q 422 583 464 583 q 345 565 379 583 q 290 512 311 546 q 264 432 269 478 m 422 907 q 478 938 454 907 q 507 1014 503 968 l 622 1014 q 567 867 622 925 q 422 810 511 810 q 278 867 335 810 q 222 1014 222 925 l 340 1014 q 365 939 340 971 q 422 907 389 907 z "},"ě":{"ha":839,"x_min":33,"x_max":814,"o":"m 425 -14 q 260 16 332 -14 q 137 97 188 46 q 60 216 86 149 q 33 357 33 283 q 80 549 33 463 q 214 690 126 636 q 425 743 301 743 q 635 690 549 743 q 768 552 722 638 q 814 367 814 467 q 812 328 814 347 q 808 296 810 310 l 269 296 q 297 214 274 247 q 356 163 319 181 q 432 146 392 146 q 526 169 482 146 q 586 233 569 193 l 775 181 q 697 80 747 124 q 577 11 646 36 q 425 -14 508 -14 m 264 432 l 581 432 q 554 512 575 478 q 499 565 533 546 q 422 583 464 583 q 345 565 379 583 q 290 512 311 546 q 264 432 269 478 m 304 1014 l 422 926 l 540 1014 l 654 963 l 503 814 l 343 814 l 190 963 l 304 1014 z "},"ḝ":{"ha":839,"x_min":33,"x_max":814,"o":"m 425 -14 q 260 16 332 -14 q 137 97 188 46 q 60 216 86 149 q 33 357 33 283 q 80 549 33 463 q 214 690 126 636 q 425 743 301 743 q 635 690 549 743 q 768 552 722 638 q 814 367 814 467 q 812 328 814 347 q 808 296 810 310 l 269 296 q 297 214 274 247 q 356 163 319 181 q 432 146 392 146 q 526 169 482 146 q 586 233 569 193 l 775 181 q 697 80 747 124 q 577 11 646 36 q 425 -14 508 -14 m 264 432 l 581 432 q 554 512 575 478 q 499 565 533 546 q 422 583 464 583 q 345 565 379 583 q 290 512 311 546 q 264 432 269 478 m 406 -292 q 323 -281 367 -292 q 236 -247 279 -269 l 289 -132 q 328 -153 308 -146 q 368 -160 347 -160 q 416 -144 397 -160 q 435 -101 435 -129 q 417 -49 435 -74 q 367 0 400 -25 l 439 44 q 530 -37 493 7 q 567 -144 567 -82 q 526 -248 567 -204 q 406 -292 486 -292 m 422 907 q 478 938 454 907 q 507 1014 503 968 l 622 1014 q 567 867 622 925 q 422 810 511 810 q 278 867 335 810 q 222 1014 222 925 l 340 1014 q 365 939 340 971 q 422 907 389 907 z "},"ê":{"ha":839,"x_min":33,"x_max":814,"o":"m 425 -14 q 260 16 332 -14 q 137 97 188 46 q 60 216 86 149 q 33 357 33 283 q 80 549 33 463 q 214 690 126 636 q 425 743 301 743 q 635 690 549 743 q 768 552 722 638 q 814 367 814 467 q 812 328 814 347 q 808 296 810 310 l 269 296 q 297 214 274 247 q 356 163 319 181 q 432 146 392 146 q 526 169 482 146 q 586 233 569 193 l 775 181 q 697 80 747 124 q 577 11 646 36 q 425 -14 508 -14 m 264 432 l 581 432 q 554 512 575 478 q 499 565 533 546 q 422 583 464 583 q 345 565 379 583 q 290 512 311 546 q 264 432 269 478 m 190 864 l 343 1014 l 503 1014 l 654 864 l 540 814 l 422 901 l 304 814 l 190 864 z "},"ế":{"ha":839,"x_min":33,"x_max":840,"o":"m 425 -14 q 260 16 332 -14 q 137 97 188 46 q 60 216 86 149 q 33 357 33 283 q 80 549 33 463 q 214 690 126 636 q 425 743 301 743 q 635 690 549 743 q 768 552 722 638 q 814 367 814 467 q 812 328 814 347 q 808 296 810 310 l 269 296 q 297 214 274 247 q 356 163 319 181 q 432 146 392 146 q 526 169 482 146 q 586 233 569 193 l 775 181 q 697 80 747 124 q 577 11 646 36 q 425 -14 508 -14 m 264 432 l 581 432 q 554 512 575 478 q 499 565 533 546 q 422 583 464 583 q 345 565 379 583 q 290 512 311 546 q 264 432 269 478 z "},"ệ":{"ha":839,"x_min":33,"x_max":814,"o":"m 425 -14 q 260 16 332 -14 q 137 97 188 46 q 60 216 86 149 q 33 357 33 283 q 80 549 33 463 q 214 690 126 636 q 425 743 301 743 q 635 690 549 743 q 768 552 722 638 q 814 367 814 467 q 812 328 814 347 q 808 296 810 310 l 269 296 q 297 214 274 247 q 356 163 319 181 q 432 146 392 146 q 526 169 482 146 q 586 233 569 193 l 775 181 q 697 80 747 124 q 577 11 646 36 q 425 -14 508 -14 m 264 432 l 581 432 q 554 512 575 478 q 499 565 533 546 q 422 583 464 583 q 345 565 379 583 q 290 512 311 546 q 264 432 269 478 m 324 -286 l 324 -96 l 524 -96 l 524 -286 l 324 -286 m 190 864 l 343 1014 l 503 1014 l 654 864 l 540 814 l 422 901 l 304 814 l 190 864 z "},"ề":{"ha":839,"x_min":-11,"x_max":814,"o":"m 425 -14 q 260 16 332 -14 q 137 97 188 46 q 60 216 86 149 q 33 357 33 283 q 80 549 33 463 q 214 690 126 636 q 425 743 301 743 q 635 690 549 743 q 768 552 722 638 q 814 367 814 467 q 812 328 814 347 q 808 296 810 310 l 269 296 q 297 214 274 247 q 356 163 319 181 q 432 146 392 146 q 526 169 482 146 q 586 233 569 193 l 775 181 q 697 80 747 124 q 577 11 646 36 q 425 -14 508 -14 m 264 432 l 581 432 q 554 512 575 478 q 499 565 533 546 q 422 583 464 583 q 345 565 379 583 q 290 512 311 546 q 264 432 269 478 z "},"ể":{"ha":839,"x_min":33,"x_max":814,"o":"m 425 -14 q 260 16 332 -14 q 137 97 188 46 q 60 216 86 149 q 33 357 33 283 q 80 549 33 463 q 214 690 126 636 q 425 743 301 743 q 635 690 549 743 q 768 552 722 638 q 814 367 814 467 q 812 328 814 347 q 808 296 810 310 l 269 296 q 297 214 274 247 q 356 163 319 181 q 432 146 392 146 q 526 169 482 146 q 586 233 569 193 l 775 181 q 697 80 747 124 q 577 11 646 36 q 425 -14 508 -14 m 264 432 l 581 432 q 554 512 575 478 q 499 565 533 546 q 422 583 464 583 q 345 565 379 583 q 290 512 311 546 q 264 432 269 478 z "},"ễ":{"ha":839,"x_min":33,"x_max":814,"o":"m 425 -14 q 260 16 332 -14 q 137 97 188 46 q 60 216 86 149 q 33 357 33 283 q 80 549 33 463 q 214 690 126 636 q 425 743 301 743 q 635 690 549 743 q 768 552 722 638 q 814 367 814 467 q 812 328 814 347 q 808 296 810 310 l 269 296 q 297 214 274 247 q 356 163 319 181 q 432 146 392 146 q 526 169 482 146 q 586 233 569 193 l 775 181 q 697 80 747 124 q 577 11 646 36 q 425 -14 508 -14 m 264 432 l 581 432 q 554 512 575 478 q 499 565 533 546 q 422 583 464 583 q 345 565 379 583 q 290 512 311 546 q 264 432 269 478 z "},"ȅ":{"ha":839,"x_min":33,"x_max":814,"o":"m 425 -14 q 260 16 332 -14 q 137 97 188 46 q 60 216 86 149 q 33 357 33 283 q 80 549 33 463 q 214 690 126 636 q 425 743 301 743 q 635 690 549 743 q 768 552 722 638 q 814 367 814 467 q 812 328 814 347 q 808 296 810 310 l 269 296 q 297 214 274 247 q 356 163 319 181 q 432 146 392 146 q 526 169 482 146 q 586 233 569 193 l 775 181 q 697 80 747 124 q 577 11 646 36 q 425 -14 508 -14 m 264 432 l 581 432 q 554 512 575 478 q 499 565 533 546 q 422 583 464 583 q 345 565 379 583 q 290 512 311 546 q 264 432 269 478 m 386 1015 l 554 1015 l 615 835 l 508 796 l 386 1015 m 144 1015 l 311 1015 l 374 835 l 265 796 l 144 1015 z "},"ë":{"ha":839,"x_min":33,"x_max":814,"o":"m 425 -14 q 260 16 332 -14 q 137 97 188 46 q 60 216 86 149 q 33 357 33 283 q 80 549 33 463 q 214 690 126 636 q 425 743 301 743 q 635 690 549 743 q 768 552 722 638 q 814 367 814 467 q 812 328 814 347 q 808 296 810 310 l 269 296 q 297 214 274 247 q 356 163 319 181 q 432 146 392 146 q 526 169 482 146 q 586 233 569 193 l 775 181 q 697 80 747 124 q 577 11 646 36 q 425 -14 508 -14 m 264 432 l 581 432 q 554 512 575 478 q 499 565 533 546 q 422 583 464 583 q 345 565 379 583 q 290 512 311 546 q 264 432 269 478 m 186 825 l 186 1004 l 369 1004 l 369 825 l 186 825 m 478 825 l 478 1004 l 661 1004 l 661 825 l 478 825 z "},"ė":{"ha":839,"x_min":33,"x_max":814,"o":"m 425 -14 q 260 16 332 -14 q 137 97 188 46 q 60 216 86 149 q 33 357 33 283 q 80 549 33 463 q 214 690 126 636 q 425 743 301 743 q 635 690 549 743 q 768 552 722 638 q 814 367 814 467 q 812 328 814 347 q 808 296 810 310 l 269 296 q 297 214 274 247 q 356 163 319 181 q 432 146 392 146 q 526 169 482 146 q 586 233 569 193 l 775 181 q 697 80 747 124 q 577 11 646 36 q 425 -14 508 -14 m 264 432 l 581 432 q 554 512 575 478 q 499 565 533 546 q 422 583 464 583 q 345 565 379 583 q 290 512 311 546 q 264 432 269 478 m 324 824 l 324 1014 l 524 1014 l 524 824 l 324 824 z "},"ẹ":{"ha":839,"x_min":33,"x_max":814,"o":"m 425 -14 q 260 16 332 -14 q 137 97 188 46 q 60 216 86 149 q 33 357 33 283 q 80 549 33 463 q 214 690 126 636 q 425 743 301 743 q 635 690 549 743 q 768 552 722 638 q 814 367 814 467 q 812 328 814 347 q 808 296 810 310 l 269 296 q 297 214 274 247 q 356 163 319 181 q 432 146 392 146 q 526 169 482 146 q 586 233 569 193 l 775 181 q 697 80 747 124 q 577 11 646 36 q 425 -14 508 -14 m 264 432 l 581 432 q 554 512 575 478 q 499 565 533 546 q 422 583 464 583 q 345 565 379 583 q 290 512 311 546 q 264 432 269 478 m 324 -286 l 324 -96 l 524 -96 l 524 -286 l 324 -286 z "},"è":{"ha":839,"x_min":33,"x_max":814,"o":"m 425 -14 q 260 16 332 -14 q 137 97 188 46 q 60 216 86 149 q 33 357 33 283 q 80 549 33 463 q 214 690 126 636 q 425 743 301 743 q 635 690 549 743 q 768 552 722 638 q 814 367 814 467 q 812 328 814 347 q 808 296 810 310 l 269 296 q 297 214 274 247 q 356 163 319 181 q 432 146 392 146 q 526 169 482 146 q 586 233 569 193 l 775 181 q 697 80 747 124 q 577 11 646 36 q 425 -14 508 -14 m 264 432 l 581 432 q 554 512 575 478 q 499 565 533 546 q 422 583 464 583 q 345 565 379 583 q 290 512 311 546 q 264 432 269 478 m 233 1014 l 435 1014 l 507 833 l 367 794 l 233 1014 z "},"ẻ":{"ha":839,"x_min":33,"x_max":814,"o":"m 425 -14 q 260 16 332 -14 q 137 97 188 46 q 60 216 86 149 q 33 357 33 283 q 80 549 33 463 q 214 690 126 636 q 425 743 301 743 q 635 690 549 743 q 768 552 722 638 q 814 367 814 467 q 812 328 814 347 q 808 296 810 310 l 269 296 q 297 214 274 247 q 356 163 319 181 q 432 146 392 146 q 526 169 482 146 q 586 233 569 193 l 775 181 q 697 80 747 124 q 577 11 646 36 q 425 -14 508 -14 m 264 432 l 581 432 q 554 512 575 478 q 499 565 533 546 q 422 583 464 583 q 345 565 379 583 q 290 512 311 546 q 264 432 269 478 m 349 947 l 285 1010 q 360 1065 324 1047 q 435 1082 396 1082 q 526 1051 493 1082 q 560 972 560 1021 q 537 891 560 925 q 464 817 514 857 l 410 874 q 445 908 433 892 q 457 942 457 925 q 446 971 457 960 q 417 982 435 982 q 383 974 397 982 q 349 947 369 965 z "},"ȇ":{"ha":839,"x_min":33,"x_max":814,"o":"m 425 -14 q 260 16 332 -14 q 137 97 188 46 q 60 216 86 149 q 33 357 33 283 q 80 549 33 463 q 214 690 126 636 q 425 743 301 743 q 635 690 549 743 q 768 552 722 638 q 814 367 814 467 q 812 328 814 347 q 808 296 810 310 l 269 296 q 297 214 274 247 q 356 163 319 181 q 432 146 392 146 q 526 169 482 146 q 586 233 569 193 l 775 181 q 697 80 747 124 q 577 11 646 36 q 425 -14 508 -14 m 264 432 l 581 432 q 554 512 575 478 q 499 565 533 546 q 422 583 464 583 q 345 565 379 583 q 290 512 311 546 q 264 432 269 478 m 422 917 q 365 885 389 917 q 340 810 340 853 l 222 810 q 278 956 222 899 q 422 1014 335 1014 q 567 956 511 1014 q 622 810 622 899 l 507 810 q 478 886 503 856 q 422 917 454 917 z "},"ē":{"ha":839,"x_min":33,"x_max":814,"o":"m 425 -14 q 260 16 332 -14 q 137 97 188 46 q 60 216 86 149 q 33 357 33 283 q 80 549 33 463 q 214 690 126 636 q 425 743 301 743 q 635 690 549 743 q 768 552 722 638 q 814 367 814 467 q 812 328 814 347 q 808 296 810 310 l 269 296 q 297 214 274 247 q 356 163 319 181 q 432 146 392 146 q 526 169 482 146 q 586 233 569 193 l 775 181 q 697 80 747 124 q 577 11 646 36 q 425 -14 508 -14 m 264 432 l 581 432 q 554 512 575 478 q 499 565 533 546 q 422 583 464 583 q 345 565 379 583 q 290 512 311 546 q 264 432 269 478 m 214 863 l 214 997 l 636 997 l 636 863 l 214 863 z "},"ḗ":{"ha":839,"x_min":33,"x_max":814,"o":"m 425 -14 q 260 16 332 -14 q 137 97 188 46 q 60 216 86 149 q 33 357 33 283 q 80 549 33 463 q 214 690 126 636 q 425 743 301 743 q 635 690 549 743 q 768 552 722 638 q 814 367 814 467 q 812 328 814 347 q 808 296 810 310 l 269 296 q 297 214 274 247 q 356 163 319 181 q 432 146 392 146 q 526 169 482 146 q 586 233 569 193 l 775 181 q 697 80 747 124 q 577 11 646 36 q 425 -14 508 -14 m 264 432 l 581 432 q 554 512 575 478 q 499 565 533 546 q 422 583 464 583 q 345 565 379 583 q 290 512 311 546 q 264 432 269 478 m 214 863 l 214 997 l 636 997 l 636 863 l 214 863 m 496 1063 l 354 1101 l 426 1282 l 628 1282 l 496 1063 z "},"ḕ":{"ha":839,"x_min":33,"x_max":814,"o":"m 425 -14 q 260 16 332 -14 q 137 97 188 46 q 60 216 86 149 q 33 357 33 283 q 80 549 33 463 q 214 690 126 636 q 425 743 301 743 q 635 690 549 743 q 768 552 722 638 q 814 367 814 467 q 812 328 814 347 q 808 296 810 310 l 269 296 q 297 214 274 247 q 356 163 319 181 q 432 146 392 146 q 526 169 482 146 q 586 233 569 193 l 775 181 q 697 80 747 124 q 577 11 646 36 q 425 -14 508 -14 m 264 432 l 581 432 q 554 512 575 478 q 499 565 533 546 q 422 583 464 583 q 345 565 379 583 q 290 512 311 546 q 264 432 269 478 m 214 863 l 214 997 l 636 997 l 636 863 l 214 863 m 235 1282 l 436 1282 l 508 1101 l 368 1063 l 235 1282 z "},"ę":{"ha":839,"x_min":33,"x_max":814,"o":"m 425 -14 q 260 16 332 -14 q 137 97 188 46 q 60 216 86 149 q 33 357 33 283 q 80 549 33 463 q 214 690 126 636 q 425 743 301 743 q 635 690 549 743 q 768 552 722 638 q 814 367 814 467 q 812 328 814 347 q 808 296 810 310 l 269 296 q 297 214 274 247 q 356 163 319 181 q 432 146 392 146 q 526 169 482 146 q 586 233 569 193 l 775 181 q 697 80 747 124 q 577 11 646 36 q 425 -14 508 -14 m 264 432 l 581 432 q 554 512 575 478 q 499 565 533 546 q 422 583 464 583 q 345 565 379 583 q 290 512 311 546 q 264 432 269 478 m 296 -157 q 333 -59 296 -108 q 444 31 371 -10 l 517 31 l 538 0 q 461 -62 488 -33 q 435 -115 435 -92 q 460 -153 435 -139 q 535 -168 485 -167 l 493 -289 q 378 -261 422 -281 q 315 -214 335 -242 q 296 -157 296 -186 z "},"ẽ":{"ha":839,"x_min":33,"x_max":814,"o":"m 425 -14 q 260 16 332 -14 q 137 97 188 46 q 60 216 86 149 q 33 357 33 283 q 80 549 33 463 q 214 690 126 636 q 425 743 301 743 q 635 690 549 743 q 768 552 722 638 q 814 367 814 467 q 812 328 814 347 q 808 296 810 310 l 269 296 q 297 214 274 247 q 356 163 319 181 q 432 146 392 146 q 526 169 482 146 q 586 233 569 193 l 775 181 q 697 80 747 124 q 577 11 646 36 q 425 -14 508 -14 m 264 432 l 581 432 q 554 512 575 478 q 499 565 533 546 q 422 583 464 583 q 345 565 379 583 q 290 512 311 546 q 264 432 269 478 m 517 817 q 444 833 475 817 q 389 865 414 849 q 332 881 364 881 q 288 865 301 881 q 270 833 274 850 q 267 814 267 817 l 147 814 q 156 862 147 829 q 187 928 165 894 q 242 987 208 963 q 324 1011 275 1011 q 397 994 368 1011 q 451 961 425 978 q 508 944 476 944 q 556 960 542 944 q 576 994 571 976 q 581 1014 581 1013 l 700 1014 q 690 972 700 1003 q 659 905 681 940 q 603 843 638 869 q 517 817 568 817 z "},"ə":{"ha":839,"x_min":25,"x_max":806,"o":"m 415 -14 q 204 38 292 -14 q 71 177 117 90 q 25 364 25 264 q 26 400 25 381 q 31 433 28 419 l 569 433 q 542 515 565 482 q 483 565 519 549 q 407 582 447 582 q 313 558 357 582 q 253 494 269 535 l 64 549 q 143 649 93 606 q 262 718 193 693 q 414 743 331 743 q 579 713 507 743 q 701 631 651 683 q 778 512 751 579 q 806 369 806 444 q 760 178 806 265 q 627 39 714 92 q 415 -14 540 -14 m 418 146 q 494 165 461 146 q 549 218 528 183 q 574 297 569 253 l 260 297 q 285 217 264 251 q 342 165 307 183 q 418 146 376 146 z "},"f":{"ha":535,"x_min":31,"x_max":568,"o":"m 124 0 l 124 501 l 31 501 l 31 669 l 124 669 l 124 729 q 155 888 124 821 q 244 991 186 954 q 378 1028 301 1028 q 472 1017 425 1028 q 568 985 519 1006 l 528 818 q 479 834 507 828 q 428 840 451 840 q 367 815 388 840 q 346 738 346 789 l 346 669 l 515 669 l 515 501 l 346 501 l 346 0 l 124 0 z "},"g":{"ha":889,"x_min":36,"x_max":813,"o":"m 360 -3 q 228 26 288 -3 q 126 105 168 54 q 60 222 83 156 q 36 365 36 289 q 61 514 36 446 q 131 634 86 582 q 238 715 176 686 q 375 743 300 743 q 519 708 457 743 q 619 610 582 672 l 619 729 l 813 729 l 813 50 q 759 -142 813 -61 q 610 -266 706 -222 q 390 -310 515 -310 q 190 -272 274 -310 q 43 -164 106 -233 l 163 -43 q 263 -116 203 -89 q 390 -143 322 -143 q 490 -124 444 -143 q 563 -61 536 -104 q 590 50 590 -18 l 590 121 q 494 29 557 61 q 360 -3 431 -3 m 436 174 q 485 181 463 174 q 528 202 508 189 q 564 234 547 215 q 590 275 581 253 l 590 428 q 550 495 576 467 q 492 539 524 524 q 425 554 460 554 q 360 539 390 554 q 308 495 329 524 q 274 432 286 467 q 263 360 263 397 q 276 286 263 319 q 313 227 289 253 q 368 188 336 201 q 436 174 400 174 z "},"ğ":{"ha":889,"x_min":36,"x_max":813,"o":"m 360 -3 q 228 26 288 -3 q 126 105 168 54 q 60 222 83 156 q 36 365 36 289 q 61 514 36 446 q 131 634 86 582 q 238 715 176 686 q 375 743 300 743 q 519 708 457 743 q 619 610 582 672 l 619 729 l 813 729 l 813 50 q 759 -142 813 -61 q 610 -266 706 -222 q 390 -310 515 -310 q 190 -272 274 -310 q 43 -164 106 -233 l 163 -43 q 263 -116 203 -89 q 390 -143 322 -143 q 490 -124 444 -143 q 563 -61 536 -104 q 590 50 590 -18 l 590 121 q 494 29 557 61 q 360 -3 431 -3 m 436 174 q 485 181 463 174 q 528 202 508 189 q 564 234 547 215 q 590 275 581 253 l 590 428 q 550 495 576 467 q 492 539 524 524 q 425 554 460 554 q 360 539 390 554 q 308 495 329 524 q 274 432 286 467 q 263 360 263 397 q 276 286 263 319 q 313 227 289 253 q 368 188 336 201 q 436 174 400 174 m 442 907 q 498 938 474 907 q 526 1014 522 968 l 642 1014 q 586 867 642 925 q 442 810 531 810 q 298 867 354 810 q 242 1014 242 925 l 360 1014 q 384 939 360 971 q 442 907 408 907 z "},"ǧ":{"ha":889,"x_min":36,"x_max":813,"o":"m 360 -3 q 228 26 288 -3 q 126 105 168 54 q 60 222 83 156 q 36 365 36 289 q 61 514 36 446 q 131 634 86 582 q 238 715 176 686 q 375 743 300 743 q 519 708 457 743 q 619 610 582 672 l 619 729 l 813 729 l 813 50 q 759 -142 813 -61 q 610 -266 706 -222 q 390 -310 515 -310 q 190 -272 274 -310 q 43 -164 106 -233 l 163 -43 q 263 -116 203 -89 q 390 -143 322 -143 q 490 -124 444 -143 q 563 -61 536 -104 q 590 50 590 -18 l 590 121 q 494 29 557 61 q 360 -3 431 -3 m 436 174 q 485 181 463 174 q 528 202 508 189 q 564 234 547 215 q 590 275 581 253 l 590 428 q 550 495 576 467 q 492 539 524 524 q 425 554 460 554 q 360 539 390 554 q 308 495 329 524 q 274 432 286 467 q 263 360 263 397 q 276 286 263 319 q 313 227 289 253 q 368 188 336 201 q 436 174 400 174 m 324 1014 l 442 926 l 560 1014 l 674 963 l 522 814 l 363 814 l 210 963 l 324 1014 z "},"ĝ":{"ha":889,"x_min":36,"x_max":813,"o":"m 360 -3 q 228 26 288 -3 q 126 105 168 54 q 60 222 83 156 q 36 365 36 289 q 61 514 36 446 q 131 634 86 582 q 238 715 176 686 q 375 743 300 743 q 519 708 457 743 q 619 610 582 672 l 619 729 l 813 729 l 813 50 q 759 -142 813 -61 q 610 -266 706 -222 q 390 -310 515 -310 q 190 -272 274 -310 q 43 -164 106 -233 l 163 -43 q 263 -116 203 -89 q 390 -143 322 -143 q 490 -124 444 -143 q 563 -61 536 -104 q 590 50 590 -18 l 590 121 q 494 29 557 61 q 360 -3 431 -3 m 436 174 q 485 181 463 174 q 528 202 508 189 q 564 234 547 215 q 590 275 581 253 l 590 428 q 550 495 576 467 q 492 539 524 524 q 425 554 460 554 q 360 539 390 554 q 308 495 329 524 q 274 432 286 467 q 263 360 263 397 q 276 286 263 319 q 313 227 289 253 q 368 188 336 201 q 436 174 400 174 m 210 864 l 363 1014 l 522 1014 l 674 864 l 560 814 l 442 901 l 324 814 l 210 864 z "},"ģ":{"ha":889,"x_min":36,"x_max":813,"o":"m 360 -3 q 228 26 288 -3 q 126 105 168 54 q 60 222 83 156 q 36 365 36 289 q 61 514 36 446 q 131 634 86 582 q 238 715 176 686 q 375 743 300 743 q 519 708 457 743 q 619 610 582 672 l 619 729 l 813 729 l 813 50 q 759 -142 813 -61 q 610 -266 706 -222 q 390 -310 515 -310 q 190 -272 274 -310 q 43 -164 106 -233 l 163 -43 q 263 -116 203 -89 q 390 -143 322 -143 q 490 -124 444 -143 q 563 -61 536 -104 q 590 50 590 -18 l 590 121 q 494 29 557 61 q 360 -3 431 -3 m 436 174 q 485 181 463 174 q 528 202 508 189 q 564 234 547 215 q 590 275 581 253 l 590 428 q 550 495 576 467 q 492 539 524 524 q 425 554 460 554 q 360 539 390 554 q 308 495 329 524 q 274 432 286 467 q 263 360 263 397 q 276 286 263 319 q 313 227 289 253 q 368 188 336 201 q 436 174 400 174 m 513 1014 l 469 929 l 535 929 l 535 804 l 350 804 l 350 929 l 414 1014 l 513 1014 z "},"ġ":{"ha":889,"x_min":36,"x_max":813,"o":"m 360 -3 q 228 26 288 -3 q 126 105 168 54 q 60 222 83 156 q 36 365 36 289 q 61 514 36 446 q 131 634 86 582 q 238 715 176 686 q 375 743 300 743 q 519 708 457 743 q 619 610 582 672 l 619 729 l 813 729 l 813 50 q 759 -142 813 -61 q 610 -266 706 -222 q 390 -310 515 -310 q 190 -272 274 -310 q 43 -164 106 -233 l 163 -43 q 263 -116 203 -89 q 390 -143 322 -143 q 490 -124 444 -143 q 563 -61 536 -104 q 590 50 590 -18 l 590 121 q 494 29 557 61 q 360 -3 431 -3 m 436 174 q 485 181 463 174 q 528 202 508 189 q 564 234 547 215 q 590 275 581 253 l 590 428 q 550 495 576 467 q 492 539 524 524 q 425 554 460 554 q 360 539 390 554 q 308 495 329 524 q 274 432 286 467 q 263 360 263 397 q 276 286 263 319 q 313 227 289 253 q 368 188 336 201 q 436 174 400 174 m 343 824 l 343 1014 l 543 1014 l 543 824 l 343 824 z "},"ḡ":{"ha":889,"x_min":36,"x_max":813,"o":"m 360 -3 q 228 26 288 -3 q 126 105 168 54 q 60 222 83 156 q 36 365 36 289 q 61 514 36 446 q 131 634 86 582 q 238 715 176 686 q 375 743 300 743 q 519 708 457 743 q 619 610 582 672 l 619 729 l 813 729 l 813 50 q 759 -142 813 -61 q 610 -266 706 -222 q 390 -310 515 -310 q 190 -272 274 -310 q 43 -164 106 -233 l 163 -43 q 263 -116 203 -89 q 390 -143 322 -143 q 490 -124 444 -143 q 563 -61 536 -104 q 590 50 590 -18 l 590 121 q 494 29 557 61 q 360 -3 431 -3 m 436 174 q 485 181 463 174 q 528 202 508 189 q 564 234 547 215 q 590 275 581 253 l 590 428 q 550 495 576 467 q 492 539 524 524 q 425 554 460 554 q 360 539 390 554 q 308 495 329 524 q 274 432 286 467 q 263 360 263 397 q 276 286 263 319 q 313 227 289 253 q 368 188 336 201 q 436 174 400 174 m 233 863 l 233 997 l 656 997 l 656 863 l 233 863 z "},"h":{"ha":850,"x_min":76,"x_max":779,"o":"m 779 0 l 557 0 l 557 410 q 528 514 557 481 q 453 547 500 547 q 397 531 428 547 q 339 486 365 515 q 299 418 313 457 l 299 0 l 76 0 l 76 1014 l 299 1014 l 299 607 q 405 708 339 672 q 550 743 471 743 q 670 718 625 743 q 739 652 715 693 q 771 563 763 611 q 779 467 779 514 l 779 0 z "},"ħ":{"ha":850,"x_min":24,"x_max":779,"o":"m 24 817 l 24 947 l 461 947 l 461 817 l 24 817 m 779 0 l 557 0 l 557 410 q 528 514 557 481 q 453 547 500 547 q 397 531 428 547 q 339 486 365 515 q 299 418 313 457 l 299 0 l 76 0 l 76 1014 l 299 1014 l 299 607 q 405 708 339 672 q 550 743 471 743 q 670 718 625 743 q 739 652 715 693 q 771 563 763 611 q 779 467 779 514 l 779 0 z "},"ḫ":{"ha":850,"x_min":76,"x_max":779,"o":"m 779 0 l 557 0 l 557 410 q 528 514 557 481 q 453 547 500 547 q 397 531 428 547 q 339 486 365 515 q 299 418 313 457 l 299 0 l 76 0 l 76 1014 l 299 1014 l 299 607 q 405 708 339 672 q 550 743 471 743 q 670 718 625 743 q 739 652 715 693 q 771 563 763 611 q 779 467 779 514 l 779 0 m 425 -179 q 481 -149 457 -179 q 510 -72 506 -118 l 625 -72 q 569 -219 625 -161 q 425 -276 514 -276 q 281 -219 338 -276 q 225 -72 225 -161 l 343 -72 q 367 -147 343 -115 q 425 -179 392 -179 z "},"ĥ":{"ha":850,"x_min":76,"x_max":779,"o":"m 779 0 l 557 0 l 557 410 q 528 514 557 481 q 453 547 500 547 q 397 531 428 547 q 339 486 365 515 q 299 418 313 457 l 299 0 l 76 0 l 76 1014 l 299 1014 l 299 607 q 405 708 339 672 q 550 743 471 743 q 670 718 625 743 q 739 652 715 693 q 771 563 763 611 q 779 467 779 514 l 779 0 m 217 1121 l 369 1271 l 529 1271 l 681 1121 l 567 1071 l 449 1158 l 331 1071 l 217 1121 z "},"ḥ":{"ha":850,"x_min":76,"x_max":779,"o":"m 779 0 l 557 0 l 557 410 q 528 514 557 481 q 453 547 500 547 q 397 531 428 547 q 339 486 365 515 q 299 418 313 457 l 299 0 l 76 0 l 76 1014 l 299 1014 l 299 607 q 405 708 339 672 q 550 743 471 743 q 670 718 625 743 q 739 652 715 693 q 771 563 763 611 q 779 467 779 514 l 779 0 m 326 -286 l 326 -96 l 526 -96 l 526 -286 l 326 -286 z "},"i":{"ha":375,"x_min":76,"x_max":299,"o":"m 76 0 l 76 729 l 299 729 l 299 0 l 76 0 m 76 813 l 76 1014 l 299 1014 l 299 813 l 76 813 z "},"ı":{"ha":375,"x_min":76,"x_max":299,"o":"m 76 0 l 76 729 l 299 729 l 299 0 l 76 0 z "},"í":{"ha":375,"x_min":76,"x_max":392,"o":"m 76 0 l 76 729 l 299 729 l 299 0 l 76 0 m 260 794 l 118 833 l 190 1014 l 392 1014 l 260 794 z "},"ĭ":{"ha":375,"x_min":-12,"x_max":388,"o":"m 76 0 l 76 729 l 299 729 l 299 0 l 76 0 m 186 907 q 242 938 218 907 q 271 1014 267 968 l 386 1014 q 331 867 386 925 q 186 810 275 810 q 42 867 99 810 q -14 1014 -14 925 l 104 1014 q 128 939 104 971 q 186 907 153 907 z "},"î":{"ha":375,"x_min":-44,"x_max":419,"o":"m 76 0 l 76 729 l 299 729 l 299 0 l 76 0 m -44 864 l 108 1014 l 268 1014 l 419 864 l 306 814 l 188 901 l 69 814 l -44 864 z "},"ȉ":{"ha":375,"x_min":-92,"x_max":378,"o":"m 76 0 l 76 729 l 299 729 l 299 0 l 76 0 m 150 1015 l 318 1015 l 379 835 l 272 796 l 150 1015 m -92 1015 l 75 1015 l 138 835 l 29 796 l -92 1015 z "},"ï":{"ha":375,"x_min":-50,"x_max":425,"o":"m 76 0 l 76 729 l 299 729 l 299 0 l 76 0 m -50 825 l -50 1004 l 133 1004 l 133 825 l -50 825 m 242 825 l 242 1004 l 425 1004 l 425 825 l 242 825 z "},"ḯ":{"ha":375,"x_min":-50,"x_max":425,"o":"m 76 0 l 76 729 l 299 729 l 299 0 l 76 0 m -50 825 l -50 1004 l 133 1004 l 133 825 l -50 825 m 242 825 l 242 1004 l 425 1004 l 425 825 l 242 825 m 260 1067 l 118 1106 l 190 1286 l 392 1286 l 260 1067 z "},"ị":{"ha":375,"x_min":76,"x_max":299,"o":"m 76 0 l 76 729 l 299 729 l 299 0 l 76 0 m 76 813 l 76 1014 l 299 1014 l 299 813 l 76 813 m 88 -286 l 88 -96 l 288 -96 l 288 -286 l 88 -286 z "},"ì":{"ha":375,"x_min":-3,"x_max":299,"o":"m 76 0 l 76 729 l 299 729 l 299 0 l 76 0 m -3 1014 l 199 1014 l 271 833 l 131 794 l -3 1014 z "},"ỉ":{"ha":375,"x_min":10,"x_max":299,"o":"m 76 0 l 76 729 l 299 729 l 299 0 l 76 0 m 72 924 l 8 986 q 83 1041 47 1024 q 158 1058 119 1058 q 250 1028 217 1058 q 283 949 283 997 q 260 867 283 901 q 188 793 238 833 l 133 850 q 169 885 157 868 q 181 918 181 901 q 169 947 181 936 q 140 958 158 958 q 107 950 121 958 q 72 924 93 942 z "},"ȋ":{"ha":375,"x_min":-12,"x_max":388,"o":"m 76 0 l 76 729 l 299 729 l 299 0 l 76 0 m 186 917 q 128 885 153 917 q 104 810 104 853 l -14 810 q 42 956 -14 899 q 186 1014 99 1014 q 331 956 275 1014 q 386 810 386 899 l 271 810 q 242 886 267 856 q 186 917 218 917 z "},"ī":{"ha":375,"x_min":-24,"x_max":400,"o":"m 76 0 l 76 729 l 299 729 l 299 0 l 76 0 m -22 863 l -22 997 l 400 997 l 400 863 l -22 863 z "},"į":{"ha":375,"x_min":57,"x_max":299,"o":"m 76 0 l 76 729 l 299 729 l 299 0 l 76 0 m 76 813 l 76 1014 l 299 1014 l 299 813 l 76 813 m 57 -157 q 94 -59 57 -108 q 206 31 132 -10 l 278 31 l 299 0 q 222 -62 249 -33 q 196 -115 196 -92 q 221 -153 196 -139 q 296 -168 246 -167 l 254 -289 q 140 -261 183 -281 q 76 -214 96 -242 q 57 -157 57 -186 z "},"ĩ":{"ha":375,"x_min":-89,"x_max":464,"o":"m 76 0 l 76 729 l 299 729 l 299 0 l 76 0 m 281 817 q 208 833 239 817 q 153 865 178 849 q 96 881 128 881 q 51 865 65 881 q 34 833 38 850 q 31 814 31 817 l -89 814 q -80 862 -89 829 q -49 928 -71 894 q 6 987 -28 963 q 88 1011 39 1011 q 160 994 132 1011 q 215 961 189 978 q 272 944 240 944 q 320 960 306 944 q 340 994 335 976 q 344 1014 344 1013 l 464 1014 q 454 972 464 1003 q 423 905 444 940 q 367 843 401 869 q 281 817 332 817 z "},"j":{"ha":381,"x_min":-158,"x_max":306,"o":"m 38 -281 q -67 -263 -17 -281 q -158 -211 -118 -246 l -65 -60 q -31 -82 -51 -75 q 10 -89 -11 -89 q 47 -80 31 -89 q 74 -53 64 -71 q 83 -12 83 -35 l 83 729 l 306 729 l 306 4 q 270 -144 306 -79 q 174 -244 235 -208 q 38 -281 114 -281 m 83 813 l 83 1014 l 306 1014 l 306 813 l 83 813 z "},"ȷ":{"ha":375,"x_min":-165,"x_max":299,"o":"m 31 -281 q -74 -263 -24 -281 q -165 -211 -125 -246 l -72 -60 q -38 -82 -58 -75 q 3 -89 -18 -89 q 40 -80 24 -89 q 67 -53 57 -71 q 76 -12 76 -35 l 76 729 l 299 729 l 299 4 q 263 -144 299 -79 q 167 -244 228 -208 q 31 -281 107 -281 z "},"ĵ":{"ha":375,"x_min":-165,"x_max":419,"o":"m 31 -281 q -74 -263 -24 -281 q -165 -211 -125 -246 l -72 -60 q -38 -82 -58 -75 q 3 -89 -18 -89 q 40 -80 24 -89 q 67 -53 57 -71 q 76 -12 76 -35 l 76 729 l 299 729 l 299 4 q 263 -144 299 -79 q 167 -244 228 -208 q 31 -281 107 -281 m -44 864 l 108 1014 l 268 1014 l 419 864 l 306 814 l 188 901 l 69 814 l -44 864 z "},"k":{"ha":790,"x_min":76,"x_max":803,"o":"m 567 0 l 376 292 l 299 213 l 299 0 l 76 0 l 76 1014 l 299 1014 l 299 428 l 546 729 l 781 729 l 518 415 l 803 0 l 567 0 z "},"ķ":{"ha":790,"x_min":76,"x_max":803,"o":"m 567 0 l 376 292 l 299 213 l 299 0 l 76 0 l 76 1014 l 299 1014 l 299 428 l 546 729 l 781 729 l 518 415 l 803 0 l 567 0 m 335 -296 l 378 -203 l 311 -203 l 311 -65 l 497 -65 l 497 -203 l 432 -296 l 335 -296 z "},"ĸ":{"ha":790,"x_min":76,"x_max":803,"o":"m 567 0 l 376 293 l 299 213 l 299 0 l 76 0 l 76 729 l 299 729 l 299 426 l 544 729 l 781 729 l 518 415 l 803 0 l 567 0 z "},"l":{"ha":465,"x_min":74,"x_max":469,"o":"m 74 1014 l 296 1014 l 296 260 q 313 194 296 214 q 360 175 329 175 q 402 181 381 175 q 440 196 424 188 l 469 29 q 374 -1 428 10 q 272 -12 319 -12 q 126 38 178 -12 q 74 182 74 89 l 74 1014 z "},"ĺ":{"ha":465,"x_min":74,"x_max":469,"o":"m 74 1014 l 296 1014 l 296 260 q 313 194 296 214 q 360 175 329 175 q 402 181 381 175 q 440 196 424 188 l 469 29 q 374 -1 428 10 q 272 -12 319 -12 q 126 38 178 -12 q 74 182 74 89 l 74 1014 m 256 1051 l 114 1090 l 186 1271 l 388 1271 l 256 1051 z "},"ľ":{"ha":465,"x_min":74,"x_max":621,"o":"m 74 1014 l 296 1014 l 296 260 q 313 194 296 214 q 360 175 329 175 q 402 181 381 175 q 440 196 424 188 l 469 29 q 374 -1 428 10 q 272 -12 319 -12 q 126 38 178 -12 q 74 182 74 89 l 74 1014 m 489 794 l 347 833 l 419 1014 l 621 1014 l 489 794 z "},"ļ":{"ha":465,"x_min":74,"x_max":469,"o":"m 74 1014 l 296 1014 l 296 260 q 313 194 296 214 q 360 175 329 175 q 402 181 381 175 q 440 196 424 188 l 469 29 q 374 -1 428 10 q 272 -12 319 -12 q 126 38 178 -12 q 74 182 74 89 l 74 1014 m 197 -296 l 240 -203 l 174 -203 l 174 -65 l 360 -65 l 360 -203 l 294 -296 l 197 -296 z "},"ŀ":{"ha":596,"x_min":74,"x_max":572,"o":"m 74 1014 l 296 1014 l 296 260 q 313 194 296 214 q 360 175 329 175 q 402 181 381 175 q 440 196 424 188 l 469 29 q 374 -1 428 10 q 272 -12 319 -12 q 126 38 178 -12 q 74 182 74 89 l 74 1014 m 390 335 l 390 565 l 572 565 l 572 335 l 390 335 z "},"ḷ":{"ha":465,"x_min":74,"x_max":469,"o":"m 74 1014 l 296 1014 l 296 260 q 313 194 296 214 q 360 175 329 175 q 402 181 381 175 q 440 196 424 188 l 469 29 q 374 -1 428 10 q 272 -12 319 -12 q 126 38 178 -12 q 74 182 74 89 l 74 1014 m 171 -286 l 171 -96 l 371 -96 l 371 -286 l 171 -286 z "},"ḻ":{"ha":465,"x_min":60,"x_max":483,"o":"m 74 1014 l 296 1014 l 296 260 q 313 194 296 214 q 360 175 329 175 q 402 181 381 175 q 440 196 424 188 l 469 29 q 374 -1 428 10 q 272 -12 319 -12 q 126 38 178 -12 q 74 182 74 89 l 74 1014 m 60 -242 l 60 -107 l 482 -107 l 482 -242 l 60 -242 z "},"ł":{"ha":506,"x_min":-7,"x_max":506,"o":"m 46 363 l -7 482 l 449 731 l 501 611 l 46 363 m 108 1014 l 331 1014 l 331 260 q 348 194 331 214 q 396 175 365 175 q 438 181 417 175 q 476 196 460 188 l 506 29 q 410 -1 464 10 q 308 -12 356 -12 q 161 38 214 -12 q 108 182 108 89 l 108 1014 z "},"m":{"ha":1299,"x_min":76,"x_max":1229,"o":"m 1229 0 l 1007 0 l 1007 410 q 981 514 1007 481 q 913 547 954 547 q 825 511 868 547 q 764 418 782 475 l 764 0 l 542 0 l 542 410 q 515 515 542 482 q 447 547 489 547 q 361 511 404 547 q 299 418 318 475 l 299 0 l 76 0 l 76 729 l 276 729 l 276 607 q 385 708 317 672 q 546 743 454 743 q 685 701 636 743 q 747 601 733 658 q 858 706 789 669 q 1013 743 926 743 q 1125 717 1082 743 q 1190 650 1168 692 q 1221 560 1213 608 q 1229 467 1229 513 l 1229 0 z "},"ṃ":{"ha":1299,"x_min":76,"x_max":1229,"o":"m 1229 0 l 1007 0 l 1007 410 q 981 514 1007 481 q 913 547 954 547 q 825 511 868 547 q 764 418 782 475 l 764 0 l 542 0 l 542 410 q 515 515 542 482 q 447 547 489 547 q 361 511 404 547 q 299 418 318 475 l 299 0 l 76 0 l 76 729 l 276 729 l 276 607 q 385 708 317 672 q 546 743 454 743 q 685 701 636 743 q 747 601 733 658 q 858 706 789 669 q 1013 743 926 743 q 1125 717 1082 743 q 1190 650 1168 692 q 1221 560 1213 608 q 1229 467 1229 513 l 1229 0 m 550 -286 l 550 -96 l 750 -96 l 750 -286 l 550 -286 z "},"n":{"ha":850,"x_min":76,"x_max":779,"o":"m 779 0 l 557 0 l 557 410 q 530 515 557 482 q 458 547 503 547 q 396 531 428 547 q 338 485 364 514 q 299 418 313 456 l 299 0 l 76 0 l 76 729 l 276 729 l 276 607 q 346 681 304 650 q 442 727 388 711 q 560 743 496 743 q 674 717 631 743 q 741 650 718 692 q 772 560 764 608 q 779 467 779 513 l 779 0 z "},"ń":{"ha":850,"x_min":76,"x_max":779,"o":"m 779 0 l 557 0 l 557 410 q 530 515 557 482 q 458 547 503 547 q 396 531 428 547 q 338 485 364 514 q 299 418 313 456 l 299 0 l 76 0 l 76 729 l 276 729 l 276 607 q 346 681 304 650 q 442 727 388 711 q 560 743 496 743 q 674 717 631 743 q 741 650 718 692 q 772 560 764 608 q 779 467 779 513 l 779 0 m 522 794 l 381 833 l 453 1014 l 654 1014 l 522 794 z "},"ň":{"ha":850,"x_min":76,"x_max":779,"o":"m 779 0 l 557 0 l 557 410 q 530 515 557 482 q 458 547 503 547 q 396 531 428 547 q 338 485 364 514 q 299 418 313 456 l 299 0 l 76 0 l 76 729 l 276 729 l 276 607 q 346 681 304 650 q 442 727 388 711 q 560 743 496 743 q 674 717 631 743 q 741 650 718 692 q 772 560 764 608 q 779 467 779 513 l 779 0 m 332 1014 l 450 926 l 568 1014 l 682 963 l 531 814 l 371 814 l 218 963 l 332 1014 z "},"ņ":{"ha":850,"x_min":76,"x_max":779,"o":"m 779 0 l 557 0 l 557 410 q 530 515 557 482 q 458 547 503 547 q 396 531 428 547 q 338 485 364 514 q 299 418 313 456 l 299 0 l 76 0 l 76 729 l 276 729 l 276 607 q 346 681 304 650 q 442 727 388 711 q 560 743 496 743 q 674 717 631 743 q 741 650 718 692 q 772 560 764 608 q 779 467 779 513 l 779 0 m 351 -296 l 394 -203 l 328 -203 l 328 -65 l 514 -65 l 514 -203 l 449 -296 l 351 -296 z "},"ṅ":{"ha":850,"x_min":76,"x_max":779,"o":"m 779 0 l 557 0 l 557 410 q 530 515 557 482 q 458 547 503 547 q 396 531 428 547 q 338 485 364 514 q 299 418 313 456 l 299 0 l 76 0 l 76 729 l 276 729 l 276 607 q 346 681 304 650 q 442 727 388 711 q 560 743 496 743 q 674 717 631 743 q 741 650 718 692 q 772 560 764 608 q 779 467 779 513 l 779 0 m 350 824 l 350 1014 l 550 1014 l 550 824 l 350 824 z "},"ṇ":{"ha":850,"x_min":76,"x_max":779,"o":"m 779 0 l 557 0 l 557 410 q 530 515 557 482 q 458 547 503 547 q 396 531 428 547 q 338 485 364 514 q 299 418 313 456 l 299 0 l 76 0 l 76 729 l 276 729 l 276 607 q 346 681 304 650 q 442 727 388 711 q 560 743 496 743 q 674 717 631 743 q 741 650 718 692 q 772 560 764 608 q 779 467 779 513 l 779 0 m 325 -286 l 325 -96 l 525 -96 l 525 -286 l 325 -286 z "},"ŋ":{"ha":849,"x_min":76,"x_max":779,"o":"m 511 -281 q 406 -263 457 -281 q 315 -211 356 -246 l 408 -60 q 442 -82 422 -75 q 483 -89 463 -89 q 521 -80 504 -89 q 547 -53 538 -71 q 557 -12 557 -35 l 557 410 q 530 515 557 482 q 458 547 503 547 q 396 531 428 547 q 338 485 364 514 q 299 418 313 456 l 299 0 l 76 0 l 76 729 l 276 729 l 276 607 q 346 681 304 650 q 442 727 388 711 q 560 743 496 743 q 674 717 631 743 q 740 650 718 692 q 771 560 763 608 q 779 467 779 513 l 779 4 q 744 -144 779 -79 q 648 -244 708 -208 q 511 -281 588 -281 z "},"ṉ":{"ha":850,"x_min":76,"x_max":779,"o":"m 779 0 l 557 0 l 557 410 q 530 515 557 482 q 458 547 503 547 q 396 531 428 547 q 338 485 364 514 q 299 418 313 456 l 299 0 l 76 0 l 76 729 l 276 729 l 276 607 q 346 681 304 650 q 442 727 388 711 q 560 743 496 743 q 674 717 631 743 q 741 650 718 692 q 772 560 764 608 q 779 467 779 513 l 779 0 m 214 -242 l 214 -107 l 636 -107 l 636 -242 l 214 -242 z "},"ñ":{"ha":850,"x_min":76,"x_max":779,"o":"m 779 0 l 557 0 l 557 410 q 530 515 557 482 q 458 547 503 547 q 396 531 428 547 q 338 485 364 514 q 299 418 313 456 l 299 0 l 76 0 l 76 729 l 276 729 l 276 607 q 346 681 304 650 q 442 727 388 711 q 560 743 496 743 q 674 717 631 743 q 741 650 718 692 q 772 560 764 608 q 779 467 779 513 l 779 0 m 543 817 q 471 833 501 817 q 415 865 440 849 q 358 881 390 881 q 314 865 328 881 q 297 833 300 850 q 293 814 293 817 l 174 814 q 183 862 174 829 q 213 928 192 894 q 268 987 235 963 q 350 1011 301 1011 q 423 994 394 1011 q 477 961 451 978 q 535 944 503 944 q 583 960 568 944 q 602 994 597 976 q 607 1014 607 1013 l 726 1014 q 717 972 726 1003 q 685 905 707 940 q 629 843 664 869 q 543 817 594 817 z "},"o":{"ha":847,"x_min":33,"x_max":814,"o":"m 424 -14 q 258 17 331 -14 q 135 100 185 47 q 59 221 85 153 q 33 364 33 289 q 59 508 33 440 q 135 629 85 576 q 258 713 185 682 q 424 743 331 743 q 589 713 517 743 q 711 629 661 682 q 788 508 761 576 q 814 364 814 440 q 788 221 814 289 q 711 100 761 153 q 589 17 661 47 q 424 -14 517 -14 m 261 364 q 283 264 261 307 q 340 197 304 221 q 424 174 376 174 q 506 198 469 174 q 564 265 543 222 q 585 364 585 308 q 564 464 585 421 q 506 531 543 507 q 424 554 469 554 q 340 531 376 554 q 283 464 304 507 q 261 364 261 421 z "},"ó":{"ha":847,"x_min":33,"x_max":814,"o":"m 424 -14 q 258 17 331 -14 q 135 100 185 47 q 59 221 85 153 q 33 364 33 289 q 59 508 33 440 q 135 629 85 576 q 258 713 185 682 q 424 743 331 743 q 589 713 517 743 q 711 629 661 682 q 788 508 761 576 q 814 364 814 440 q 788 221 814 289 q 711 100 761 153 q 589 17 661 47 q 424 -14 517 -14 m 261 364 q 283 264 261 307 q 340 197 304 221 q 424 174 376 174 q 506 198 469 174 q 564 265 543 222 q 585 364 585 308 q 564 464 585 421 q 506 531 543 507 q 424 554 469 554 q 340 531 376 554 q 283 464 304 507 q 261 364 261 421 m 494 794 l 353 833 l 425 1014 l 626 1014 l 494 794 z "},"ŏ":{"ha":847,"x_min":33,"x_max":814,"o":"m 424 -14 q 258 17 331 -14 q 135 100 185 47 q 59 221 85 153 q 33 364 33 289 q 59 508 33 440 q 135 629 85 576 q 258 713 185 682 q 424 743 331 743 q 589 713 517 743 q 711 629 661 682 q 788 508 761 576 q 814 364 814 440 q 788 221 814 289 q 711 100 761 153 q 589 17 661 47 q 424 -14 517 -14 m 261 364 q 283 264 261 307 q 340 197 304 221 q 424 174 376 174 q 506 198 469 174 q 564 265 543 222 q 585 364 585 308 q 564 464 585 421 q 506 531 543 507 q 424 554 469 554 q 340 531 376 554 q 283 464 304 507 q 261 364 261 421 m 422 907 q 478 938 454 907 q 507 1014 503 968 l 622 1014 q 567 867 622 925 q 422 810 511 810 q 278 867 335 810 q 222 1014 222 925 l 340 1014 q 365 939 340 971 q 422 907 389 907 z "},"ô":{"ha":847,"x_min":33,"x_max":814,"o":"m 424 -14 q 258 17 331 -14 q 135 100 185 47 q 59 221 85 153 q 33 364 33 289 q 59 508 33 440 q 135 629 85 576 q 258 713 185 682 q 424 743 331 743 q 589 713 517 743 q 711 629 661 682 q 788 508 761 576 q 814 364 814 440 q 788 221 814 289 q 711 100 761 153 q 589 17 661 47 q 424 -14 517 -14 m 261 364 q 283 264 261 307 q 340 197 304 221 q 424 174 376 174 q 506 198 469 174 q 564 265 543 222 q 585 364 585 308 q 564 464 585 421 q 506 531 543 507 q 424 554 469 554 q 340 531 376 554 q 283 464 304 507 q 261 364 261 421 m 190 864 l 343 1014 l 503 1014 l 654 864 l 540 814 l 422 901 l 304 814 l 190 864 z "},"ố":{"ha":847,"x_min":33,"x_max":840,"o":"m 424 -14 q 258 17 331 -14 q 135 100 185 47 q 59 221 85 153 q 33 364 33 289 q 59 508 33 440 q 135 629 85 576 q 258 713 185 682 q 424 743 331 743 q 589 713 517 743 q 711 629 661 682 q 788 508 761 576 q 814 364 814 440 q 788 221 814 289 q 711 100 761 153 q 589 17 661 47 q 424 -14 517 -14 m 261 364 q 283 264 261 307 q 340 197 304 221 q 424 174 376 174 q 506 198 469 174 q 564 265 543 222 q 585 364 585 308 q 564 464 585 421 q 506 531 543 507 q 424 554 469 554 q 340 531 376 554 q 283 464 304 507 q 261 364 261 421 z "},"ộ":{"ha":847,"x_min":33,"x_max":814,"o":"m 424 -14 q 258 17 331 -14 q 135 100 185 47 q 59 221 85 153 q 33 364 33 289 q 59 508 33 440 q 135 629 85 576 q 258 713 185 682 q 424 743 331 743 q 589 713 517 743 q 711 629 661 682 q 788 508 761 576 q 814 364 814 440 q 788 221 814 289 q 711 100 761 153 q 589 17 661 47 q 424 -14 517 -14 m 261 364 q 283 264 261 307 q 340 197 304 221 q 424 174 376 174 q 506 198 469 174 q 564 265 543 222 q 585 364 585 308 q 564 464 585 421 q 506 531 543 507 q 424 554 469 554 q 340 531 376 554 q 283 464 304 507 q 261 364 261 421 m 324 -286 l 324 -96 l 524 -96 l 524 -286 l 324 -286 m 190 864 l 343 1014 l 503 1014 l 654 864 l 540 814 l 422 901 l 304 814 l 190 864 z "},"ồ":{"ha":847,"x_min":-11,"x_max":814,"o":"m 424 -14 q 258 17 331 -14 q 135 100 185 47 q 59 221 85 153 q 33 364 33 289 q 59 508 33 440 q 135 629 85 576 q 258 713 185 682 q 424 743 331 743 q 589 713 517 743 q 711 629 661 682 q 788 508 761 576 q 814 364 814 440 q 788 221 814 289 q 711 100 761 153 q 589 17 661 47 q 424 -14 517 -14 m 261 364 q 283 264 261 307 q 340 197 304 221 q 424 174 376 174 q 506 198 469 174 q 564 265 543 222 q 585 364 585 308 q 564 464 585 421 q 506 531 543 507 q 424 554 469 554 q 340 531 376 554 q 283 464 304 507 q 261 364 261 421 z "},"ổ":{"ha":847,"x_min":33,"x_max":814,"o":"m 424 -14 q 258 17 331 -14 q 135 100 185 47 q 59 221 85 153 q 33 364 33 289 q 59 508 33 440 q 135 629 85 576 q 258 713 185 682 q 424 743 331 743 q 589 713 517 743 q 711 629 661 682 q 788 508 761 576 q 814 364 814 440 q 788 221 814 289 q 711 100 761 153 q 589 17 661 47 q 424 -14 517 -14 m 261 364 q 283 264 261 307 q 340 197 304 221 q 424 174 376 174 q 506 198 469 174 q 564 265 543 222 q 585 364 585 308 q 564 464 585 421 q 506 531 543 507 q 424 554 469 554 q 340 531 376 554 q 283 464 304 507 q 261 364 261 421 z "},"ỗ":{"ha":847,"x_min":33,"x_max":814,"o":"m 424 -14 q 258 17 331 -14 q 135 100 185 47 q 59 221 85 153 q 33 364 33 289 q 59 508 33 440 q 135 629 85 576 q 258 713 185 682 q 424 743 331 743 q 589 713 517 743 q 711 629 661 682 q 788 508 761 576 q 814 364 814 440 q 788 221 814 289 q 711 100 761 153 q 589 17 661 47 q 424 -14 517 -14 m 261 364 q 283 264 261 307 q 340 197 304 221 q 424 174 376 174 q 506 198 469 174 q 564 265 543 222 q 585 364 585 308 q 564 464 585 421 q 506 531 543 507 q 424 554 469 554 q 340 531 376 554 q 283 464 304 507 q 261 364 261 421 z "},"ȍ":{"ha":847,"x_min":33,"x_max":814,"o":"m 424 -14 q 258 17 331 -14 q 135 100 185 47 q 59 221 85 153 q 33 364 33 289 q 59 508 33 440 q 135 629 85 576 q 258 713 185 682 q 424 743 331 743 q 589 713 517 743 q 711 629 661 682 q 788 508 761 576 q 814 364 814 440 q 788 221 814 289 q 711 100 761 153 q 589 17 661 47 q 424 -14 517 -14 m 261 364 q 283 264 261 307 q 340 197 304 221 q 424 174 376 174 q 506 198 469 174 q 564 265 543 222 q 585 364 585 308 q 564 464 585 421 q 506 531 543 507 q 424 554 469 554 q 340 531 376 554 q 283 464 304 507 q 261 364 261 421 m 386 1015 l 554 1015 l 615 835 l 508 796 l 386 1015 m 144 1015 l 311 1015 l 374 835 l 265 796 l 144 1015 z "},"ö":{"ha":847,"x_min":33,"x_max":814,"o":"m 424 -14 q 258 17 331 -14 q 135 100 185 47 q 59 221 85 153 q 33 364 33 289 q 59 508 33 440 q 135 629 85 576 q 258 713 185 682 q 424 743 331 743 q 589 713 517 743 q 711 629 661 682 q 788 508 761 576 q 814 364 814 440 q 788 221 814 289 q 711 100 761 153 q 589 17 661 47 q 424 -14 517 -14 m 261 364 q 283 264 261 307 q 340 197 304 221 q 424 174 376 174 q 506 198 469 174 q 564 265 543 222 q 585 364 585 308 q 564 464 585 421 q 506 531 543 507 q 424 554 469 554 q 340 531 376 554 q 283 464 304 507 q 261 364 261 421 m 186 825 l 186 1004 l 369 1004 l 369 825 l 186 825 m 478 825 l 478 1004 l 661 1004 l 661 825 l 478 825 z "},"ȫ":{"ha":847,"x_min":33,"x_max":814,"o":"m 424 -14 q 258 17 331 -14 q 135 100 185 47 q 59 221 85 153 q 33 364 33 289 q 59 508 33 440 q 135 629 85 576 q 258 713 185 682 q 424 743 331 743 q 589 713 517 743 q 711 629 661 682 q 788 508 761 576 q 814 364 814 440 q 788 221 814 289 q 711 100 761 153 q 589 17 661 47 q 424 -14 517 -14 m 261 364 q 283 264 261 307 q 340 197 304 221 q 424 174 376 174 q 506 198 469 174 q 564 265 543 222 q 585 364 585 308 q 564 464 585 421 q 506 531 543 507 q 424 554 469 554 q 340 531 376 554 q 283 464 304 507 q 261 364 261 421 m 186 825 l 186 1004 l 369 1004 l 369 825 l 186 825 m 478 825 l 478 1004 l 661 1004 l 661 825 l 478 825 m 214 1135 l 214 1269 l 636 1269 l 636 1135 l 214 1135 z "},"ȱ":{"ha":847,"x_min":33,"x_max":814,"o":"m 424 -14 q 258 17 331 -14 q 135 100 185 47 q 59 221 85 153 q 33 364 33 289 q 59 508 33 440 q 135 629 85 576 q 258 713 185 682 q 424 743 331 743 q 589 713 517 743 q 711 629 661 682 q 788 508 761 576 q 814 364 814 440 q 788 221 814 289 q 711 100 761 153 q 589 17 661 47 q 424 -14 517 -14 m 261 364 q 283 264 261 307 q 340 197 304 221 q 424 174 376 174 q 506 198 469 174 q 564 265 543 222 q 585 364 585 308 q 564 464 585 421 q 506 531 543 507 q 424 554 469 554 q 340 531 376 554 q 283 464 304 507 q 261 364 261 421 m 324 824 l 324 1014 l 524 1014 l 524 824 l 324 824 m 214 1147 l 214 1282 l 636 1282 l 636 1147 l 214 1147 z "},"ọ":{"ha":847,"x_min":33,"x_max":814,"o":"m 424 -14 q 258 17 331 -14 q 135 100 185 47 q 59 221 85 153 q 33 364 33 289 q 59 508 33 440 q 135 629 85 576 q 258 713 185 682 q 424 743 331 743 q 589 713 517 743 q 711 629 661 682 q 788 508 761 576 q 814 364 814 440 q 788 221 814 289 q 711 100 761 153 q 589 17 661 47 q 424 -14 517 -14 m 261 364 q 283 264 261 307 q 340 197 304 221 q 424 174 376 174 q 506 198 469 174 q 564 265 543 222 q 585 364 585 308 q 564 464 585 421 q 506 531 543 507 q 424 554 469 554 q 340 531 376 554 q 283 464 304 507 q 261 364 261 421 m 324 -286 l 324 -96 l 524 -96 l 524 -286 l 324 -286 z "},"ò":{"ha":847,"x_min":33,"x_max":814,"o":"m 424 -14 q 258 17 331 -14 q 135 100 185 47 q 59 221 85 153 q 33 364 33 289 q 59 508 33 440 q 135 629 85 576 q 258 713 185 682 q 424 743 331 743 q 589 713 517 743 q 711 629 661 682 q 788 508 761 576 q 814 364 814 440 q 788 221 814 289 q 711 100 761 153 q 589 17 661 47 q 424 -14 517 -14 m 261 364 q 283 264 261 307 q 340 197 304 221 q 424 174 376 174 q 506 198 469 174 q 564 265 543 222 q 585 364 585 308 q 564 464 585 421 q 506 531 543 507 q 424 554 469 554 q 340 531 376 554 q 283 464 304 507 q 261 364 261 421 m 233 1014 l 435 1014 l 507 833 l 367 794 l 233 1014 z "},"ỏ":{"ha":847,"x_min":33,"x_max":814,"o":"m 424 -14 q 258 17 331 -14 q 135 100 185 47 q 59 221 85 153 q 33 364 33 289 q 59 508 33 440 q 135 629 85 576 q 258 713 185 682 q 424 743 331 743 q 589 713 517 743 q 711 629 661 682 q 788 508 761 576 q 814 364 814 440 q 788 221 814 289 q 711 100 761 153 q 589 17 661 47 q 424 -14 517 -14 m 261 364 q 283 264 261 307 q 340 197 304 221 q 424 174 376 174 q 506 198 469 174 q 564 265 543 222 q 585 364 585 308 q 564 464 585 421 q 506 531 543 507 q 424 554 469 554 q 340 531 376 554 q 283 464 304 507 q 261 364 261 421 m 349 947 l 285 1010 q 360 1065 324 1047 q 435 1082 396 1082 q 526 1051 493 1082 q 560 972 560 1021 q 537 891 560 925 q 464 817 514 857 l 410 874 q 445 908 433 892 q 457 942 457 925 q 446 971 457 960 q 417 982 435 982 q 383 974 397 982 q 349 947 369 965 z "},"ơ":{"ha":847,"x_min":33,"x_max":814,"o":"m 424 -14 q 258 17 331 -14 q 135 100 185 47 q 59 221 85 153 q 33 364 33 289 q 59 508 33 440 q 135 629 85 576 q 258 713 185 682 q 424 743 331 743 q 589 713 517 743 q 711 629 661 682 q 788 508 761 576 q 814 364 814 440 q 788 221 814 289 q 711 100 761 153 q 589 17 661 47 q 424 -14 517 -14 m 261 364 q 283 264 261 307 q 340 197 304 221 q 424 174 376 174 q 506 198 469 174 q 564 265 543 222 q 585 364 585 308 q 564 464 585 421 q 506 531 543 507 q 424 554 469 554 q 340 531 376 554 q 283 464 304 507 q 261 364 261 421 m 497 576 l 500 728 q 581 735 549 728 q 629 760 613 742 q 649 803 647 779 q 653 854 651 828 l 810 854 q 805 785 808 821 q 788 715 801 750 q 744 650 775 681 q 683 611 722 628 q 595 585 643 594 q 497 576 547 576 z "},"ớ":{"ha":847,"x_min":33,"x_max":814,"o":"m 424 -14 q 258 17 331 -14 q 135 100 185 47 q 59 221 85 153 q 33 364 33 289 q 59 508 33 440 q 135 629 85 576 q 258 713 185 682 q 424 743 331 743 q 589 713 517 743 q 711 629 661 682 q 788 508 761 576 q 814 364 814 440 q 788 221 814 289 q 711 100 761 153 q 589 17 661 47 q 424 -14 517 -14 m 261 364 q 283 264 261 307 q 340 197 304 221 q 424 174 376 174 q 506 198 469 174 q 564 265 543 222 q 585 364 585 308 q 564 464 585 421 q 506 531 543 507 q 424 554 469 554 q 340 531 376 554 q 283 464 304 507 q 261 364 261 421 m 497 576 l 500 728 q 581 735 549 728 q 629 760 613 742 q 649 803 647 779 q 653 854 651 828 l 810 854 q 805 785 808 821 q 788 715 801 750 q 744 650 775 681 q 683 611 722 628 q 595 585 643 594 q 497 576 547 576 m 494 794 l 353 833 l 425 1014 l 626 1014 l 494 794 z "},"ợ":{"ha":847,"x_min":33,"x_max":814,"o":"m 424 -14 q 258 17 331 -14 q 135 100 185 47 q 59 221 85 153 q 33 364 33 289 q 59 508 33 440 q 135 629 85 576 q 258 713 185 682 q 424 743 331 743 q 589 713 517 743 q 711 629 661 682 q 788 508 761 576 q 814 364 814 440 q 788 221 814 289 q 711 100 761 153 q 589 17 661 47 q 424 -14 517 -14 m 261 364 q 283 264 261 307 q 340 197 304 221 q 424 174 376 174 q 506 198 469 174 q 564 265 543 222 q 585 364 585 308 q 564 464 585 421 q 506 531 543 507 q 424 554 469 554 q 340 531 376 554 q 283 464 304 507 q 261 364 261 421 m 497 576 l 500 728 q 581 735 549 728 q 629 760 613 742 q 649 803 647 779 q 653 854 651 828 l 810 854 q 805 785 808 821 q 788 715 801 750 q 744 650 775 681 q 683 611 722 628 q 595 585 643 594 q 497 576 547 576 m 324 -286 l 324 -96 l 524 -96 l 524 -286 l 324 -286 z "},"ờ":{"ha":847,"x_min":33,"x_max":814,"o":"m 424 -14 q 258 17 331 -14 q 135 100 185 47 q 59 221 85 153 q 33 364 33 289 q 59 508 33 440 q 135 629 85 576 q 258 713 185 682 q 424 743 331 743 q 589 713 517 743 q 711 629 661 682 q 788 508 761 576 q 814 364 814 440 q 788 221 814 289 q 711 100 761 153 q 589 17 661 47 q 424 -14 517 -14 m 261 364 q 283 264 261 307 q 340 197 304 221 q 424 174 376 174 q 506 198 469 174 q 564 265 543 222 q 585 364 585 308 q 564 464 585 421 q 506 531 543 507 q 424 554 469 554 q 340 531 376 554 q 283 464 304 507 q 261 364 261 421 m 497 576 l 500 728 q 581 735 549 728 q 629 760 613 742 q 649 803 647 779 q 653 854 651 828 l 810 854 q 805 785 808 821 q 788 715 801 750 q 744 650 775 681 q 683 611 722 628 q 595 585 643 594 q 497 576 547 576 m 233 1014 l 435 1014 l 507 833 l 367 794 l 233 1014 z "},"ở":{"ha":847,"x_min":33,"x_max":814,"o":"m 424 -14 q 258 17 331 -14 q 135 100 185 47 q 59 221 85 153 q 33 364 33 289 q 59 508 33 440 q 135 629 85 576 q 258 713 185 682 q 424 743 331 743 q 589 713 517 743 q 711 629 661 682 q 788 508 761 576 q 814 364 814 440 q 788 221 814 289 q 711 100 761 153 q 589 17 661 47 q 424 -14 517 -14 m 261 364 q 283 264 261 307 q 340 197 304 221 q 424 174 376 174 q 506 198 469 174 q 564 265 543 222 q 585 364 585 308 q 564 464 585 421 q 506 531 543 507 q 424 554 469 554 q 340 531 376 554 q 283 464 304 507 q 261 364 261 421 m 497 576 l 500 728 q 581 735 549 728 q 629 760 613 742 q 649 803 647 779 q 653 854 651 828 l 810 854 q 805 785 808 821 q 788 715 801 750 q 744 650 775 681 q 683 611 722 628 q 595 585 643 594 q 497 576 547 576 m 349 947 l 285 1010 q 360 1065 324 1047 q 435 1082 396 1082 q 526 1051 493 1082 q 560 972 560 1021 q 537 891 560 925 q 464 817 514 857 l 410 874 q 445 908 433 892 q 457 942 457 925 q 446 971 457 960 q 417 982 435 982 q 383 974 397 982 q 349 947 369 965 z "},"ỡ":{"ha":847,"x_min":33,"x_max":814,"o":"m 424 -14 q 258 17 331 -14 q 135 100 185 47 q 59 221 85 153 q 33 364 33 289 q 59 508 33 440 q 135 629 85 576 q 258 713 185 682 q 424 743 331 743 q 589 713 517 743 q 711 629 661 682 q 788 508 761 576 q 814 364 814 440 q 788 221 814 289 q 711 100 761 153 q 589 17 661 47 q 424 -14 517 -14 m 261 364 q 283 264 261 307 q 340 197 304 221 q 424 174 376 174 q 506 198 469 174 q 564 265 543 222 q 585 364 585 308 q 564 464 585 421 q 506 531 543 507 q 424 554 469 554 q 340 531 376 554 q 283 464 304 507 q 261 364 261 421 m 497 576 l 500 728 q 581 735 549 728 q 629 760 613 742 q 649 803 647 779 q 653 854 651 828 l 810 854 q 805 785 808 821 q 788 715 801 750 q 744 650 775 681 q 683 611 722 628 q 595 585 643 594 q 497 576 547 576 m 517 817 q 444 833 475 817 q 389 865 414 849 q 332 881 364 881 q 288 865 301 881 q 270 833 274 850 q 267 814 267 817 l 147 814 q 156 862 147 829 q 187 928 165 894 q 242 987 208 963 q 324 1011 275 1011 q 397 994 368 1011 q 451 961 425 978 q 508 944 476 944 q 556 960 542 944 q 576 994 571 976 q 581 1014 581 1013 l 700 1014 q 690 972 700 1003 q 659 905 681 940 q 603 843 638 869 q 517 817 568 817 z "},"ő":{"ha":847,"x_min":33,"x_max":814,"o":"m 424 -14 q 258 17 331 -14 q 135 100 185 47 q 59 221 85 153 q 33 364 33 289 q 59 508 33 440 q 135 629 85 576 q 258 713 185 682 q 424 743 331 743 q 589 713 517 743 q 711 629 661 682 q 788 508 761 576 q 814 364 814 440 q 788 221 814 289 q 711 100 761 153 q 589 17 661 47 q 424 -14 517 -14 m 261 364 q 283 264 261 307 q 340 197 304 221 q 424 174 376 174 q 506 198 469 174 q 564 265 543 222 q 585 364 585 308 q 564 464 585 421 q 506 531 543 507 q 424 554 469 554 q 340 531 376 554 q 283 464 304 507 q 261 364 261 421 m 335 796 l 228 835 l 290 1015 l 457 1015 l 335 796 m 578 796 l 471 835 l 532 1015 l 699 1015 l 578 796 z "},"ȏ":{"ha":847,"x_min":33,"x_max":814,"o":"m 424 -14 q 258 17 331 -14 q 135 100 185 47 q 59 221 85 153 q 33 364 33 289 q 59 508 33 440 q 135 629 85 576 q 258 713 185 682 q 424 743 331 743 q 589 713 517 743 q 711 629 661 682 q 788 508 761 576 q 814 364 814 440 q 788 221 814 289 q 711 100 761 153 q 589 17 661 47 q 424 -14 517 -14 m 261 364 q 283 264 261 307 q 340 197 304 221 q 424 174 376 174 q 506 198 469 174 q 564 265 543 222 q 585 364 585 308 q 564 464 585 421 q 506 531 543 507 q 424 554 469 554 q 340 531 376 554 q 283 464 304 507 q 261 364 261 421 m 422 917 q 365 885 389 917 q 340 810 340 853 l 222 810 q 278 956 222 899 q 422 1014 335 1014 q 567 956 511 1014 q 622 810 622 899 l 507 810 q 478 886 503 856 q 422 917 454 917 z "},"ō":{"ha":847,"x_min":33,"x_max":814,"o":"m 424 -14 q 258 17 331 -14 q 135 100 185 47 q 59 221 85 153 q 33 364 33 289 q 59 508 33 440 q 135 629 85 576 q 258 713 185 682 q 424 743 331 743 q 589 713 517 743 q 711 629 661 682 q 788 508 761 576 q 814 364 814 440 q 788 221 814 289 q 711 100 761 153 q 589 17 661 47 q 424 -14 517 -14 m 261 364 q 283 264 261 307 q 340 197 304 221 q 424 174 376 174 q 506 198 469 174 q 564 265 543 222 q 585 364 585 308 q 564 464 585 421 q 506 531 543 507 q 424 554 469 554 q 340 531 376 554 q 283 464 304 507 q 261 364 261 421 m 214 863 l 214 997 l 636 997 l 636 863 l 214 863 z "},"ṓ":{"ha":847,"x_min":33,"x_max":814,"o":"m 424 -14 q 258 17 331 -14 q 135 100 185 47 q 59 221 85 153 q 33 364 33 289 q 59 508 33 440 q 135 629 85 576 q 258 713 185 682 q 424 743 331 743 q 589 713 517 743 q 711 629 661 682 q 788 508 761 576 q 814 364 814 440 q 788 221 814 289 q 711 100 761 153 q 589 17 661 47 q 424 -14 517 -14 m 261 364 q 283 264 261 307 q 340 197 304 221 q 424 174 376 174 q 506 198 469 174 q 564 265 543 222 q 585 364 585 308 q 564 464 585 421 q 506 531 543 507 q 424 554 469 554 q 340 531 376 554 q 283 464 304 507 q 261 364 261 421 m 214 863 l 214 997 l 636 997 l 636 863 l 214 863 m 496 1063 l 354 1101 l 426 1282 l 628 1282 l 496 1063 z "},"ṑ":{"ha":847,"x_min":33,"x_max":814,"o":"m 424 -14 q 258 17 331 -14 q 135 100 185 47 q 59 221 85 153 q 33 364 33 289 q 59 508 33 440 q 135 629 85 576 q 258 713 185 682 q 424 743 331 743 q 589 713 517 743 q 711 629 661 682 q 788 508 761 576 q 814 364 814 440 q 788 221 814 289 q 711 100 761 153 q 589 17 661 47 q 424 -14 517 -14 m 261 364 q 283 264 261 307 q 340 197 304 221 q 424 174 376 174 q 506 198 469 174 q 564 265 543 222 q 585 364 585 308 q 564 464 585 421 q 506 531 543 507 q 424 554 469 554 q 340 531 376 554 q 283 464 304 507 q 261 364 261 421 m 214 863 l 214 997 l 636 997 l 636 863 l 214 863 m 235 1282 l 436 1282 l 508 1101 l 368 1063 l 235 1282 z "},"ǫ":{"ha":847,"x_min":33,"x_max":814,"o":"m 424 -14 q 258 17 331 -14 q 135 100 185 47 q 59 221 85 153 q 33 364 33 289 q 59 508 33 440 q 135 629 85 576 q 258 713 185 682 q 424 743 331 743 q 589 713 517 743 q 711 629 661 682 q 788 508 761 576 q 814 364 814 440 q 788 221 814 289 q 711 100 761 153 q 589 17 661 47 q 424 -14 517 -14 m 261 364 q 283 264 261 307 q 340 197 304 221 q 424 174 376 174 q 506 198 469 174 q 564 265 543 222 q 585 364 585 308 q 564 464 585 421 q 506 531 543 507 q 424 554 469 554 q 340 531 376 554 q 283 464 304 507 q 261 364 261 421 m 294 -157 q 332 -59 294 -108 q 443 31 369 -10 l 515 31 l 536 0 q 460 -62 486 -33 q 433 -115 433 -92 q 458 -153 433 -139 q 533 -168 483 -167 l 492 -289 q 377 -261 421 -281 q 314 -214 333 -242 q 294 -157 294 -186 z "},"ø":{"ha":847,"x_min":33,"x_max":814,"o":"m 424 -14 q 258 17 331 -14 q 135 100 185 47 q 59 221 85 153 q 33 364 33 289 q 59 508 33 439 q 135 629 85 576 q 258 713 185 682 q 424 743 331 743 q 589 713 517 743 q 711 629 661 682 q 788 508 761 576 q 814 364 814 439 q 788 221 814 289 q 711 100 761 153 q 589 17 661 47 q 424 -14 517 -14 m 424 174 q 506 198 469 174 q 564 265 543 222 q 585 364 585 308 q 564 464 585 421 q 506 531 543 507 q 424 554 469 554 q 340 531 376 554 q 283 464 304 507 q 261 364 261 421 q 283 264 261 307 q 340 197 304 221 q 424 174 376 174 m 40 -7 l 204 193 l 286 128 l 169 -7 l 40 -7 m 299 147 l 233 206 l 550 596 l 628 550 l 299 147 m 657 564 l 563 615 l 667 736 l 797 736 l 657 564 z "},"ǿ":{"ha":847,"x_min":33,"x_max":814,"o":"m 424 -14 q 258 17 331 -14 q 135 100 185 47 q 59 221 85 153 q 33 364 33 289 q 59 508 33 439 q 135 629 85 576 q 258 713 185 682 q 424 743 331 743 q 589 713 517 743 q 711 629 661 682 q 788 508 761 576 q 814 364 814 439 q 788 221 814 289 q 711 100 761 153 q 589 17 661 47 q 424 -14 517 -14 m 424 174 q 506 198 469 174 q 564 265 543 222 q 585 364 585 308 q 564 464 585 421 q 506 531 543 507 q 424 554 469 554 q 340 531 376 554 q 283 464 304 507 q 261 364 261 421 q 283 264 261 307 q 340 197 304 221 q 424 174 376 174 m 40 -7 l 204 193 l 286 128 l 169 -7 l 40 -7 m 299 147 l 233 206 l 550 596 l 628 550 l 299 147 m 657 564 l 563 615 l 667 736 l 797 736 l 657 564 m 449 794 l 307 833 l 379 1014 l 581 1014 l 449 794 z "},"õ":{"ha":847,"x_min":33,"x_max":814,"o":"m 424 -14 q 258 17 331 -14 q 135 100 185 47 q 59 221 85 153 q 33 364 33 289 q 59 508 33 440 q 135 629 85 576 q 258 713 185 682 q 424 743 331 743 q 589 713 517 743 q 711 629 661 682 q 788 508 761 576 q 814 364 814 440 q 788 221 814 289 q 711 100 761 153 q 589 17 661 47 q 424 -14 517 -14 m 261 364 q 283 264 261 307 q 340 197 304 221 q 424 174 376 174 q 506 198 469 174 q 564 265 543 222 q 585 364 585 308 q 564 464 585 421 q 506 531 543 507 q 424 554 469 554 q 340 531 376 554 q 283 464 304 507 q 261 364 261 421 m 517 817 q 444 833 475 817 q 389 865 414 849 q 332 881 364 881 q 288 865 301 881 q 270 833 274 850 q 267 814 267 817 l 147 814 q 156 862 147 829 q 187 928 165 894 q 242 987 208 963 q 324 1011 275 1011 q 397 994 368 1011 q 451 961 425 978 q 508 944 476 944 q 556 960 542 944 q 576 994 571 976 q 581 1014 581 1013 l 700 1014 q 690 972 700 1003 q 659 905 681 940 q 603 843 638 869 q 517 817 568 817 z "},"ṍ":{"ha":847,"x_min":33,"x_max":814,"o":"m 424 -14 q 258 17 331 -14 q 135 100 185 47 q 59 221 85 153 q 33 364 33 289 q 59 508 33 440 q 135 629 85 576 q 258 713 185 682 q 424 743 331 743 q 589 713 517 743 q 711 629 661 682 q 788 508 761 576 q 814 364 814 440 q 788 221 814 289 q 711 100 761 153 q 589 17 661 47 q 424 -14 517 -14 m 261 364 q 283 264 261 307 q 340 197 304 221 q 424 174 376 174 q 506 198 469 174 q 564 265 543 222 q 585 364 585 308 q 564 464 585 421 q 506 531 543 507 q 424 554 469 554 q 340 531 376 554 q 283 464 304 507 q 261 364 261 421 m 517 817 q 444 833 475 817 q 389 865 414 849 q 332 881 364 881 q 288 865 301 881 q 270 833 274 850 q 267 814 267 817 l 147 814 q 156 862 147 829 q 187 928 165 894 q 242 987 208 963 q 324 1011 275 1011 q 397 994 368 1011 q 451 961 425 978 q 508 944 476 944 q 556 960 542 944 q 576 994 571 976 q 581 1014 581 1013 l 700 1014 q 690 972 700 1003 q 659 905 681 940 q 603 843 638 869 q 517 817 568 817 m 494 1079 l 353 1118 l 425 1299 l 626 1299 l 494 1079 z "}}}
